SplineFontDB: 3.2
FontName: D-DIN-PRO-Exp-Bold-Italic
FullName: D-DIN-PRO-Exp-Bold-Italic
FamilyName: D-DIN-PRO-Exp
Weight: Bold
Copyright: Copyright (c) CyberFei. All rights reserved
Version: 1.1.0
ItalicAngle: -13
UnderlinePosition: -150
UnderlineWidth: 50
Ascent: 831
Descent: 169
InvalidEm: 0
sfntRevision: 0x00010000
LayerCount: 2
Layer: 0 0 "Back" 1
Layer: 1 0 "Fore" 0
XUID: [1021 868 -1451673819 17951]
StyleMap: 0x0020
FSType: 4
OS2Version: 4
OS2_WeightWidthSlopeOnly: 1
OS2_UseTypoMetrics: 0
CreationTime: 1462909513
ModificationTime: 1778060080
PfmFamily: 17
TTFWeight: 700
TTFWidth: 7
LineGap: 0
VLineGap: 0
Panose: 2 11 8 4 2 2 2 3 2 4
OS2TypoAscent: 831
OS2TypoAOffset: 0
OS2TypoDescent: -169
OS2TypoDOffset: 0
OS2TypoLinegap: 86
OS2WinAscent: 902
OS2WinAOffset: 0
OS2WinDescent: 184
OS2WinDOffset: 0
HheadAscent: 902
HheadAOffset: 0
HheadDescent: -184
HheadDOffset: 0
OS2SubXSize: 650
OS2SubYSize: 600
OS2SubXOff: 0
OS2SubYOff: 75
OS2SupXSize: 650
OS2SupYSize: 600
OS2SupXOff: 0
OS2SupYOff: 350
OS2StrikeYSize: 50
OS2StrikeYPos: 312
OS2CapHeight: 690
OS2XHeight: 520
OS2Vendor: 'MONO'
OS2CodePages: 00000001.00000000
OS2UnicodeRanges: 8000006f.4000000a.00000000.00000000
Lookup: 1 0 0 "'rtla' Right to Left Alternates lookup 0" { "'rtla' Right to Left Alternates lookup 0 subtable"  } ['rtla' ('DFLT' <'dflt' > ) ]
Lookup: 1 0 0 "'sups' Superscript lookup 1" { "'sups' Superscript lookup 1 subtable" ("superior") } ['sups' ('DFLT' <'dflt' > ) ]
Lookup: 4 0 0 "'frac' Diagonal Fractions lookup 2" { "'frac' Diagonal Fractions lookup 2 subtable"  } ['frac' ('DFLT' <'dflt' > ) ]
Lookup: 258 0 0 "'kern' Horizontal Kerning in Latin lookup 0" { "'kern' Horizontal Kerning in Latin lookup 0 subtable"  } ['kern' ('DFLT' <'dflt' > 'latn' <'dflt' > ) ]
Lookup: 258 0 0 "Pairwise Positioning (kerning) lookup 1" { "Pairwise Positioning (kerning) lookup 1 subtable"  } []
Lookup: 258 0 0 "Pairwise Positioning (kerning) lookup 2" { "Pairwise Positioning (kerning) lookup 2 subtable"  } []

StartChar: .notdef
Encoding: 65536 -1 0
Width: 600
GlyphClass: 1
Flags: MW
HStem: 0 34<58.583 387.583 58.583 413.733> 656 34<202.183 531.183 202.183 202.183>
LayerCount: 2
Fore
SplineSet
176.032226562 690 m 1
 573.032226562 690 l 1
 413.733398438 0 l 1
 16.7333984375 0 l 1
 176.032226562 690 l 1
387.583007812 34 m 1
 531.182617188 656 l 1
 202.182617188 656 l 1
 58.5830078125 34 l 1
 387.583007812 34 l 1
EndSplineSet
EndChar

StartChar: exclam
Encoding: 33 33 4
Width: 249
GlyphClass: 2
Flags: MW
HStem: 0 130<4.74609 105.733 -25.2666 135.746> 670 20G<129.032 270.032 270.032 270.032>
VStem: -25.2666 295.299
LayerCount: 2
Fore
SplineSet
129.032226562 690 m 1
 270.032226562 690 l 1
 139.833007812 230 l 1
 46.8330078125 230 l 1
 129.032226562 690 l 1
4.74609375 130 m 1
 135.74609375 130 l 1
 105.733398438 0 l 1
 -25.2666015625 0 l 1
 4.74609375 130 l 1
EndSplineSet
EndChar

StartChar: quotedbl
Encoding: 34 34 5
Width: 396
GlyphClass: 2
Flags: MW
HStem: 392 298<113.032 161.233 44.2334 230.032 113.032 248.233 317.032 364.233>
LayerCount: 2
Fore
SplineSet
113.032226562 690 m 1
 230.032226562 690 l 1
 161.233398438 392 l 1
 44.2333984375 392 l 1
 113.032226562 690 l 1
317.032226562 690 m 1
 433.032226562 690 l 1
 364.233398438 392 l 1
 248.233398438 392 l 1
 317.032226562 690 l 1
EndSplineSet
EndChar

StartChar: numbersign
Encoding: 35 35 6
Width: 602
GlyphClass: 2
Flags: MW
HStem: 0 21G<11.7334 114.733 11.7334 11.7334 226.733 330.733 226.733 226.733> 204 92<2.07031 85.8301 -19.1699 119.07 222.07 300.83 2.07031 188.83 438.07 518.83> 406 92<76.7051 159.466 55.4658 192.705 76.7051 262.466 295.705 374.466 510.705 593.466> 670 20G<262.032 365.032 365.032 365.032 477.032 580.032 580.032 580.032>
LayerCount: 2
Fore
SplineSet
477.465820312 406 m 1
 438.0703125 296 l 1
 540.0703125 296 l 1
 518.830078125 204 l 1
 404.830078125 204 l 1
 330.733398438 0 l 1
 226.733398438 0 l 1
 300.830078125 204 l 1
 188.830078125 204 l 1
 114.733398438 0 l 1
 11.7333984375 0 l 1
 85.830078125 204 l 1
 -19.169921875 204 l 1
 2.0703125 296 l 1
 119.0703125 296 l 1
 159.465820312 406 l 1
 55.4658203125 406 l 1
 76.705078125 498 l 1
 192.705078125 498 l 1
 262.032226562 690 l 1
 365.032226562 690 l 1
 295.705078125 498 l 1
 407.705078125 498 l 1
 477.032226562 690 l 1
 580.032226562 690 l 1
 510.705078125 498 l 1
 614.705078125 498 l 1
 593.465820312 406 l 1
 477.465820312 406 l 1
374.465820312 406 m 1
 262.465820312 406 l 1
 222.0703125 296 l 1
 334.0703125 296 l 1
 374.465820312 406 l 1
EndSplineSet
EndChar

StartChar: dollar
Encoding: 36 36 7
Width: 535
GlyphClass: 2
Flags: MW
VStem: -3.85938 115<227.001 227.001> 402.318 117<478.999 478.999>
LayerCount: 2
Fore
SplineSet
388.857421875 91.5 m 0
 347.239257812 58.5 295.326171875 38.66796875 233.120117188 32.0009765625 c 1
 211.879882812 -59.9990234375 l 1
 122.879882812 -59.9990234375 l 1
 143.889648438 31.0009765625 l 1
 85.94140625 37.0009765625 44.1875 56.833984375 18.626953125 90.5009765625 c 0
 -6.93359375 124.16796875 -14.4287109375 169.66796875 -3.859375 227.000976562 c 1
 111.140625 227.000976562 l 1
 107.598632812 194.333984375 114.044921875 171.000976562 130.479492188 157.000976562 c 0
 146.9140625 143.000976562 175.465820312 136.000976562 216.1328125 136.000976562 c 0
 252.799804688 136.000976562 282.171875 142.66796875 304.25 156.000976562 c 0
 326.328125 169.333984375 340.368164062 189.000976562 346.37109375 215.000976562 c 0
 351.7578125 238.333984375 349.580078125 256.333984375 339.837890625 269.000976562 c 0
 330.095703125 281.66796875 311.275390625 289.66796875 283.37890625 293.000976562 c 2
 210.6875 303.000976562 l 2
 93.7138671875 319.000976562 46.771484375 377.000976562 69.8583984375 477.000976562 c 0
 81.7099609375 528.333984375 106.8671875 570.166992188 145.33203125 602.5 c 0
 183.796875 634.833007812 231.875976562 654.666015625 289.568359375 661.999023438 c 1
 307.576171875 739.999023438 l 1
 396.576171875 739.999023438 l 1
 378.799804688 662.999023438 l 1
 432.747070312 656.999023438 471.770507812 638.33203125 495.870117188 606.999023438 c 0
 519.96875 575.666015625 527.78515625 532.999023438 519.318359375 478.999023438 c 1
 402.318359375 478.999023438 l 1
 406.116210938 506.999023438 400.5546875 527.666015625 385.6328125 540.999023438 c 0
 370.7109375 554.33203125 345.916992188 560.999023438 311.25 560.999023438 c 0
 278.583007812 560.999023438 252.08203125 554.499023438 231.748046875 541.499023438 c 0
 211.4140625 528.499023438 198.475585938 509.999023438 192.934570312 485.999023438 c 0
 188.009765625 464.666015625 191.290039062 447.833007812 202.776367188 435.5 c 0
 214.26171875 423.166992188 235.466796875 414.666992188 266.388671875 410 c 2
 341.849609375 399 l 2
 450.822265625 383 493.688476562 324.666992188 470.447265625 224 c 0
 457.672851562 168.666992188 430.4765625 124.5 388.857421875 91.5 c 0
EndSplineSet
EndChar

StartChar: percent
Encoding: 37 37 8
Width: 983
GlyphClass: 2
Flags: MW
HStem: -5.99805 89<712.562 731.229 712.562 750.682> 264 89.001<185.896 204.563 185.896 224.016> 338.001 88.001<777.083 789.767> 608.001 87.999<250.417 263.102>
LayerCount: 2
Fore
SplineSet
60.544921875 428 m 2xd0
 86.40234375 540.000976562 l 2
 98.2529296875 591.333984375 120.21875 630.166992188 152.297851562 656.5 c 0
 184.377929688 682.833007812 225.416992188 696 275.416992188 696 c 0
 374.75 696 412.412109375 644 388.40234375 540 c 2
 362.544921875 428 l 2
 337.302734375 318.666992188 274.349609375 264 173.682617188 264 c 0
 73.015625 264 35.302734375 318.666992188 60.544921875 428 c 2xd0
739.186523438 695.000976562 m 1
 841.186523438 695.000976562 l 1
 236.733398438 0.0009765625 l 1
 135.733398438 0.0009765625 l 1
 739.186523438 695.000976562 l 1
236.885742188 371.000976562 m 0
 245.989257812 383.000976562 253.927734375 403.668945312 260.69921875 433.001953125 c 2
 282.401367188 527.001953125 l 2
 289.172851562 556.334960938 290.649414062 577.16796875 286.830078125 589.500976562 c 0
 283.010742188 601.833984375 272.1015625 608.000976562 254.1015625 608.000976562 c 0
 235.434570312 608.000976562 221.177734375 601.833984375 211.330078125 589.500976562 c 0
 201.482421875 577.165039062 193.172851562 556.33203125 186.400390625 527.000976562 c 2
 164.69921875 433.000976562 l 2
 157.926757812 403.66796875 156.65625 383.000976562 160.885742188 371.000976562 c 0
 165.115234375 359.000976562 176.5625 353.000976562 195.229492188 353.000976562 c 0
 213.896484375 353.000976562 227.782226562 359.000976562 236.885742188 371.000976562 c 0
587.2109375 158.001953125 m 2
 613.068359375 270.001953125 l 2
 624.918945312 321.3359375 646.884765625 360.168945312 678.963867188 386.501953125 c 0
 711.043945312 412.834960938 752.083007812 426.001953125 802.083007812 426.001953125 c 0xb0
 901.416015625 426.001953125 939.078125 374.001953125 915.068359375 270.001953125 c 2
 889.2109375 158.001953125 l 2
 863.96875 48.6689453125 801.015625 -5.998046875 700.348632812 -5.998046875 c 0
 599.681640625 -5.998046875 561.96875 48.6689453125 587.2109375 158.001953125 c 2
763.55078125 101.001953125 m 0
 772.654296875 113.001953125 780.592773438 133.66796875 787.365234375 163.000976562 c 2
 809.06640625 257.000976562 l 2
 815.838867188 286.334960938 817.315429688 307.16796875 813.49609375 319.500976562 c 0
 809.67578125 331.833984375 798.766601562 338.000976562 780.766601562 338.000976562 c 0
 762.099609375 338.000976562 747.842773438 331.833984375 737.99609375 319.500976562 c 0
 728.1484375 307.16796875 719.838867188 286.334960938 713.06640625 257.001953125 c 2
 691.365234375 163.001953125 l 2
 684.592773438 133.668945312 683.321289062 113.001953125 687.55078125 101.001953125 c 0
 691.78125 89.001953125 703.228515625 83.001953125 721.895507812 83.001953125 c 0
 740.5625 83.001953125 754.448242188 89.001953125 763.55078125 101.001953125 c 0
EndSplineSet
EndChar

StartChar: ampersand
Encoding: 38 38 9
Width: 666
GlyphClass: 2
Flags: MW
HStem: -14.001 107.001<184.872 187.168> -0.000976562 107<468.733 559.437 480.733 559.437> 607.999 96.001<342.931 360.102>
LayerCount: 2
Fore
SplineSet
504.051757812 114 m 0xa0
 512.307617188 109.333007812 523.436523438 106.999023438 537.436523438 106.999023438 c 2
 559.436523438 106.999023438 l 1
 534.733398438 -0.0009765625 l 1
 480.733398438 -0.0009765625 l 2x60
 456.733398438 -0.0009765625 437.234375 4.33203125 422.235351562 12.9990234375 c 0
 407.236328125 21.666015625 392.506835938 37.9990234375 378.047851562 61.9990234375 c 2
 375.740234375 64.9990234375 l 1
 339.122070312 36.33203125 304.427734375 15.9990234375 271.657226562 3.9990234375 c 0
 238.88671875 -8.0009765625 204.834960938 -14.0009765625 169.501953125 -14.0009765625 c 0
 103.501953125 -14.0009765625 56.029296875 4.166015625 27.083984375 40.4990234375 c 0
 -1.861328125 76.83203125 -9.638671875 123.999023438 3.751953125 181.999023438 c 0
 13.140625 222.666015625 31.990234375 258.833007812 60.3017578125 290.5 c 0
 88.6123046875 322.166992188 129.486328125 352.666992188 182.92578125 382 c 1
 163.954101562 415.333007812 151.751953125 443.333007812 146.317382812 466 c 0
 140.883789062 488.666992188 141.091796875 512.666992188 146.940429688 538 c 0
 158.483398438 588 184.923828125 628.166992188 226.259765625 658.5 c 0
 267.595703125 688.833007812 315.59765625 704 370.264648438 704 c 0
 425.59765625 704 467.057617188 688.666992188 494.64453125 658 c 0
 522.231445312 627.333007812 530.330078125 587.333007812 518.940429688 538 c 0
 510.936523438 503.333007812 493.485351562 472.5 466.584960938 445.5 c 0
 439.684570312 418.5 398.284179688 389.333007812 342.383789062 358 c 1
 422.833007812 230 l 1
 536.150390625 331 l 1
 596.989257812 261 l 1
 472.36328125 150 l 1
 479.82421875 139 l 2
 487.720703125 127 495.796875 118.666992188 504.051757812 114 c 0xa0
293.561523438 590.499023438 m 0
 278.53515625 578.83203125 268.712890625 563 264.095703125 543 c 0
 260.708984375 528.333007812 261.041015625 513.166015625 265.090820312 497.499023438 c 0
 269.140625 481.83203125 278.908203125 461.33203125 294.392578125 435.999023438 c 1
 333.1640625 456.666015625 360.396484375 474.999023438 376.08984375 490.999023438 c 0
 391.784179688 506.999023438 401.631835938 523.666015625 405.633789062 540.999023438 c 0
 410.250976562 560.999023438 407.483398438 577.166015625 397.331054688 589.499023438 c 0
 387.177734375 601.83203125 371.1015625 607.999023438 349.1015625 607.999023438 c 0
 327.1015625 607.999023438 308.587890625 602.166015625 293.561523438 590.499023438 c 0
259.975585938 105 m 0
 279.822265625 113 302.309570312 126.666992188 327.439453125 146 c 1
 232.224609375 301 l 1
 196.940429688 281 171.130859375 262.333007812 154.795898438 245 c 0
 138.4609375 227.666015625 127.831054688 208.333007812 122.905273438 187 c 0
 116.133789062 157.666992188 119.65625 134.666992188 133.475585938 118 c 0
 147.294921875 101.333007812 169.538085938 93 200.205078125 93 c 0xa0
 220.205078125 93 240.127929688 97 259.975585938 105 c 0
EndSplineSet
EndChar

StartChar: quotesingle
Encoding: 39 39 10
Width: 193
GlyphClass: 2
Flags: MW
HStem: 392 298<113.032 161.233 44.2334 230.032>
VStem: 44.2334 185.799
LayerCount: 2
Fore
SplineSet
113.032226562 690 m 1
 230.032226562 690 l 1
 161.233398438 392 l 1
 44.2333984375 392 l 1
 113.032226562 690 l 1
EndSplineSet
EndChar

StartChar: parenleft
Encoding: 40 40 11
Width: 323
GlyphClass: 2
Flags: W
LayerCount: 2
Fore
SplineSet
22.5126953125 109.5 m 0
 14.9296875 179.166992188 19.9892578125 252.333984375 37.689453125 329.000976562 c 0
 55.6962890625 407.000976562 84.537109375 480.66796875 124.2109375 550.000976562 c 0
 163.884765625 619.333984375 213.672851562 682.666992188 273.576171875 740 c 1
 364.576171875 740 l 1
 314.724609375 680 272.55078125 615 238.057617188 545 c 0
 203.563476562 475 177.697265625 402.666992188 160.458984375 328 c 0
 143.220703125 253.333007812 135.688476562 181 137.860351562 111 c 0
 140.032226562 41 151.859375 -24 173.33984375 -84 c 1
 82.33984375 -84 l 1
 50.0380859375 -24.6669921875 30.0966796875 39.8330078125 22.5126953125 109.5 c 0
EndSplineSet
Substitution2: "'rtla' Right to Left Alternates lookup 0 subtable" parenright
EndChar

StartChar: parenright
Encoding: 41 41 12
Width: 323
GlyphClass: 2
Flags: W
LayerCount: 2
Fore
SplineSet
68.359375 111 m 0
 103.1875 181 129.219726562 253.333007812 146.458007812 328 c 0
 163.696289062 402.666992188 171.228515625 475 169.056640625 545 c 0
 166.883789062 615 154.723632812 680 132.575195312 740 c 1
 223.575195312 740 l 1
 256.185546875 682 276.486328125 618.333007812 284.479492188 549 c 0
 292.47265625 479.666992188 287.54296875 406.333984375 269.689453125 329.000976562 c 0
 251.989257812 252.333984375 223.263671875 179.166992188 183.512695312 109.5 c 0
 143.762695312 39.8330078125 94.0380859375 -24.6669921875 34.33984375 -84 c 1
 -57.66015625 -84 l 1
 -8.474609375 -24 33.53125 41 68.359375 111 c 0
EndSplineSet
Substitution2: "'rtla' Right to Left Alternates lookup 0 subtable" parenleft
EndChar

StartChar: asterisk
Encoding: 42 42 13
Width: 414
GlyphClass: 2
Flags: MW
HStem: 389 301<178.541 317.032 178.541 317.032>
LayerCount: 2
Fore
SplineSet
202.08984375 491 m 1
 92.5458984375 441 l 1
 76.0126953125 495 l 1
 176.6328125 541 l 1
 97.2529296875 587 l 1
 138.719726562 641 l 1
 225.407226562 592 l 1
 248.032226562 690 l 1
 317.032226562 690 l 1
 294.17578125 591 l 1
 403.719726562 641 l 1
 419.252929688 587 l 1
 318.6328125 541 l 1
 399.012695312 495 l 1
 356.545898438 441 l 1
 270.858398438 490 l 1
 247.541015625 389 l 1
 178.541015625 389 l 1
 202.08984375 491 l 1
EndSplineSet
EndChar

StartChar: plus
Encoding: 43 43 14
Width: 529
GlyphClass: 2
Flags: MW
HStem: 219 114<40.6123 174.293 14.293 200.612 40.6123 288.293 314.612 447.293>
LayerCount: 2
Fore
SplineSet
174.29296875 219 m 1
 14.29296875 219 l 1
 40.6123046875 333 l 1
 200.612304688 333 l 1
 237.55078125 493 l 1
 351.55078125 493 l 1
 314.612304688 333 l 1
 473.612304688 333 l 1
 447.29296875 219 l 1
 288.29296875 219 l 1
 251.354492188 59 l 1
 137.354492188 59 l 1
 174.29296875 219 l 1
EndSplineSet
EndChar

StartChar: comma
Encoding: 44 44 15
Width: 193
GlyphClass: 2
Flags: MW
HStem: -162 299<-83.668 102.362>
VStem: -83.668 186.03
LayerCount: 2
Fore
SplineSet
-14.6376953125 137 m 1
 102.362304688 137 l 1
 56.1884765625 -63 l 1
 -83.66796875 -162 l 1
 -14.6376953125 137 l 1
EndSplineSet
EndChar

StartChar: hyphen
Encoding: 45 45 16
Width: 400
GlyphClass: 2
Flags: MW
HStem: 288 115<54.7734 337.224 28.2236 363.773>
LayerCount: 2
Fore
SplineSet
54.7734375 403 m 1
 363.7734375 403 l 1
 337.223632812 288 l 1
 28.2236328125 288 l 1
 54.7734375 403 l 1
EndSplineSet
EndChar

StartChar: period
Encoding: 46 46 17
Width: 215
GlyphClass: 2
Flags: MW
HStem: 0 142<-13.4834 92.7334 -46.2666 125.517>
VStem: -46.2666 171.783<0 142>
LayerCount: 2
Fore
SplineSet
-13.4833984375 142 m 1
 125.516601562 142 l 1
 92.7333984375 0 l 1
 -46.2666015625 0 l 1
 -13.4833984375 142 l 1
EndSplineSet
EndChar

StartChar: slash
Encoding: 47 47 18
Width: 445
GlyphClass: 2
Flags: MW
HStem: -10 21G<-40.5752 63.4248 -40.5752 -40.5752> 675 20G<371.187 476.187 476.187 476.187>
LayerCount: 2
Fore
SplineSet
371.186523438 695 m 1
 476.186523438 695 l 1
 63.4248046875 -10 l 1
 -40.5751953125 -10 l 1
 371.186523438 695 l 1
EndSplineSet
EndChar

StartChar: zero
Encoding: 48 48 19
Width: 564
GlyphClass: 2
Flags: MW
HStem: -11 114<208.513 238.86> 586.001 114.999<326.571 356.022>
LayerCount: 2
Fore
SplineSet
26.603515625 242 m 2
 76.0087890625 456 l 2
 94.6328125 536.666992188 128.3828125 597.666992188 177.2578125 639 c 0
 226.133789062 680.333007812 288.571289062 701 364.571289062 701 c 0
 441.904296875 701 495.133789062 680.333007812 524.2578125 639 c 0
 553.3828125 597.666992188 558.6328125 536.666992188 540.008789062 456 c 2
 490.603515625 242 l 2
 471.364257812 158.666992188 437.486328125 95.6669921875 388.96875 53 c 0
 340.452148438 10.3330078125 277.526367188 -11 200.193359375 -11 c 0
 45.5263671875 -11 -12.3369140625 73.3330078125 26.603515625 242 c 2
312.708007812 138.5 m 0
 333.504882812 162.166992188 349.983398438 200.333984375 362.142578125 253.000976562 c 2
 404.623046875 437.000976562 l 2
 416.782226562 489.66796875 417.721679688 527.66796875 407.44140625 551.000976562 c 0
 397.161132812 574.333984375 374.022460938 586.000976562 338.022460938 586.000976562 c 0
 302.022460938 586.000976562 273.661132812 574.333984375 252.94140625 551.000976562 c 0
 232.221679688 527.666992188 215.78125 489.666992188 203.623046875 437.000976562 c 2
 161.142578125 253.000976562 l 2
 148.983398438 200.333984375 147.838867188 162.166992188 157.708007812 138.5 c 0
 167.577148438 114.833007812 190.512695312 103 226.512695312 103 c 0
 263.1796875 103 291.911132812 114.833007812 312.708007812 138.5 c 0
EndSplineSet
EndChar

StartChar: one
Encoding: 49 49 20
Width: 379
GlyphClass: 2
Flags: MW
HStem: 0 21G<98.7334 229.733 98.7334 98.7334> 670 20G<258.032 389.032 389.032 389.032>
VStem: 59.7793 329.253<468 690>
LayerCount: 2
Fore
SplineSet
226.403320312 553 m 1
 59.779296875 468 l 1
 90.9462890625 603 l 1
 258.032226562 690 l 1
 389.032226562 690 l 1
 229.733398438 0 l 1
 98.7333984375 0 l 1
 226.403320312 553 l 1
EndSplineSet
Substitution2: "'sups' Superscript lookup 1 subtable" uni00B9
EndChar

StartChar: two
Encoding: 50 50 21
Width: 544
GlyphClass: 2
Flags: MW
HStem: 0 115<173.283 419.733> 589.999 111.001<316.904 339.277>
LayerCount: 2
Fore
SplineSet
-6.2568359375 104 m 1
 315.461914062 379.999023438 l 2
 342.38671875 401.33203125 362.14453125 420.499023438 374.736328125 437.499023438 c 0
 387.328125 454.499023438 395.932617188 472.999023438 400.549804688 492.999023438 c 2
 403.08984375 503.999023438 l 2
 409.24609375 530.666015625 405.26171875 551.666015625 391.133789062 566.999023438 c 0
 377.006835938 582.33203125 354.610351562 589.999023438 323.944335938 589.999023438 c 0
 293.944335938 589.999023438 268.583984375 582.666015625 247.865234375 567.999023438 c 0
 227.145507812 553.33203125 213.784179688 532.999023438 207.782226562 506.999023438 c 2
 204.087890625 490.999023438 l 1
 79.087890625 490.999023438 l 1
 84.62890625 514.999023438 l 2
 97.7119140625 571.666992188 128.139648438 616.833984375 175.912109375 650.5 c 0
 223.684570312 684.166992188 282.237304688 701 351.5703125 701 c 0
 398.237304688 701 437.01953125 692.833007812 467.915039062 676.5 c 0
 498.810546875 660.1640625 520.040039062 637.331054688 531.600585938 608 c 0
 543.162109375 578.666992188 544.556640625 545 535.783203125 507 c 2
 532.782226562 494 l 2
 524.625 458.666992188 510.237304688 426.666992188 489.618164062 398 c 0
 469 369.333007812 440.638671875 340.333007812 404.533203125 311 c 2
 173.283203125 115 l 1
 446.283203125 115 l 1
 419.733398438 0 l 1
 -30.2666015625 0 l 1
 -6.2568359375 104 l 1
EndSplineSet
Substitution2: "'sups' Superscript lookup 1 subtable" uni00B2
EndChar

StartChar: three
Encoding: 51 51 22
Width: 555
GlyphClass: 2
Flags: MW
HStem: -11 111<198.819 227.526> 299.999 111<237.619 250.992 211.992 275.619> 589.999 111<318.237 340.277>
LayerCount: 2
Fore
SplineSet
33.390625 37.5 m 0
 1.5224609375 69.8330078125 -7.41015625 116.333007812 6.595703125 177 c 2
 9.1357421875 188 l 1
 131.135742188 188 l 1
 129.288085938 180 l 2
 123.286132812 154 127.70703125 134.166992188 142.551757812 120.5 c 0
 157.396484375 106.833007812 181.819335938 100 215.819335938 100 c 0
 249.15234375 100 276.704101562 108.166992188 298.475585938 124.5 c 0
 320.24609375 140.833007812 334.517578125 163.666015625 341.2890625 192.999023438 c 2
 344.752929688 207.999023438 l 2
 351.986328125 239.33203125 347.834960938 262.499023438 332.297851562 277.499023438 c 0
 316.760742188 292.499023438 289.659179688 299.999023438 250.9921875 299.999023438 c 2
 211.9921875 299.999023438 l 1
 237.619140625 410.999023438 l 1
 275.619140625 410.999023438 l 2
 309.619140625 410.999023438 337.14453125 418.33203125 358.198242188 432.999023438 c 0
 379.250976562 447.666015625 392.932617188 468.666015625 399.2421875 495.999023438 c 2
 402.012695312 507.999023438 l 2
 408.015625 533.999023438 404.338867188 554.166015625 390.98046875 568.499023438 c 0
 377.622070312 582.83203125 355.610351562 589.999023438 324.944335938 589.999023438 c 0
 293.611328125 589.999023438 267.995117188 582.999023438 248.095703125 568.999023438 c 0
 228.196289062 554.999023438 215.24609375 534.999023438 209.244140625 508.999023438 c 2
 207.166015625 499.999023438 l 1
 87.166015625 499.999023438 l 1
 89.244140625 508.999023438 l 2
 103.557617188 570.999023438 133.5234375 618.499023438 179.142578125 651.499023438 c 0
 224.760742188 684.499023438 282.903320312 700.999023438 353.5703125 700.999023438 c 0
 422.904296875 700.999023438 473.543945312 684.999023438 505.489257812 652.999023438 c 0
 537.43359375 620.999023438 546.942382812 576.999023438 534.014648438 520.999023438 c 2
 531.012695312 507.999023438 l 2
 523.625 475.999023438 508.994140625 447.999023438 487.120117188 423.999023438 c 0
 465.24609375 399.999023438 437.026367188 380.999023438 402.461914062 366.999023438 c 1
 435.025390625 354.999023438 457.317382812 335.33203125 469.33984375 307.999023438 c 0
 481.36328125 280.666015625 482.833984375 247.333007812 473.75390625 208 c 2
 470.059570312 192 l 2
 455.591796875 129.333007812 423.331054688 79.8330078125 373.275390625 43.5 c 0
 323.220703125 7.1669921875 262.859375 -11 192.193359375 -11 c 0
 118.193359375 -11 65.2587890625 5.1669921875 33.390625 37.5 c 0
EndSplineSet
Substitution2: "'sups' Superscript lookup 1 subtable" uni00B3
EndChar

StartChar: four
Encoding: 52 52 23
Width: 577
GlyphClass: 2
Flags: MW
HStem: 0 21G<267.733 398.733 267.733 267.733> 110 115<6.67871 6.67871 139.679 293.129 -19.8711 6.67871 450.679 487.129> 670 20G<335.032 469.032 469.032 469.032>
LayerCount: 2
Fore
SplineSet
487.12890625 110 m 1
 424.12890625 110 l 1
 398.733398438 0 l 1
 267.733398438 0 l 1
 293.12890625 110 l 1
 -19.87109375 110 l 1
 6.6787109375 225 l 1
 335.032226562 690 l 1
 469.032226562 690 l 1
 139.678710938 225 l 1
 319.678710938 225 l 1
 357.079101562 387 l 1
 488.079101562 387 l 1
 450.678710938 225 l 1
 513.678710938 225 l 1
 487.12890625 110 l 1
EndSplineSet
EndChar

StartChar: five
Encoding: 53 53 24
Width: 547
GlyphClass: 2
Flags: MW
HStem: -11 111<198.486 222.527> 347 107<259.178 354.213> 578 112<229.175 530.175 229.175 229.175>
LayerCount: 2
Fore
SplineSet
38.0439453125 36 m 0
 5.9453125 67.3330078125 -3.71875 110.666992188 9.056640625 166 c 2
 10.9033203125 174 l 1
 135.903320312 174 l 1
 134.979492188 170 l 2
 130.208007812 149.333007812 134.822265625 132.5 148.821289062 119.5 c 0
 162.819335938 106.5 184.15234375 100 212.819335938 100 c 0
 245.486328125 100 272.307617188 109.333007812 293.284179688 128 c 0
 314.260742188 146.666992188 328.672851562 173 336.522460938 207 c 2
 343.6796875 238 l 2
 351.836914062 273.333007812 349.5703125 300.333007812 336.879882812 319 c 0
 324.189453125 337.666992188 301.844726562 347 269.844726562 347 c 0
 248.51171875 347 228.805664062 342.5 210.727539062 333.5 c 0
 192.649414062 324.5 177.840820312 312.333007812 166.30078125 297 c 1
 51.30078125 297 l 1
 142.032226562 690 l 1
 556.032226562 690 l 1
 530.174804688 578 l 1
 229.174804688 578 l 1
 192.004882812 417 l 1
 231.033203125 441.666992188 274.546875 454 322.546875 454 c 0
 385.879882812 454 430.776367188 435.5 457.234375 398.5 c 0
 483.692382812 361.5 489.225585938 309.666992188 473.833984375 243 c 2
 465.061523438 205 l 2
 449.362304688 137 417.125976562 84 368.353515625 46 c 0
 319.580078125 8 258.860351562 -11 186.193359375 -11 c 0
 119.526367188 -11 70.1435546875 4.6669921875 38.0439453125 36 c 0
EndSplineSet
EndChar

StartChar: six
Encoding: 54 54 25
Width: 569
GlyphClass: 2
Flags: MW
HStem: -11 110.999<210.818 238.86> 311.999 109.001<259.763 371.928> 670 20G<353.031 495.031 495.031 495.031>
LayerCount: 2
Fore
SplineSet
39.0068359375 44.5 m 0
 5.548828125 81.5 -3.5625 132.999023438 11.6748046875 198.999023438 c 2
 16.2919921875 218.999023438 l 2
 27.9892578125 269.666015625 57.27734375 324.333007812 104.154296875 383 c 2
 353.03125 690 l 1
 495.03125 690 l 1
 265.6953125 407 l 1
 286.517578125 416.333007812 311.927734375 421 341.927734375 421 c 0
 401.927734375 421 446.143554688 403.166992188 474.576171875 367.5 c 0
 503.008789062 331.833007812 510.298828125 284 496.446289062 224 c 2
 491.598632812 203 l 2
 476.20703125 136.333007812 442.458007812 84 390.352539062 46 c 0
 338.24609375 8 275.526367188 -11 202.193359375 -11 c 0
 126.860351562 -11 72.46484375 7.5 39.0068359375 44.5 c 0
313.821289062 125.999023438 m 0
 337.15625 143.33203125 352.36328125 167.331054688 359.443359375 197.998046875 c 2
 363.599609375 215.998046875 l 2
 370.6796875 246.665039062 366.4765625 270.33203125 350.991210938 286.999023438 c 0
 335.505859375 303.666015625 310.762695312 311.999023438 276.762695312 311.999023438 c 0
 242.762695312 311.999023438 214.338867188 303.666015625 191.491210938 286.999023438 c 0
 168.643554688 270.33203125 153.756835938 246.999023438 146.830078125 216.999023438 c 2
 142.443359375 197.999023438 l 2
 135.364257812 167.33203125 139.323242188 143.33203125 154.321289062 125.999023438 c 0
 169.319335938 108.666015625 193.818359375 99.9990234375 227.818359375 99.9990234375 c 0
 261.818359375 99.9990234375 290.486328125 108.666015625 313.821289062 125.999023438 c 0
EndSplineSet
EndChar

StartChar: seven
Encoding: 55 55 26
Width: 507
GlyphClass: 2
Flags: MW
HStem: 0 21G<19.7334 152.733 19.7334 19.7334> 576 114<108.032 397.713 81.7129 555.032 528.713 528.713>
LayerCount: 2
Fore
SplineSet
555.032226562 690 m 1
 528.712890625 576 l 1
 152.733398438 0 l 1
 19.7333984375 0 l 1
 397.712890625 576 l 1
 81.712890625 576 l 1
 108.032226562 690 l 1
 555.032226562 690 l 1
EndSplineSet
EndChar

StartChar: eight
Encoding: 56 56 27
Width: 578
GlyphClass: 2
Flags: MW
HStem: -11 111.001<216.152 243.527> 306.001 107.999<290.644 298.712> 590 111<349.57 361.943>
LayerCount: 2
Fore
SplineSet
46.0068359375 44.5 m 0
 11.2158203125 81.5 1.1298828125 131.666992188 15.7509765625 195 c 2
 18.9833984375 209 l 2
 26.6787109375 242.333007812 42.1435546875 272.5 65.376953125 299.5 c 0
 88.6103515625 326.5 117.252929688 347.333007812 151.306640625 362 c 1
 128.897460938 374.666992188 113.129882812 393 104.00390625 417 c 0
 94.8779296875 441 93.85546875 468.333007812 100.935546875 499 c 2
 103.474609375 510 l 2
 112.09375 547.333007812 128.750976562 580.5 153.446289062 609.5 c 0
 178.141601562 638.5 209.3359375 661 247.030273438 677 c 0
 284.723632812 693 326.5703125 701 372.5703125 701 c 0
 418.5703125 701 456.723632812 693 487.030273438 677 c 0
 517.3359375 661 538.141601562 638.5 549.446289062 609.5 c 0
 560.750976562 580.5 562.09375 547.333007812 553.474609375 510 c 2
 550.935546875 499 l 2
 544.009765625 469 530.237304688 441.833007812 509.619140625 417.5 c 0
 489.001953125 393.166992188 464.563476562 374.666992188 436.306640625 362 c 1
 463.43359375 346.666992188 482.213867188 325.5 492.647460938 298.5 c 0
 503.081054688 271.5 504.603515625 242 497.215820312 210 c 2
 493.983398438 196 l 2
 479.208007812 132 445.881835938 81.5 394.006835938 44.5 c 0
 342.131835938 7.5 279.860351562 -11 207.193359375 -11 c 0
 134.526367188 -11 80.7978515625 7.5 46.0068359375 44.5 c 0
382.505859375 436.5 m 0
 402.635742188 451.5 415.701171875 472.000976562 421.704101562 498.000976562 c 2
 424.243164062 509.000976562 l 2
 430.091796875 534.333984375 426.170898438 554.166992188 412.479492188 568.5 c 0
 398.7890625 582.833007812 376.943359375 590 346.943359375 590 c 0
 316.276367188 590 290.7890625 582.833007812 270.479492188 568.5 c 0
 250.170898438 554.166015625 237.091796875 534.333007812 231.243164062 509 c 2
 228.703125 498 l 2
 222.701171875 472 226.30078125 451.5 239.504882812 436.5 c 0
 252.708984375 421.5 274.977539062 414 306.310546875 414 c 0
 336.977539062 414 362.375976562 421.5 382.505859375 436.5 c 0
320.705078125 125.500976562 m 0
 343.962890625 142.500976562 359.134765625 166.333984375 366.21484375 197.000976562 c 2
 369.677734375 212.000976562 l 2
 376.44921875 241.333984375 372.092773438 264.333984375 356.607421875 281.000976562 c 0
 341.122070312 297.66796875 316.045898438 306.000976562 281.37890625 306.000976562 c 0
 246.711914062 306.000976562 217.62109375 297.66796875 194.106445312 281.000976562 c 0
 170.591796875 264.333984375 155.448242188 241.333984375 148.676757812 212.000976562 c 2
 145.213867188 197.000976562 l 2
 138.133789062 166.333984375 142.297851562 142.500976562 157.706054688 125.500976562 c 0
 173.114257812 108.500976562 198.485351562 100.000976562 233.818359375 100.000976562 c 0
 268.485351562 100.000976562 297.447265625 108.500976562 320.705078125 125.500976562 c 0
EndSplineSet
EndChar

StartChar: nine
Encoding: 57 57 28
Width: 569
GlyphClass: 2
Flags: MW
HStem: 0 21G<74.7334 215.733 74.7334 74.7334> 269 109<197.837 309.001> 590 111<329.571 357.945>
LayerCount: 2
Fore
SplineSet
303.068359375 283 m 1
 280.247070312 273.666992188 255.169921875 269 227.836914062 269 c 0
 167.836914062 269 123.659179688 287 95.3037109375 323 c 0
 66.9482421875 359 59.6962890625 407 73.548828125 467 c 2
 78.396484375 488 l 2
 93.7880859375 554.666992188 127.165039062 606.833984375 178.52734375 644.5 c 0
 229.890625 682.166992188 292.571289062 701 366.571289062 701 c 0
 441.905273438 701 496.467773438 682.5 530.258789062 645.5 c 0
 564.049804688 608.5 573.403320312 557.333007812 558.3203125 492 c 2
 553.471679688 471 l 2
 541.62109375 419.666992188 512 365 464.609375 307 c 2
 215.733398438 0 l 1
 74.7333984375 0 l 1
 303.068359375 283 l 1
377.388671875 403.5 m 0
 400.313476562 420.5 415.23828125 444 422.165039062 474 c 2
 426.55078125 493 l 2
 433.630859375 523.666992188 429.633789062 547.5 414.55859375 564.5 c 0
 399.483398438 581.5 374.9453125 590 340.9453125 590 c 0
 306.9453125 590 278.444335938 581.333007812 255.442382812 564 c 0
 232.44140625 546.666992188 217.400390625 522.666992188 210.3203125 492 c 2
 206.395507812 475 l 2
 199.315429688 444.333007812 203.313476562 420.5 218.388671875 403.5 c 0
 233.463867188 386.5 258.000976562 378 292.000976562 378 c 0
 326.000976562 378 354.463867188 386.5 377.388671875 403.5 c 0
EndSplineSet
EndChar

StartChar: colon
Encoding: 58 58 29
Width: 215
GlyphClass: 2
Flags: MW
HStem: 0 142<-13.4834 92.7334 -46.2666 125.517> 338 142<64.5498 170.767 31.7666 203.55>
VStem: -46.2666 249.816
LayerCount: 2
Fore
SplineSet
64.5498046875 480 m 1
 203.549804688 480 l 1
 170.766601562 338 l 1
 31.7666015625 338 l 1
 64.5498046875 480 l 1
-13.4833984375 142 m 1
 125.516601562 142 l 1
 92.7333984375 0 l 1
 -46.2666015625 0 l 1
 -13.4833984375 142 l 1
EndSplineSet
EndChar

StartChar: semicolon
Encoding: 59 59 30
Width: 215
GlyphClass: 2
Flags: MW
HStem: 338 142<64.5498 170.767 31.7666 203.55>
VStem: -63.668 267.218
LayerCount: 2
Fore
SplineSet
64.5498046875 480 m 1
 203.549804688 480 l 1
 170.766601562 338 l 1
 31.7666015625 338 l 1
 64.5498046875 480 l 1
5.3623046875 137 m 1
 122.362304688 137 l 1
 76.1884765625 -63 l 1
 -63.66796875 -162 l 1
 5.3623046875 137 l 1
EndSplineSet
EndChar

StartChar: less
Encoding: 60 60 31
Width: 529
GlyphClass: 2
Flags: W
LayerCount: 2
Fore
SplineSet
15.216796875 223 m 1
 38.99609375 326 l 1
 510.012695312 495 l 1
 483.462890625 380 l 1
 180.991210938 274 l 1
 434.75 169 l 1
 407.96875 53 l 1
 15.216796875 223 l 1
EndSplineSet
Substitution2: "'rtla' Right to Left Alternates lookup 0 subtable" greater
EndChar

StartChar: equal
Encoding: 61 61 32
Width: 529
GlyphClass: 2
Flags: MW
HStem: 115 113<17.3711 422.283 -8.7168 448.371> 324 113<65.6221 470.534 39.5342 496.622>
LayerCount: 2
Fore
SplineSet
65.6220703125 437 m 1
 496.622070312 437 l 1
 470.534179688 324 l 1
 39.5341796875 324 l 1
 65.6220703125 437 l 1
17.37109375 228 m 1
 448.37109375 228 l 1
 422.283203125 115 l 1
 -8.716796875 115 l 1
 17.37109375 228 l 1
EndSplineSet
EndChar

StartChar: greater
Encoding: 62 62 33
Width: 529
GlyphClass: 2
Flags: W
LayerCount: 2
Fore
SplineSet
2.75 169 m 1
 304.991210938 274 l 1
 51.462890625 380 l 1
 78.0126953125 495 l 1
 470.99609375 326 l 1
 447.216796875 223 l 1
 -24.03125 53 l 1
 2.75 169 l 1
EndSplineSet
Substitution2: "'rtla' Right to Left Alternates lookup 0 subtable" less
EndChar

StartChar: question
Encoding: 63 63 34
Width: 500
GlyphClass: 2
Flags: MW
HStem: 0.000976562 126<120.823 222.734 91.7344 251.823> 587 113<277.253 309.253>
LayerCount: 2
Fore
SplineSet
150.91015625 239 m 2
 158.298828125 271 167.815429688 296.333984375 179.458007812 315.000976562 c 0
 191.100585938 333.66796875 211.05078125 353.66796875 239.30859375 375.000976562 c 2
 302.544921875 428.000976562 l 2
 325.213867188 445.333984375 341.676757812 460.333984375 351.93359375 473.000976562 c 0
 362.19140625 485.66796875 369.090820312 499.66796875 372.630859375 515.000976562 c 0
 378.017578125 538.333984375 374.134765625 556.166992188 360.981445312 568.5 c 0
 347.829101562 580.833007812 325.252929688 587 293.252929688 587 c 0
 261.252929688 587 236.251953125 580.5 218.250976562 567.5 c 0
 200.25 554.5 187.837890625 534.666992188 181.013671875 508 c 1
 60.013671875 508 l 1
 93.5654296875 636 181.0078125 700 322.340820312 700 c 0
 391.673828125 700 442.185546875 684.166992188 473.875 652.5 c 0
 505.563476562 620.833007812 514.944335938 577 502.015625 521 c 0
 489.241210938 465.666992188 456.4921875 417.666992188 403.770507812 377 c 2
 332.6875 316 l 2
 313.96875 301.333007812 300.313476562 287.666015625 291.721679688 275 c 0
 283.130859375 262.333007812 276.373046875 245.333007812 271.447265625 224 c 2
 264.291015625 193 l 1
 140.291015625 193 l 1
 150.91015625 239 l 2
120.823242188 126.000976562 m 1
 251.823242188 126.000976562 l 1
 222.734375 0.0009765625 l 1
 91.734375 0.0009765625 l 1
 120.823242188 126.000976562 l 1
EndSplineSet
EndChar

StartChar: at
Encoding: 64 64 35
Width: 874
GlyphClass: 2
Flags: MW
HStem: -136 100.002<316.422 346.668> 54 93.999<283.866 406.903> 410.999 94.001<433.956 443.321 406.988 467.622> 598.003 99.9961<476.547 520.793>
LayerCount: 2
Fore
SplineSet
129.416992188 -88 m 0
 77.4716796875 -56 41.65625 -11.16796875 21.9697265625 46.4990234375 c 0
 2.283203125 104.166015625 1.13671875 170.666015625 18.5283203125 245.999023438 c 2
 34.689453125 315.999023438 l 2
 52.0810546875 391.33203125 83.93359375 457.83203125 130.247070312 515.499023438 c 0
 176.560546875 573.166015625 233.078125 617.999023438 299.798828125 649.999023438 c 0
 366.51953125 681.999023438 438.213867188 697.999023438 514.880859375 697.999023438 c 0
 590.213867188 697.999023438 653.891601562 682.166015625 705.9140625 650.499023438 c 0
 757.935546875 618.83203125 793.995117188 574.33203125 814.091796875 516.999023438 c 0
 834.188476562 459.666015625 835.772460938 394.333007812 818.841796875 321 c 2
 802.680664062 251 l 2
 787.905273438 187 760.631835938 138.166992188 720.858398438 104.5 c 0
 681.0859375 70.8330078125 636.8671875 54 588.200195312 54 c 0
 558.200195312 54 533.841796875 59.6669921875 515.125 71 c 0
 496.405273438 82.3330078125 483.766601562 98.3330078125 477.206054688 119 c 1
 445.868164062 75.6669921875 398.19921875 54 334.19921875 54 c 0
 233.532226562 54 197.127929688 114.333007812 224.986328125 235 c 2
 245.302734375 323 l 2
 258.5390625 380.333007812 280.684570312 425 311.739257812 457 c 0
 342.793945312 489 382.654296875 505 431.321289062 505 c 0
 455.321289062 505 475.411132812 500.333007812 491.58984375 491 c 0
 507.767578125 481.666992188 518.419921875 469.333984375 523.547851562 454.000976562 c 1
 532.782226562 494.000976562 l 1
 641.782226562 494.000976562 l 1
 575.984375 209.000976562 l 2
 571.059570312 187.666992188 571.904296875 171.833984375 578.518554688 161.500976562 c 0
 585.1328125 151.16796875 595.7734375 146.000976562 610.440429688 146.000976562 c 0
 629.107421875 146.000976562 644.9921875 154.16796875 658.096679688 170.500976562 c 0
 671.200195312 186.833984375 681.985351562 213.333984375 690.450195312 250.000976562 c 2
 706.611328125 320.000976562 l 2
 719.693359375 376.66796875 719.877929688 425.834960938 707.1640625 467.501953125 c 0
 694.451171875 509.168945312 669.876953125 541.3359375 633.443359375 564.002929688 c 0
 597.009765625 586.669921875 549.79296875 598.002929688 491.79296875 598.002929688 c 0
 404.459960938 598.002929688 330.188476562 573.002929688 268.977539062 523.002929688 c 0
 207.767578125 473.002929688 167.158203125 404.669921875 147.149414062 318.002929688 c 2
 130.7578125 247.002929688 l 2
 117.67578125 190.3359375 117.375976562 140.668945312 129.858398438 98.001953125 c 0
 142.340820312 55.3349609375 166.889648438 22.3349609375 203.502929688 -0.998046875 c 0
 240.116210938 -24.3310546875 287.421875 -35.998046875 345.421875 -35.998046875 c 0
 385.421875 -35.998046875 422.384765625 -31.8310546875 456.30859375 -23.498046875 c 0
 490.232421875 -15.1650390625 526.194335938 -2.33203125 564.196289062 15.0009765625 c 1
 588.572265625 -69.9990234375 l 1
 544.672851562 -92.666015625 501.491210938 -109.333007812 459.029296875 -120 c 0
 416.56640625 -130.666992188 371.001953125 -136 322.334960938 -136 c 0
 245.66796875 -136 181.362304688 -120 129.416992188 -88 c 0
471.681640625 237.999023438 m 2
 491.07421875 321.999023438 l 2
 504.772460938 381.33203125 489.622070312 410.999023438 445.622070312 410.999023438 c 0
 422.2890625 410.999023438 403.313476562 403.166015625 388.696289062 387.499023438 c 0
 374.079101562 371.83203125 363.615234375 350.33203125 357.305664062 322.999023438 c 2
 338.374023438 240.999023438 l 2
 331.448242188 210.999023438 331.470703125 187.999023438 338.444335938 171.999023438 c 0
 345.416992188 155.999023438 360.903320312 147.999023438 384.903320312 147.999023438 c 0
 428.903320312 147.999023438 457.829101562 177.999023438 471.681640625 237.999023438 c 2
EndSplineSet
EndChar

StartChar: A
Encoding: 65 65 36
Width: 681
GlyphClass: 2
Flags: MW
HStem: 0 21G<-80.2666 59.7334 -80.2666 -80.2666 452.733 452.733 452.733 592.733> 134 109<206.834 417.834 206.834 433.67 140.67 417.834> 670 20G<362.032 469.032 469.032 469.032>
LayerCount: 2
Fore
SplineSet
433.669921875 134 m 1
 140.669921875 134 l 1
 59.7333984375 0 l 1
 -80.2666015625 0 l 1
 362.032226562 690 l 1
 469.032226562 690 l 1
 592.733398438 0 l 1
 452.733398438 0 l 1
 433.669921875 134 l 1
417.833984375 243 m 1
 376.708007812 524 l 1
 206.833984375 243 l 1
 417.833984375 243 l 1
EndSplineSet
EndChar

StartChar: B
Encoding: 66 66 37
Width: 654
GlyphClass: 2
Flags: MW
HStem: 0 113.999<132.053 286.734> 293.999 114<199.928 351.609 173.609 368.928> 575.999 114.001<238.714 238.714 238.714 412.714>
LayerCount: 2
Fore
SplineSet
565.108398438 294 m 0
 577.28515625 267.333007812 579.064453125 235.33203125 570.4453125 197.999023438 c 0
 555.82421875 134.666015625 524.049804688 85.8330078125 475.124023438 51.5 c 0
 426.197265625 17.1669921875 363.401367188 0 286.734375 0 c 2
 -25.265625 0 l 1
 134.033203125 690 l 1
 433.033203125 690 l 2
 511.033203125 690 566.890625 673.5 600.60546875 640.5 c 0
 634.319335938 607.5 644.020507812 560 629.706054688 498 c 0
 622.47265625 466.666992188 607.469726562 438.5 584.698242188 413.5 c 0
 561.926757812 388.5 533.2578125 369 498.692382812 355 c 1
 530.79296875 341 552.931640625 320.666992188 565.108398438 294 c 0
238.713867188 575.999023438 m 1
 199.927734375 407.999023438 l 1
 368.927734375 407.999023438 l 2
 441.594726562 407.999023438 484.23828125 435.33203125 496.859375 489.999023438 c 0
 510.095703125 547.33203125 482.046875 575.999023438 412.713867188 575.999023438 c 2
 238.713867188 575.999023438 l 1
442.5234375 206.999023438 m 0
 455.9140625 264.999023438 425.609375 293.999023438 351.609375 293.999023438 c 2
 173.609375 293.999023438 l 1
 132.052734375 113.999023438 l 1
 315.052734375 113.999023438 l 2
 385.719726562 113.999023438 428.209960938 144.999023438 442.5234375 206.999023438 c 0
EndSplineSet
EndChar

StartChar: C
Encoding: 67 67 38
Width: 673
GlyphClass: 2
Flags: MW
HStem: -11 118<264.103 304.861> 588 115<381.701 424.484>
LayerCount: 2
Fore
SplineSet
63.2392578125 65 m 0
 23.26953125 115.666992188 14.90625 191.33203125 38.1474609375 291.999023438 c 2
 63.0810546875 399.999023438 l 2
 86.322265625 500.666015625 129.791015625 576.333007812 193.48828125 627 c 0
 257.185546875 677.666992188 335.3671875 703 428.034179688 703 c 0
 512.701171875 703 575.391601562 682.166992188 616.10546875 640.5 c 0
 656.818359375 598.833007812 668.633789062 541 651.549804688 467 c 2
 649.702148438 459 l 1
 518.702148438 459 l 1
 519.625976562 463 l 2
 528.552734375 501.666992188 522.594726562 532.166992188 501.750976562 554.5 c 0
 480.90625 576.833007812 447.484375 588 401.484375 588 c 0
 346.817382812 588 302.291015625 572 267.903320312 540 c 0
 233.514648438 508 208.702148438 459 193.46484375 393 c 2
 170.609375 294 l 2
 155.987304688 230.666992188 158.803710938 183.666992188 179.056640625 153 c 0
 199.309570312 122.333007812 236.76953125 107 291.436523438 107 c 0
 337.436523438 107 375.770507812 117.833007812 406.440429688 139.5 c 0
 437.109375 161.166992188 456.830078125 191 465.602539062 229 c 2
 466.756835938 234 l 1
 596.756835938 234 l 1
 595.602539062 229 l 2
 578.056640625 153 539.435546875 94 479.739257812 52 c 0
 420.04296875 10 347.52734375 -11 262.194335938 -11 c 0
 169.52734375 -11 103.208984375 14.3330078125 63.2392578125 65 c 0
EndSplineSet
EndChar

StartChar: D
Encoding: 68 68 39
Width: 662
GlyphClass: 2
Flags: MW
HStem: 0 114.001<132.052 238.733> 576.001 113.999<134.032 375.713 134.032 238.713>
LayerCount: 2
Fore
SplineSet
134.032226562 690 m 1
 403.03125 690.000976562 l 2
 495.03125 690.000976562 560.50390625 665.333984375 599.447265625 616.000976562 c 0
 638.390625 566.66796875 646.01171875 490.66796875 622.309570312 388.000976562 c 2
 602.685546875 303.000976562 l 2
 578.982421875 200.333984375 535.731445312 124.166992188 472.931640625 74.5 c 0
 410.131835938 24.8330078125 332.06640625 0 238.733398438 0 c 2
 -25.2666015625 0 l 1
 134.032226562 690 l 1
269.051757812 114.000976562 m 2
 323.051757812 114.000976562 366.552734375 129.168945312 399.555664062 159.501953125 c 0
 432.55859375 189.834960938 456.602539062 237.66796875 471.685546875 303.000976562 c 2
 489.693359375 381.000976562 l 2
 505.392578125 449.000976562 503.8203125 498.500976562 484.977539062 529.500976562 c 0
 466.133789062 560.500976562 429.712890625 576.000976562 375.712890625 576.000976562 c 2
 238.712890625 576.000976562 l 1
 132.051757812 114.000976562 l 1
 269.051757812 114.000976562 l 2
EndSplineSet
EndChar

StartChar: E
Encoding: 69 69 40
Width: 587
GlyphClass: 2
Flags: MW
HStem: 0 114<132.052 467.733> 291 114<199.234 483.916 172.916 510.234> 576 114<238.713 238.713 238.713 600.713>
LayerCount: 2
Fore
SplineSet
238.712890625 576 m 1
 199.234375 405 l 1
 510.234375 405 l 1
 483.916015625 291 l 1
 172.916015625 291 l 1
 132.051757812 114 l 1
 494.051757812 114 l 1
 467.733398438 0 l 1
 -25.2666015625 0 l 1
 134.032226562 690 l 1
 627.032226562 690 l 1
 600.712890625 576 l 1
 238.712890625 576 l 1
EndSplineSet
EndChar

StartChar: F
Encoding: 70 70 41
Width: 582
GlyphClass: 2
Flags: MW
HStem: 0 21G<-25.2666 105.733 -25.2666 -25.2666> 285 114<197.85 484.53 171.53 510.85> 576 114<238.713 238.713 238.713 600.713>
LayerCount: 2
Fore
SplineSet
238.712890625 576 m 1
 197.849609375 399 l 1
 510.849609375 399 l 1
 484.530273438 285 l 1
 171.530273438 285 l 1
 105.733398438 0 l 1
 -25.2666015625 0 l 1
 134.032226562 690 l 1
 627.032226562 690 l 1
 600.712890625 576 l 1
 238.712890625 576 l 1
EndSplineSet
EndChar

StartChar: G
Encoding: 71 71 42
Width: 673
GlyphClass: 2
Flags: MW
HStem: -11 117.999<263.769 305.526> 261.999 108<348.154 474.221 323.221 629.154> 587.999 115<381.7 424.483>
LayerCount: 2
Fore
SplineSet
63.7392578125 65 m 0
 23.4365234375 115.666992188 14.9052734375 191.331054688 38.146484375 291.998046875 c 2
 63.080078125 399.998046875 l 2
 86.3203125 500.665039062 129.790039062 576.33203125 193.487304688 626.999023438 c 0
 257.184570312 677.666015625 335.366210938 702.999023438 428.033203125 702.999023438 c 0
 483.366210938 702.999023438 529.916992188 693.83203125 567.684570312 675.499023438 c 0
 605.451171875 657.1640625 631.756835938 630.331054688 646.599609375 594.999023438 c 0
 661.442382812 559.666015625 663.322265625 517.999023438 652.241210938 469.999023438 c 2
 650.393554688 461.999023438 l 1
 519.393554688 461.999023438 l 1
 520.317382812 465.999023438 l 2
 528.782226562 502.666015625 522.59375 532.166015625 501.749023438 554.499023438 c 0
 480.905273438 576.83203125 447.483398438 587.999023438 401.483398438 587.999023438 c 0
 346.81640625 587.999023438 302.328125 572.166015625 268.017578125 540.499023438 c 0
 233.706054688 508.83203125 208.932617188 459.999023438 193.6953125 393.999023438 c 2
 170.838867188 294.999023438 l 2
 155.909179688 230.33203125 158.443359375 182.83203125 178.440429688 152.499023438 c 0
 198.4375 122.166015625 236.102539062 106.999023438 291.435546875 106.999023438 c 0
 341.435546875 106.999023438 380.936523438 117.83203125 409.939453125 139.499023438 c 0
 438.94140625 161.166015625 458.444335938 193.666015625 468.448242188 236.999023438 c 2
 474.220703125 261.999023438 l 1
 323.220703125 261.999023438 l 1
 348.154296875 369.999023438 l 1
 629.154296875 369.999023438 l 1
 602.834960938 255.999023438 l 2
 582.2109375 166.666015625 541.948242188 99.8330078125 482.045898438 55.5 c 0
 422.14453125 11.1669921875 348.859375 -11 262.193359375 -11 c 0
 170.193359375 -11 104.041992188 14.3330078125 63.7392578125 65 c 0
EndSplineSet
EndChar

StartChar: H
Encoding: 72 72 43
Width: 671
GlyphClass: 2
Flags: MW
HStem: 0 21G<-25.2666 105.733 -25.2666 -25.2666 396.733 527.733 396.733 396.733> 292 114<199.466 464.146 173.146 490.466> 670 20G<134.032 265.032 265.032 265.032 556.032 687.032 687.032 687.032>
LayerCount: 2
Fore
SplineSet
687.032226562 690 m 1
 527.733398438 0 l 1
 396.733398438 0 l 1
 464.146484375 292 l 1
 173.146484375 292 l 1
 105.733398438 0 l 1
 -25.2666015625 0 l 1
 134.032226562 690 l 1
 265.032226562 690 l 1
 199.465820312 406 l 1
 490.465820312 406 l 1
 556.032226562 690 l 1
 687.032226562 690 l 1
EndSplineSet
EndChar

StartChar: I
Encoding: 73 73 44
Width: 261
GlyphClass: 2
Flags: MW
HStem: 0 21G<-19.2666 111.733 -19.2666 -19.2666> 670 20G<140.032 271.032 271.032 271.032>
VStem: -19.2666 290.299
LayerCount: 2
Fore
SplineSet
140.032226562 690 m 1
 271.032226562 690 l 1
 111.733398438 0 l 1
 -19.2666015625 0 l 1
 140.032226562 690 l 1
EndSplineSet
EndChar

StartChar: J
Encoding: 74 74 45
Width: 362
GlyphClass: 2
Flags: MW
HStem: 0 115<-33.7168 27.2832 27.2832 34.7334 -60.2666 27.2832> 670 20G<240.032 372.032 372.032 372.032>
LayerCount: 2
Fore
SplineSet
-33.716796875 115 m 1
 27.283203125 115 l 2
 57.9501953125 115 80.296875 120.833007812 94.3232421875 132.5 c 0
 108.349609375 144.166992188 118.826171875 165 125.751953125 195 c 2
 240.032226562 690 l 1
 372.032226562 690 l 1
 252.672851562 173 l 2
 239.436523438 115.666992188 214.470703125 72.5 177.775390625 43.5 c 0
 141.081054688 14.5 93.400390625 0 34.7333984375 0 c 2
 -60.2666015625 0 l 1
 -33.716796875 115 l 1
EndSplineSet
EndChar

StartChar: K
Encoding: 75 75 46
Width: 678
GlyphClass: 2
Flags: MW
HStem: 0 21G<-25.2666 105.733 -25.2666 -25.2666 428.733 428.733 428.733 587.733> 670 20G<134.032 265.032 265.032 265.032 559.032 727.032 727.032 727.032>
LayerCount: 2
Fore
SplineSet
296.149414062 318 m 1
 150.059570312 192 l 1
 105.733398438 0 l 1
 -25.2666015625 0 l 1
 134.032226562 690 l 1
 265.032226562 690 l 1
 187.69140625 355 l 1
 559.032226562 690 l 1
 727.032226562 690 l 1
 405.850585938 412 l 1
 587.733398438 0 l 1
 428.733398438 0 l 1
 296.149414062 318 l 1
EndSplineSet
EndChar

StartChar: L
Encoding: 76 76 47
Width: 570
GlyphClass: 2
Flags: MW
HStem: 0 114<132.052 461.733> 670 20G<134.032 265.032 265.032 265.032>
LayerCount: 2
Fore
SplineSet
134.032226562 690 m 1
 265.032226562 690 l 1
 132.051757812 114 l 1
 488.051757812 114 l 1
 461.733398438 0 l 1
 -25.2666015625 0 l 1
 134.032226562 690 l 1
EndSplineSet
EndChar

StartChar: M
Encoding: 77 77 48
Width: 809
GlyphClass: 2
Flags: MW
HStem: 0 21G<-25.2666 105.733 -25.2666 -25.2666 534.733 665.733 534.733 534.733> 670 20G<134.032 265.032 265.032 265.032 694.032 825.032 825.032 825.032>
LayerCount: 2
Fore
SplineSet
825.032226562 690 m 1
 665.733398438 0 l 1
 534.733398438 0 l 1
 635.622070312 437 l 1
 396.438476562 133 l 1
 308.438476562 133 l 1
 207.315429688 440 l 1
 105.733398438 0 l 1
 -25.2666015625 0 l 1
 134.032226562 690 l 1
 265.032226562 690 l 1
 389.838867188 295 l 1
 694.032226562 690 l 1
 825.032226562 690 l 1
EndSplineSet
EndChar

StartChar: N
Encoding: 78 78 49
Width: 699
GlyphClass: 2
Flags: MW
HStem: 0 21G<-25.2666 105.733 -25.2666 -25.2666 424.733 555.733 424.733 424.733> 670 20G<134.032 265.032 265.032 265.032 584.032 715.032 715.032 715.032>
LayerCount: 2
Fore
SplineSet
715.032226562 690 m 1
 555.733398438 0 l 1
 424.733398438 0 l 1
 211.240234375 457 l 1
 105.733398438 0 l 1
 -25.2666015625 0 l 1
 134.032226562 690 l 1
 265.032226562 690 l 1
 478.294921875 232 l 1
 584.032226562 690 l 1
 715.032226562 690 l 1
EndSplineSet
EndChar

StartChar: O
Encoding: 79 79 50
Width: 673
GlyphClass: 2
Flags: MW
HStem: -11 117.999<257.101 296.86> 587.999 115.002<376.032 445.816>
LayerCount: 2
Fore
SplineSet
60.7392578125 65 m 0
 22.4365234375 115.666992188 14.9052734375 191.333007812 38.1455078125 292 c 2
 63.0791015625 400 l 2
 86.3203125 500.666992188 129.2890625 576.333984375 191.986328125 627.000976562 c 0
 254.684570312 677.66796875 331.032226562 703.000976562 421.032226562 703.000976562 c 0
 509.69921875 703.000976562 573.518554688 677.66796875 612.487304688 627.000976562 c 0
 651.45703125 576.333984375 659.321289062 500.666992188 636.080078125 400 c 2
 611.146484375 292 l 2
 588.059570312 192 544.795898438 116.5 481.354492188 65.5 c 0
 417.9140625 14.5 341.526367188 -11 252.193359375 -11 c 0
 162.860351562 -11 99.0419921875 14.3330078125 60.7392578125 65 c 0
480.607421875 293.999023438 m 2
 503.462890625 392.999023438 l 2
 533.475585938 522.999023438 497.149414062 587.999023438 394.482421875 587.999023438 c 0
 341.815429688 587.999023438 298.954101562 571.999023438 265.899414062 539.999023438 c 0
 232.844726562 507.999023438 208.69921875 458.999023438 193.461914062 392.999023438 c 2
 170.606445312 293.999023438 l 2
 155.984375 230.666015625 157.966796875 183.666015625 176.553710938 152.999023438 c 0
 195.140625 122.33203125 230.767578125 106.999023438 283.434570312 106.999023438 c 0
 386.1015625 106.999023438 451.825195312 169.33203125 480.607421875 293.999023438 c 2
EndSplineSet
EndChar

StartChar: P
Encoding: 80 80 51
Width: 628
GlyphClass: 2
Flags: MW
HStem: 0 21G<-25.2666 105.733 -25.2666 -25.2666> 262 115<192.771 328.221 166.221 364.771> 576 114<238.713 410.713 238.713 238.713>
LayerCount: 2
Fore
SplineSet
600.603515625 634 m 0
 635.651367188 596.666015625 645.171875 543.333007812 629.165039062 474 c 0
 613.7734375 407.333007812 579.935546875 355.333007812 527.649414062 318 c 0
 475.36328125 280.666992188 408.88671875 262 328.220703125 262 c 2
 166.220703125 262 l 1
 105.733398438 0 l 1
 -25.2666015625 0 l 1
 134.032226562 690 l 1
 432.032226562 690 l 2
 509.365234375 690 565.555664062 671.333007812 600.603515625 634 c 0
498.395507812 475 m 0
 506.245117188 509 502.42578125 534.333007812 486.940429688 551 c 0
 471.455078125 567.666992188 446.045898438 576 410.712890625 576 c 2
 238.712890625 576 l 1
 192.770507812 377 l 1
 364.770507812 377 l 2
 438.770507812 377 483.3125 409.666992188 498.395507812 475 c 0
EndSplineSet
EndChar

StartChar: Q
Encoding: 81 81 52
Width: 673
GlyphClass: 2
Flags: MW
HStem: -154.001 21G<387.178 387.178> -11.001 118<257.102 267.526> 587.999 115.002<376.032 445.817>
LayerCount: 2
Fore
SplineSet
454.353515625 46 m 1
 499.875976562 -99.0009765625 l 1
 387.177734375 -154.000976562 l 1
 339.270507812 -2.0009765625 l 1
 311.884765625 -8.0009765625 282.859375 -11.0009765625 252.192382812 -11.0009765625 c 0
 162.859375 -11.0009765625 99.041015625 14.33203125 60.73828125 64.9990234375 c 0
 22.435546875 115.666015625 14.9052734375 191.333007812 38.1455078125 292 c 2
 63.0791015625 400 l 2
 86.3203125 500.666992188 129.2890625 576.333984375 191.986328125 627.000976562 c 0
 254.684570312 677.66796875 331.032226562 703.000976562 421.032226562 703.000976562 c 0
 509.69921875 703.000976562 573.518554688 677.66796875 612.487304688 627.000976562 c 0
 651.45703125 576.333984375 659.321289062 500.666992188 636.080078125 400 c 2
 611.146484375 292 l 2
 585.2890625 180 533.025390625 98 454.353515625 46 c 1
176.5546875 152.999023438 m 0
 195.141601562 122.33203125 230.768554688 106.999023438 283.435546875 106.999023438 c 0
 386.102539062 106.999023438 451.826171875 169.33203125 480.608398438 293.999023438 c 2
 503.463867188 392.999023438 l 2
 533.4765625 522.999023438 497.150390625 587.999023438 394.483398438 587.999023438 c 0
 341.81640625 587.999023438 298.955078125 571.999023438 265.900390625 539.999023438 c 0
 232.845703125 507.999023438 208.700195312 458.999023438 193.462890625 392.999023438 c 2
 170.607421875 293.999023438 l 2
 155.985351562 230.666015625 157.967773438 183.666015625 176.5546875 152.999023438 c 0
EndSplineSet
EndChar

StartChar: R
Encoding: 82 82 53
Width: 664
GlyphClass: 2
Flags: MW
HStem: 0 21G<393.733 549.733 393.733 393.733> 270.999 112<168.298 367.155> 575.999 114<238.713 411.713 238.713 238.713>
LayerCount: 2
Fore
SplineSet
305.298828125 271 m 1
 168.297851562 270.999023438 l 1
 105.732421875 -0.0009765625 l 1
 -25.267578125 -0.0009765625 l 1
 134.032226562 689.999023438 l 1
 434.032226562 689.999023438 l 2
 509.365234375 689.999023438 564.708984375 671.999023438 600.065429688 635.999023438 c 0
 635.420898438 599.999023438 645.249023438 547.999023438 629.549804688 479.999023438 c 0
 618.16015625 430.666015625 596.900390625 389.833007812 565.768554688 357.5 c 0
 534.63671875 325.166992188 494.37890625 301.666992188 444.9921875 287 c 1
 549.733398438 0 l 1
 393.733398438 0 l 1
 305.298828125 271 l 1
194.155273438 382.999023438 m 1
 367.155273438 382.999023438 l 2
 440.48828125 382.999023438 484.620117188 415.33203125 499.549804688 479.999023438 c 0
 506.9375 511.999023438 502.811523438 535.999023438 487.171875 551.999023438 c 0
 471.533203125 567.999023438 446.379882812 575.999023438 411.712890625 575.999023438 c 2
 238.712890625 575.999023438 l 1
 194.155273438 382.999023438 l 1
EndSplineSet
EndChar

StartChar: S
Encoding: 83 83 54
Width: 608
GlyphClass: 2
Flags: MW
HStem: -6 112.003<223.205 257.348> 590 110.001<343.007 376.612>
VStem: -7.78516 125<210.003 210.003> 466.782 126<494.001 494.001>
LayerCount: 2
Fore
SplineSet
32.1611328125 49.5 m 0
 -5.296875 86.5 -18.6123046875 140.002929688 -7.78515625 210.002929688 c 1
 117.21484375 210.002929688 l 1
 113.416992188 173.3359375 122.131835938 146.8359375 143.361328125 130.502929688 c 0
 164.590820312 114.169921875 199.205078125 106.002929688 247.205078125 106.002929688 c 0
 341.205078125 106.002929688 395.361328125 137.002929688 409.67578125 199.002929688 c 0
 415.986328125 226.3359375 411.462890625 247.168945312 396.104492188 261.501953125 c 0
 380.747070312 275.834960938 352.272460938 285.334960938 310.684570312 290.001953125 c 2
 239.76171875 299.001953125 l 2
 103.763671875 316.334960938 48.6162109375 380.66796875 74.3193359375 492.000976562 c 0
 89.2490234375 556.66796875 124.317382812 607.500976562 179.52734375 644.500976562 c 0
 234.736328125 681.500976562 302.673828125 700.000976562 383.340820312 700.000976562 c 0
 461.340820312 700.000976562 518.262695312 682.333984375 554.10546875 647.000976562 c 0
 589.948242188 611.66796875 602.840820312 560.66796875 592.782226562 494.000976562 c 1
 466.782226562 494.000976562 l 1
 471.809570312 527.333984375 465.260742188 551.666992188 447.135742188 567 c 0
 429.0078125 582.333007812 398.278320312 590 354.9453125 590 c 0
 311.612304688 590 277.174804688 582.333007812 251.635742188 567 c 0
 226.095703125 551.666992188 210.092773438 530 203.62890625 502 c 0
 197.780273438 476.666992188 202.907226562 457 219.0078125 443 c 0
 235.108398438 429 263.876953125 419.333007812 305.3125 414 c 2
 385.7734375 403 l 2
 449.10546875 394.333007812 494.0390625 373.833007812 520.57421875 341.5 c 0
 547.110351562 309.166992188 553.913085938 265 540.984375 209 c 0
 524.977539062 139.666992188 488.036132812 86.5 430.161132812 49.5 c 0
 372.286132812 12.5 300.34765625 -6 214.34765625 -6 c 0
 130.34765625 -6 69.619140625 12.5 32.1611328125 49.5 c 0
EndSplineSet
EndChar

StartChar: T
Encoding: 84 84 55
Width: 557
GlyphClass: 2
Flags: MW
HStem: 0 21G<128.733 259.733 128.733 128.733> 576 114<81.0322 261.713 54.7129 626.032 392.713 599.713 392.713 392.713>
LayerCount: 2
Fore
SplineSet
599.712890625 576 m 1
 392.712890625 576 l 1
 259.733398438 0 l 1
 128.733398438 0 l 1
 261.712890625 576 l 1
 54.712890625 576 l 1
 81.0322265625 690 l 1
 626.032226562 690 l 1
 599.712890625 576 l 1
EndSplineSet
EndChar

StartChar: U
Encoding: 85 85 56
Width: 676
GlyphClass: 2
Flags: MW
HStem: -6 113.998<254 279.348> 669.999 20G<134.033 265.033 265.033 265.033 561.032 692.032 692.032 692.032>
LayerCount: 2
Fore
SplineSet
112.504882812 25 m 0
 75.2763671875 45.6669921875 49.587890625 75.1669921875 35.4375 113.5 c 0
 21.287109375 151.833007812 20.1376953125 196.666015625 31.9892578125 247.999023438 c 2
 134.033203125 689.999023438 l 1
 265.033203125 689.999023438 l 1
 163.913085938 251.999023438 l 2
 153.138671875 205.33203125 157.571289062 169.665039062 177.209960938 144.998046875 c 0
 196.84765625 120.331054688 230.333007812 107.998046875 277.666015625 107.998046875 c 0
 324.999023438 107.998046875 364.513671875 120.331054688 396.208984375 144.998046875 c 0
 427.903320312 169.665039062 449.137695312 205.33203125 459.912109375 251.999023438 c 2
 561.032226562 689.999023438 l 1
 692.032226562 689.999023438 l 1
 589.98828125 247.999023438 l 2
 578.13671875 196.666015625 556.286132812 151.833007812 524.436523438 113.5 c 0
 492.586914062 75.1669921875 453.109375 45.6669921875 406.004882812 25 c 0
 358.900390625 4.3330078125 307.34765625 -6 251.34765625 -6 c 0
 196.014648438 -6 149.733398438 4.3330078125 112.504882812 25 c 0
EndSplineSet
EndChar

StartChar: V
Encoding: 86 86 57
Width: 623
GlyphClass: 2
Flags: MW
HStem: 0 21G<173.733 278.733 173.733 173.733> 670 20G<79.0322 219.032 219.032 219.032 554.032 694.032 694.032 694.032>
LayerCount: 2
Fore
SplineSet
79.0322265625 690 m 1
 219.032226562 690 l 1
 271.291015625 193 l 1
 554.032226562 690 l 1
 694.032226562 690 l 1
 278.733398438 0 l 1
 173.733398438 0 l 1
 79.0322265625 690 l 1
EndSplineSet
EndChar

StartChar: W
Encoding: 87 87 58
Width: 936
GlyphClass: 2
Flags: MW
HStem: 0 21G<118.733 237.733 118.733 118.733 534.733 654.733 534.733 534.733> 670 20G<79.0322 213.032 213.032 213.032 465.032 627.032 627.032 627.032 878.032 1007.03 1007.03 1007.03>
VStem: 79.0322 134<690 690> 509.324 117.708
LayerCount: 2
Fore
SplineSet
1007.03222656 690 m 1
 654.733398438 0 l 1
 534.733398438 0 l 1
 509.32421875 531 l 1
 237.733398438 0 l 1
 118.733398438 0 l 1
 79.0322265625 690 l 1
 213.032226562 690 l 1
 227.443359375 185 l 1
 465.032226562 690 l 1
 627.032226562 690 l 1
 643.443359375 185 l 1
 878.032226562 690 l 1
 1007.03222656 690 l 1
EndSplineSet
EndChar

StartChar: X
Encoding: 88 88 59
Width: 666
GlyphClass: 2
Flags: MW
HStem: 0 21G<-80.2666 77.7334 -80.2666 -80.2666 416.733 577.733 416.733 416.733> 670 20G<97.0322 258.032 258.032 258.032 554.032 712.032 712.032 712.032>
LayerCount: 2
Fore
SplineSet
251.383789062 358 m 1
 97.0322265625 690 l 1
 258.032226562 690 l 1
 358.39453125 462 l 1
 554.032226562 690 l 1
 712.032226562 690 l 1
 409.76953125 364 l 1
 577.733398438 0 l 1
 416.733398438 0 l 1
 303.528320312 259 l 1
 77.7333984375 0 l 1
 -80.2666015625 0 l 1
 251.383789062 358 l 1
EndSplineSet
EndChar

StartChar: Y
Encoding: 89 89 60
Width: 608
GlyphClass: 2
Flags: MW
HStem: 0 21G<154.733 285.733 154.733 154.733> 670 20G<79.0322 227.032 227.032 227.032 531.032 679.032 679.032 679.032>
LayerCount: 2
Fore
SplineSet
351.530273438 285 m 1
 285.733398438 0 l 1
 154.733398438 0 l 1
 220.299804688 284 l 1
 79.0322265625 690 l 1
 227.032226562 690 l 1
 312.311523438 401 l 1
 531.032226562 690 l 1
 679.032226562 690 l 1
 351.530273438 285 l 1
EndSplineSet
EndChar

StartChar: Z
Encoding: 90 90 61
Width: 561
GlyphClass: 2
Flags: MW
HStem: 0 115<-27.7168 -27.7168 123.283 449.733 -54.2666 -27.7168> 576 114<112.032 422.713 85.7129 599.032 572.713 572.713>
LayerCount: 2
Fore
SplineSet
476.283203125 115 m 1
 449.733398438 0 l 1
 -54.2666015625 0 l 1
 -27.716796875 115 l 1
 422.712890625 576 l 1
 85.712890625 576 l 1
 112.032226562 690 l 1
 599.032226562 690 l 1
 572.712890625 576 l 1
 123.283203125 115 l 1
 476.283203125 115 l 1
EndSplineSet
EndChar

StartChar: bracketleft
Encoding: 91 91 62
Width: 341
GlyphClass: 2
Flags: MW
HStem: -84 115<105.89 192.34> 626 115<243.257 356.257 243.257 243.257>
LayerCount: 2
Fore
SplineSet
145.806640625 741 m 1
 382.806640625 741 l 1
 356.256835938 626 l 1
 243.256835938 626 l 1
 105.889648438 31 l 1
 218.889648438 31 l 1
 192.33984375 -84 l 1
 -44.66015625 -84 l 1
 145.806640625 741 l 1
EndSplineSet
Substitution2: "'rtla' Right to Left Alternates lookup 0 subtable" bracketright
EndChar

StartChar: backslash
Encoding: 92 92 63
Width: 445
GlyphClass: 2
Flags: MW
HStem: -10 21G<209.425 313.425 209.425 209.425> 675 20G<122.187 226.187 226.187 226.187>
VStem: 122.187 191.238
LayerCount: 2
Fore
SplineSet
122.186523438 695 m 1
 226.186523438 695 l 1
 313.424804688 -10 l 1
 209.424804688 -10 l 1
 122.186523438 695 l 1
EndSplineSet
EndChar

StartChar: bracketright
Encoding: 93 93 64
Width: 342
GlyphClass: 2
Flags: MW
HStem: -84 115<-31.1104 81.8896 -31.1104 179.34 -57.6602 81.8896> 625 114<132.345 219.025 106.025 369.345>
LayerCount: 2
Fore
SplineSet
-31.1103515625 31 m 1
 81.8896484375 31 l 1
 219.025390625 625 l 1
 106.025390625 625 l 1
 132.344726562 739 l 1
 369.344726562 739 l 1
 179.33984375 -84 l 1
 -57.66015625 -84 l 1
 -31.1103515625 31 l 1
EndSplineSet
Substitution2: "'rtla' Right to Left Alternates lookup 0 subtable" bracketleft
EndChar

StartChar: asciicircum
Encoding: 94 94 65
Width: 529
GlyphClass: 2
Flags: MW
HStem: 675 20G<288.187 392.187 392.187 392.187>
LayerCount: 2
Fore
SplineSet
288.186523438 695 m 1
 392.186523438 695 l 1
 464.298828125 271 l 1
 361.298828125 271 l 1
 312.482421875 575 l 1
 123.298828125 271 l 1
 20.298828125 271 l 1
 288.186523438 695 l 1
EndSplineSet
EndChar

StartChar: underscore
Encoding: 95 95 66
Width: 563
GlyphClass: 2
Flags: MW
HStem: -121 81<-93.502 450.798 -112.202 469.498>
LayerCount: 2
Fore
SplineSet
-93.501953125 -40 m 1
 469.498046875 -40 l 1
 450.797851562 -121 l 1
 -112.202148438 -121 l 1
 -93.501953125 -40 l 1
EndSplineSet
EndChar

StartChar: grave
Encoding: 96 96 67
Width: 500
GlyphClass: 2
Flags: MW
HStem: 588 133<274.483 290.189 129.189 391.483 274.483 274.483>
VStem: 129.189 262.294<588 721>
LayerCount: 2
Fore
SplineSet
129.189453125 721 m 1
 290.189453125 721 l 1
 391.483398438 588 l 1
 274.483398438 588 l 1
 129.189453125 721 l 1
EndSplineSet
EndChar

StartChar: a
Encoding: 97 97 68
Width: 553
GlyphClass: 2
Flags: MW
HStem: -6 98.999<111.014 232.537> 221.999 85.001<223.609 226.984 226.984 342.984> 431 95<273.17 317.904>
LayerCount: 2
Fore
SplineSet
465.125976562 476 m 0
 497.09765625 442.666992188 505.84765625 394.666015625 491.379882812 331.999023438 c 2
 414.731445312 -0.0009765625 l 1
 294.731445312 -0.0009765625 l 1
 305.813476562 47.9990234375 l 1
 280.68359375 28.666015625 255.489257812 14.8330078125 230.232421875 6.5 c 0
 204.975585938 -1.8330078125 175.680664062 -6 142.34765625 -6 c 0
 79.6806640625 -6 35.4130859375 8 9.5439453125 36 c 0
 -16.32421875 64 -23.3330078125 103.666992188 -11.482421875 155 c 0
 -0.0927734375 204.333007812 25.7705078125 242 66.10546875 268 c 0
 106.44140625 294 158.942382812 307 223.609375 307 c 2
 362.609375 307 l 1
 369.766601562 338 l 2
 384.080078125 400 354.5703125 431 281.237304688 431 c 0
 247.904296875 431 222.352539062 425 204.58203125 413 c 0
 186.811523438 401 175.771484375 385.666992188 171.461914062 367 c 2
 170.76953125 364 l 1
 52.76953125 364 l 1
 53.4619140625 367 l 2
 64.8515625 416.333984375 93.31640625 455.166992188 138.857421875 483.5 c 0
 184.399414062 511.833007812 240.169921875 526 306.169921875 526 c 0
 380.169921875 526 433.155273438 509.333007812 465.125976562 476 c 0
335.596679688 189.999023438 m 2
 342.984375 221.999023438 l 1
 226.984375 221.999023438 l 2
 191.651367188 221.999023438 164.458984375 216.83203125 145.40625 206.499023438 c 0
 126.353515625 196.166015625 114.288085938 179.999023438 109.208984375 157.999023438 c 0
 104.4375 137.33203125 108.911132812 121.33203125 122.626953125 109.999023438 c 0
 136.34375 98.666015625 159.536132812 92.9990234375 192.203125 92.9990234375 c 0
 272.870117188 92.9990234375 320.666992188 125.33203125 335.596679688 189.999023438 c 2
EndSplineSet
EndChar

StartChar: b
Encoding: 98 98 69
Width: 571
GlyphClass: 2
Flags: MW
HStem: -9 111<214.615 249.948 214.615 255.322> 0 21G<-30.2666 90.7334 -30.2666 -30.2666> 419 110<285.8 391.863> 670 20G<129.032 253.032 253.032 253.032>
LayerCount: 2
Fore
SplineSet
102.96875 53 m 1xb0
 90.7333984375 0 l 1
 -30.2666015625 0 l 1x70
 129.032226562 690 l 1
 253.032226562 690 l 1
 200.163085938 461 l 1
 221.755859375 482.333007812 246.270507812 499 273.70703125 511 c 0
 301.14453125 523 330.196289062 529 360.86328125 529 c 0
 422.86328125 529 467.579101562 509 495.01171875 469 c 0
 522.443359375 429 527.462890625 371.333007812 510.071289062 296 c 2
 495.064453125 231 l 2
 483.521484375 181 464.72265625 137.833007812 438.666992188 101.5 c 0
 412.611328125 65.1669921875 382.095703125 37.6669921875 347.119140625 19 c 0
 312.142578125 0.3330078125 274.98828125 -9 235.655273438 -9 c 0
 173.655273438 -9 129.426757812 11.6669921875 102.96875 53 c 1xb0
321.015625 135.5 m 0
 344.838867188 157.833007812 361.90625 191.333007812 372.217773438 236 c 2
 384.684570312 290 l 2
 404.5390625 376 377.466796875 419 303.466796875 419 c 0
 268.133789062 419 237.888671875 407.833007812 212.732421875 385.5 c 0
 187.577148438 363.166992188 170.381835938 332 161.146484375 292 c 2
 145.909179688 226 l 2
 137.13671875 188 140.504882812 157.833007812 156.015625 135.5 c 0
 171.526367188 113.166992188 196.948242188 102 232.28125 102 c 0xb0
 267.614257812 102 297.192382812 113.166992188 321.015625 135.5 c 0
EndSplineSet
EndChar

StartChar: c
Encoding: 99 99 70
Width: 559
GlyphClass: 2
Flags: MW
HStem: -9 111<208.281 232.655> 418.999 110<283.862 315.134>
LayerCount: 2
Fore
SplineSet
36.73828125 52 m 0
 4.126953125 92.6669921875 -3.1748046875 151.999023438 14.8330078125 229.999023438 c 2
 29.146484375 291.999023438 l 2
 47 369.333007812 81.5830078125 428.166015625 132.89453125 468.499023438 c 0
 184.206054688 508.83203125 246.862304688 528.999023438 320.862304688 528.999023438 c 0
 393.529296875 528.999023438 446.271484375 511.999023438 479.088867188 477.999023438 c 0
 511.90625 443.999023438 521.388671875 396.999023438 507.536132812 336.999023438 c 2
 506.151367188 330.999023438 l 1
 385.151367188 330.999023438 l 1
 386.07421875 334.999023438 l 2
 392.077148438 360.999023438 387.310546875 381.499023438 371.7734375 396.499023438 c 0
 356.236328125 411.499023438 331.80078125 418.999023438 298.467773438 418.999023438 c 0
 259.80078125 418.999023438 228.248046875 408.666015625 203.809570312 387.999023438 c 0
 179.37109375 367.33203125 161.997070312 334.665039062 151.684570312 289.999023438 c 2
 138.063476562 230.999023438 l 2
 127.59765625 185.666015625 130.017578125 152.833007812 145.323242188 132.5 c 0
 160.62890625 112.166992188 188.28125 102 228.28125 102 c 0
 260.28125 102 287.103515625 109.166992188 308.745117188 123.5 c 0
 330.387695312 137.833007812 344.056640625 157.333007812 349.750976562 182 c 2
 350.674804688 186 l 1
 471.674804688 186 l 1
 470.750976562 182 l 2
 457.052734375 122.666992188 425.946289062 76 377.4296875 42 c 0
 328.913085938 8 268.655273438 -9 196.655273438 -9 c 0
 122.655273438 -9 69.349609375 11.3330078125 36.73828125 52 c 0
EndSplineSet
EndChar

StartChar: d
Encoding: 100 100 71
Width: 571
GlyphClass: 2
Flags: MW
HStem: -9 111<131.989 234.282> 0 21G<311.733 432.733 311.733 311.733> 419 110<274.801 310.468> 670 20G<469.032 592.032 592.032 592.032>
LayerCount: 2
Fore
SplineSet
29.23828125 52 m 0xb0
 1.626953125 92.6669921875 -3.328125 151.333984375 14.3720703125 228.000976562 c 2
 29.37890625 293.000976562 l 2
 40.921875 343.000976562 59.2724609375 385.66796875 84.4296875 421.000976562 c 0
 109.586914062 456.334960938 139.44921875 483.16796875 174.014648438 501.5 c 0
 208.580078125 519.833007812 245.529296875 529 284.862304688 529 c 0
 346.1953125 529 390.193359375 507.333007812 416.85546875 464 c 1
 469.032226562 690 l 1
 592.032226562 690 l 1
 432.733398438 0 l 1
 311.733398438 0 l 1x70
 324.662109375 56 l 1
 280.657226562 12.6669921875 226.655273438 -9 162.655273438 -9 c 0
 101.322265625 -9 56.849609375 11.3330078125 29.23828125 52 c 0xb0
309.401367188 135 m 0
 335.48046875 157 352.983398438 187.333007812 361.91015625 226 c 2
 377.147460938 292 l 2
 386.3828125 332 383.578125 363.166992188 368.733398438 385.5 c 0
 353.889648438 407.833007812 328.467773438 419 292.467773438 419 c 0
 257.134765625 419 227.466796875 408.166992188 203.46484375 386.5 c 0
 179.462890625 364.833007812 162.305664062 331.666015625 151.993164062 287 c 2
 139.526367188 233 l 2
 129.368164062 189 131.12109375 156.166992188 144.786132812 134.5 c 0
 158.450195312 112.833007812 182.282226562 102 216.282226562 102 c 0xb0
 252.282226562 102 283.322265625 113 309.401367188 135 c 0
EndSplineSet
EndChar

StartChar: e
Encoding: 101 101 72
Width: 571
GlyphClass: 2
Flags: MW
HStem: -9 108<192.921 239.321> 226 85<136.909 156.532 156.532 156.532 156.532 493.909> 423 106<286.528 317.056>
LayerCount: 2
Fore
SplineSet
136.909179688 226 m 1
 136.446289062 224 l 2
 117.208007812 140.666992188 150.254882812 99 235.587890625 99 c 0
 264.254882812 99 288.986328125 104.333007812 309.782226562 115 c 0
 330.578125 125.666992188 344.541015625 140.666992188 351.670898438 160 c 2
 353.36328125 163 l 1
 474.36328125 163 l 1
 472.978515625 157 l 2
 458.100585938 107 426.661132812 66.8330078125 378.659179688 36.5 c 0
 330.65625 6.1669921875 272.987304688 -9 205.654296875 -9 c 0
 128.987304688 -9 73.6689453125 12 39.6982421875 54 c 0
 5.7275390625 96 -1.9453125 157.333007812 16.677734375 238 c 2
 27.06640625 283 l 2
 45.3828125 362.333984375 80.759765625 423.166992188 133.200195312 465.5 c 0
 185.640625 507.833007812 249.194335938 529 323.861328125 529 c 0
 398.528320312 529 452.346679688 508 485.317382812 466 c 0
 518.288085938 424 525.76953125 364 507.76171875 286 c 2
 493.909179688 226 l 1
 136.909179688 226 l 1
156.532226562 311 m 1
 389.532226562 310.999023438 l 1
 391.1484375 317.999023438 l 2
 399.151367188 352.666015625 394.692382812 378.833007812 377.771484375 396.5 c 0
 360.850585938 414.166992188 334.72265625 423 299.389648438 423 c 0
 226.056640625 423 178.4375 385.666992188 156.532226562 311 c 1
EndSplineSet
EndChar

StartChar: f
Encoding: 102 102 73
Width: 368
GlyphClass: 2
Flags: MW
HStem: 0 21G<21.7334 144.733 21.7334 21.7334> 433 87<71.7842 121.699 51.6992 141.784 264.784 356.699> 606 84<338.64 350.64 350.64 396.64>
LayerCount: 2
Fore
SplineSet
296.407226562 592 m 0
 284.251953125 582.6640625 275.711914062 567.331054688 270.787109375 546 c 2
 264.784179688 520 l 1
 376.784179688 520 l 1
 356.69921875 433 l 1
 244.69921875 433 l 1
 144.733398438 0 l 1
 21.7333984375 0 l 1
 121.69921875 433 l 1
 51.69921875 433 l 1
 71.7841796875 520 l 1
 141.784179688 520 l 1
 146.6328125 541 l 2
 158.022460938 590.333007812 179.602539062 627.5 211.375 652.5 c 0
 243.146484375 677.5 284.365234375 690 335.032226562 690 c 2
 416.032226562 690 l 1
 396.639648438 606 l 1
 350.639648438 606 l 2
 326.639648438 606 308.561523438 601.333007812 296.407226562 592 c 0
EndSplineSet
EndChar

StartChar: g
Encoding: 103 103 74
Width: 571
GlyphClass: 2
Flags: MW
HStem: -164 98<164.83 189.205> 29 111<140.762 243.055> 419 110<274.133 309.133> 500 20G<430.784 552.784 552.784 552.784>
LayerCount: 2
Fore
SplineSet
4.875 -125 m 0xd0
 -27.123046875 -99 -38.349609375 -61 -28.806640625 -11 c 1
 90.193359375 -11 l 1
 90.859375 -28.3330078125 98.5751953125 -41.8330078125 113.34375 -51.5 c 0
 128.111328125 -61.1669921875 150.163085938 -66 179.49609375 -66 c 0
 256.829101562 -66 303.653320312 -30.6669921875 319.967773438 40 c 2
 332.434570312 94 l 1
 289.09765625 50.6669921875 235.428710938 29 171.428710938 29 c 0
 110.095703125 29 65.5458984375 49 37.7802734375 89 c 0
 10.0146484375 129 4.751953125 186.333007812 21.9892578125 261 c 2
 31.224609375 301 l 2
 47.8466796875 373 79.275390625 429 125.510742188 469 c 0
 171.745117188 509 224.862304688 529 284.862304688 529 c 0xe0
 345.529296875 529 389.860351562 507.333007812 417.85546875 464 c 1
 430.784179688 520 l 1
 552.784179688 520 l 1
 443.814453125 48 l 2
 428.577148438 -18 395.111328125 -69.8330078125 343.415039062 -107.5 c 0
 291.71875 -145.166992188 227.538085938 -164 150.87109375 -164 c 0
 85.5380859375 -164 36.8720703125 -151 4.875 -125 c 0xd0
317.942382812 172 m 0
 343.8671875 193.333007812 361.0625 222.333007812 369.528320312 259 c 2
 378.993164062 300 l 2
 387.458984375 336.666992188 383.821289062 365.666992188 368.079101562 387 c 0
 352.336914062 408.333007812 326.799804688 419 291.466796875 419 c 0
 256.799804688 419 227.620117188 408.833007812 203.92578125 388.5 c 0
 180.231445312 368.166992188 163.536132812 337 153.838867188 295 c 2
 147.14453125 266 l 2
 137.447265625 224 139.341796875 192.5 152.827148438 171.5 c 0
 166.311523438 150.5 190.387695312 140 225.0546875 140 c 0
 261.0546875 140 292.017578125 150.666992188 317.942382812 172 c 0
EndSplineSet
EndChar

StartChar: h
Encoding: 104 104 75
Width: 572
GlyphClass: 2
Flags: MW
HStem: 0 21G<-30.2666 93.7334 -30.2666 -30.2666 309.733 433.733 309.733 309.733> 416 110<285.108 395.17> 670 20G<129.032 253.032 253.032 253.032>
LayerCount: 2
Fore
SplineSet
129.032226562 690 m 1
 253.032226562 690 l 1
 201.086914062 465 l 1
 223.704101562 485 249.206054688 500.166992188 277.591796875 510.5 c 0
 305.9765625 520.833007812 335.169921875 526 365.169921875 526 c 0
 425.169921875 526 467.7578125 508.333007812 492.93359375 473 c 0
 518.109375 437.666992188 523.309570312 388 508.534179688 324 c 2
 433.733398438 0 l 1
 309.733398438 0 l 1
 378.762695312 299 l 2
 396.770507812 377 371.44140625 416 302.774414062 416 c 0
 267.44140625 416 237.426757812 405.833007812 212.732421875 385.5 c 0
 188.038085938 365.166992188 170.997070312 334.666992188 161.608398438 294 c 2
 93.7333984375 0 l 1
 -30.2666015625 0 l 1
 129.032226562 690 l 1
EndSplineSet
EndChar

StartChar: i
Encoding: 105 105 76
Width: 241
GlyphClass: 2
Flags: MW
HStem: 0 21G<-25.2666 97.7334 -25.2666 -25.2666> 500 20G<94.7842 217.784 217.784 217.784> 594 99<134.725 234.869 111.869 257.725>
VStem: -25.2666 282.991
LayerCount: 2
Fore
SplineSet
134.724609375 693 m 1
 257.724609375 693 l 1
 234.869140625 594 l 1
 111.869140625 594 l 1
 134.724609375 693 l 1
94.7841796875 520 m 1
 217.784179688 520 l 1
 97.7333984375 0 l 1
 -25.2666015625 0 l 1
 94.7841796875 520 l 1
EndSplineSet
EndChar

StartChar: j
Encoding: 106 106 77
Width: 241
GlyphClass: 2
Flags: MW
HStem: -156 107<-155.579 -155.579 -155.579 -115.282 -180.282 -155.579> 499.999 20G<94.7852 217.785 217.785 217.785> 594 99<134.725 234.869 111.869 257.725>
LayerCount: 2
Fore
SplineSet
134.724609375 693 m 1
 257.724609375 693 l 1
 234.869140625 594 l 1
 111.869140625 594 l 1
 134.724609375 693 l 1
-155.579101562 -49 m 1
 -108.578125 -49.0009765625 l 2
 -81.2451171875 -49.0009765625 -61.2578125 -44.0009765625 -48.615234375 -34.0009765625 c 0
 -35.9736328125 -24.0009765625 -26.6513671875 -6.0009765625 -20.6484375 19.9990234375 c 2
 94.78515625 519.999023438 l 1
 217.78515625 519.999023438 l 1
 100.50390625 11.9990234375 l 2
 87.267578125 -45.333984375 63.1611328125 -87.6669921875 28.1845703125 -115 c 0
 -6.79296875 -142.333007812 -54.615234375 -156 -115.282226562 -156 c 2
 -180.282226562 -156 l 1
 -155.579101562 -49 l 1
EndSplineSet
EndChar

StartChar: k
Encoding: 107 107 78
Width: 577
GlyphClass: 2
Flags: MW
HStem: 0 21G<-30.2666 93.7334 -30.2666 -30.2666 321.733 321.733 321.733 478.733> 500 20G<424.784 583.784 583.784 583.784> 670 20G<129.032 253.032 253.032 253.032>
LayerCount: 2
Fore
SplineSet
221.525390625 233 m 1
 130.903320312 161 l 1
 93.7333984375 0 l 1
 -30.2666015625 0 l 1
 129.032226562 690 l 1
 253.032226562 690 l 1
 162.993164062 300 l 1
 424.784179688 520 l 1
 583.784179688 520 l 1
 327.91796875 317 l 1
 478.733398438 0 l 1
 321.733398438 0 l 1
 221.525390625 233 l 1
EndSplineSet
EndChar

StartChar: l
Encoding: 108 108 79
Width: 314
GlyphClass: 2
Flags: MW
HStem: 0 107<113.4 236.436 189.436 211.733> 669.999 20G<129.032 253.032 253.032 253.032>
LayerCount: 2
Fore
SplineSet
21.814453125 41.5 m 0
 -0.1318359375 69.1669921875 -4.5634765625 111.33203125 8.5185546875 167.999023438 c 2
 129.032226562 689.999023438 l 1
 253.032226562 689.999023438 l 1
 134.365234375 175.999023438 l 2
 128.517578125 150.666015625 129.567382812 132.833007812 137.514648438 122.5 c 0
 145.461914062 112.166992188 162.768554688 107 189.435546875 107 c 2
 236.435546875 107 l 1
 211.733398438 0 l 1
 142.733398438 0 l 2
 84.06640625 0 43.759765625 13.8330078125 21.814453125 41.5 c 0
EndSplineSet
EndChar

StartChar: m
Encoding: 109 109 80
Width: 896
GlyphClass: 2
Flags: MW
HStem: 0 21G<-30.2666 93.7334 -30.2666 -30.2666 301.733 425.733 301.733 301.733> 416 109.999<281.441 374.836 643.503 646.108>
LayerCount: 2
Fore
SplineSet
89.7841796875 520 m 1
 210.784179688 519.999023438 l 1
 197.85546875 463.999023438 l 1
 220.47265625 483.999023438 246.012695312 499.33203125 274.475585938 509.999023438 c 0
 302.938476562 520.666015625 331.169921875 525.999023438 359.169921875 525.999023438 c 0
 390.502929688 525.999023438 417.823242188 520.166015625 441.12890625 508.499023438 c 0
 464.435546875 496.83203125 482.0625 479.33203125 494.008789062 455.999023438 c 1
 548.782226562 502.666015625 609.836914062 525.999023438 677.169921875 525.999023438 c 0
 741.169921875 525.999023438 786.719726562 508.166015625 813.818359375 472.499023438 c 0
 840.916992188 436.83203125 847.155273438 387.33203125 832.534179688 323.999023438 c 2
 757.732421875 -0.0009765625 l 1
 633.732421875 -0.0009765625 l 1
 702.762695312 298.999023438 l 2
 711.689453125 337.666015625 709.922851562 366.833007812 697.463867188 386.5 c 0
 685.00390625 406.166992188 662.44140625 416 629.774414062 416 c 0
 595.774414062 416 566.850585938 405.5 543.001953125 384.5 c 0
 519.153320312 363.5 502.842773438 334 494.0703125 296 c 2
 425.733398438 0 l 1
 301.733398438 0 l 1
 371.916992188 304 l 2
 380.536132812 341.333007812 378.5 369.333007812 365.809570312 388 c 0
 353.119140625 406.666992188 330.774414062 416 298.774414062 416 c 0
 264.107421875 416 234.850585938 405.5 211.001953125 384.5 c 0
 187.153320312 363.5 170.689453125 333.333007812 161.608398438 294 c 2
 93.7333984375 0 l 1
 -30.2666015625 0 l 1
 89.7841796875 520 l 1
EndSplineSet
EndChar

StartChar: n
Encoding: 110 110 81
Width: 572
GlyphClass: 2
Flags: MW
HStem: 0 21G<-30.2666 93.7334 -30.2666 -30.2666 309.733 433.733 309.733 309.733> 416 110<285.108 395.17>
LayerCount: 2
Fore
SplineSet
89.7841796875 520 m 1
 210.784179688 520 l 1
 197.85546875 464 l 1
 221.140625 484 247.180664062 499.333007812 275.975585938 510 c 0
 304.771484375 520.666992188 334.502929688 526 365.169921875 526 c 0
 425.169921875 526 467.719726562 508.166992188 492.818359375 472.5 c 0
 517.916992188 436.833007812 523.15625 387.333007812 508.534179688 324 c 2
 433.733398438 0 l 1
 309.733398438 0 l 1
 378.762695312 299 l 2
 396.770507812 377 371.44140625 416 302.774414062 416 c 0
 267.44140625 416 237.426757812 405.833007812 212.732421875 385.5 c 0
 188.038085938 365.166992188 170.997070312 334.666992188 161.608398438 294 c 2
 93.7333984375 0 l 1
 -30.2666015625 0 l 1
 89.7841796875 520 l 1
EndSplineSet
EndChar

StartChar: o
Encoding: 111 111 82
Width: 563
GlyphClass: 2
Flags: MW
HStem: -9 111<184.281 233.322> 419 110<283.862 313.467>
LayerCount: 2
Fore
SplineSet
36.73828125 52 m 0
 4.126953125 92.6669921875 -3.1748046875 152 14.8330078125 230 c 2
 29.146484375 292 l 2
 47.0009765625 369.333984375 81.5830078125 428.166992188 132.89453125 468.5 c 0
 184.206054688 508.833007812 246.862304688 529 320.862304688 529 c 0
 394.1953125 529 447.000976562 508.666992188 479.279296875 468 c 0
 511.557617188 427.333007812 518.846679688 368.666015625 501.146484375 292 c 2
 486.833007812 230 l 2
 468.825195312 152 434.293945312 92.6669921875 383.23828125 52 c 0
 332.182617188 11.3330078125 269.98828125 -9 196.655273438 -9 c 0
 122.655273438 -9 69.349609375 11.3330078125 36.73828125 52 c 0
364.063476562 231 m 2
 377.684570312 290 l 2
 387.842773438 334 385.6796875 366.5 371.194335938 387.5 c 0
 356.709960938 408.5 331.466796875 419 295.466796875 419 c 0
 219.466796875 419 171.5390625 376 151.684570312 290 c 2
 138.063476562 231 l 2
 118.208984375 145 146.28125 102 222.28125 102 c 0
 296.948242188 102 344.208984375 145 364.063476562 231 c 2
EndSplineSet
EndChar

StartChar: p
Encoding: 112 112 83
Width: 571
GlyphClass: 2
Flags: MW
HStem: -156 21G<-66.2822 57.7178 -66.2822 -66.2822> -9 111<214.616 249.949 214.616 255.322> 419 110<330.863 340.468> 500 20G<89.7842 210.785 210.785 210.785>
LayerCount: 2
Fore
SplineSet
89.7841796875 520 m 1xd0
 210.78515625 520 l 1xd0
 197.1640625 461 l 1
 246.296875 506.333007812 300.86328125 529 360.86328125 529 c 0xe0
 422.86328125 529 467.579101562 509 495.01171875 469 c 0
 522.443359375 429 527.462890625 371.333007812 510.071289062 296 c 2
 495.064453125 231 l 2
 483.521484375 181 464.72265625 137.833007812 438.666992188 101.5 c 0
 412.611328125 65.1669921875 382.095703125 37.6669921875 347.119140625 19 c 0
 312.142578125 0.3330078125 274.98828125 -9 235.655273438 -9 c 0
 173.655273438 -9 130.426757812 11.6669921875 105.96875 53 c 1
 57.7177734375 -156 l 1
 -66.2822265625 -156 l 1
 89.7841796875 520 l 1xd0
321.016601562 135.5 m 0
 344.83984375 157.833007812 361.907226562 191.333007812 372.21875 236 c 2
 384.685546875 290 l 2
 404.540039062 376 377.467773438 419 303.467773438 419 c 0xe0
 268.134765625 419 237.889648438 407.833007812 212.733398438 385.5 c 0
 187.578125 363.166992188 170.3828125 332 161.147460938 292 c 2
 145.91015625 226 l 2
 137.137695312 188 140.505859375 157.833007812 156.016601562 135.5 c 0
 171.52734375 113.166992188 196.94921875 102 232.282226562 102 c 0
 267.615234375 102 297.193359375 113.166992188 321.016601562 135.5 c 0
EndSplineSet
EndChar

StartChar: q
Encoding: 113 113 84
Width: 571
GlyphClass: 2
Flags: MW
HStem: -156 21G<273.718 396.718 273.718 273.718> -9.00098 111<131.989 234.28> 418.999 110.001<274.799 310.466> 500 20G<431.784 552.784 552.784 552.784>
LayerCount: 2
Fore
SplineSet
322.662109375 56 m 1xd0
 279.32421875 12.6669921875 225.98828125 -9.0009765625 162.655273438 -9.0009765625 c 0
 101.322265625 -9.0009765625 56.849609375 11.33203125 29.23828125 51.9990234375 c 0
 1.626953125 92.666015625 -3.3291015625 151.333007812 14.37109375 228 c 2
 29.3779296875 293 l 2
 46.6162109375 367.666992188 78.6728515625 425.666992188 125.548828125 467 c 0
 172.423828125 508.333007812 226.1953125 529 286.862304688 529 c 0xe0
 346.1953125 529 390.193359375 507.333007812 418.85546875 464 c 1
 431.784179688 520 l 1
 552.784179688 520 l 1
 396.717773438 -156 l 1
 273.717773438 -156 l 1
 322.662109375 56 l 1xd0
309.399414062 134.999023438 m 0
 335.478515625 156.999023438 352.981445312 187.33203125 361.908203125 225.999023438 c 2
 377.145507812 291.999023438 l 2
 386.379882812 331.999023438 383.575195312 363.166015625 368.731445312 385.499023438 c 0
 353.887695312 407.83203125 328.465820312 418.999023438 292.465820312 418.999023438 c 0
 257.1328125 418.999023438 227.46484375 408.166015625 203.462890625 386.499023438 c 0
 179.459960938 364.83203125 162.302734375 331.665039062 151.991210938 286.999023438 c 2
 139.524414062 232.999023438 l 2
 129.366210938 188.999023438 131.119140625 156.166015625 144.783203125 134.499023438 c 0
 158.448242188 112.83203125 182.280273438 101.999023438 216.280273438 101.999023438 c 0
 252.280273438 101.999023438 283.3203125 112.999023438 309.399414062 134.999023438 c 0
EndSplineSet
EndChar

StartChar: r
Encoding: 114 114 85
Width: 394
GlyphClass: 2
Flags: MW
HStem: 0 21G<-30.2666 93.7334 -30.2666 -30.2666> 422 109<295.493 374.991> 500 20G<89.7842 210.785 210.785 210.785>
LayerCount: 2
Fore
SplineSet
89.7841796875 520 m 1xa0
 210.78515625 520 l 1xa0
 197.1640625 461 l 1
 219.883789062 484.333007812 245.7578125 501.833007812 274.784179688 513.5 c 0
 303.811523438 525.166992188 333.991210938 531 365.32421875 531 c 0
 384.658203125 531 400.68359375 529.666992188 413.400390625 527 c 1
 386.158203125 409 l 1
 365.4921875 417.666992188 341.825195312 422 315.159179688 422 c 0xc0
 275.826171875 422 242.671875 410.5 215.694335938 387.5 c 0
 188.717773438 364.5 170.227539062 331.333007812 160.223632812 288 c 2
 93.7333984375 0 l 1
 -30.2666015625 0 l 1
 89.7841796875 520 l 1xa0
EndSplineSet
EndChar

StartChar: s
Encoding: 115 115 86
Width: 526
GlyphClass: 2
Flags: MW
HStem: -6 100<186.436 211.348> 429 97<265.503 293.775>
LayerCount: 2
Fore
SplineSet
20.390625 37.5 m 0
 -12.2470703125 66.5 -22.486328125 107.333007812 -10.3271484375 160 c 2
 -9.634765625 163 l 1
 106.365234375 163 l 1
 105.904296875 161 l 2
 101.1328125 140.333007812 107.028320312 124 123.591796875 112 c 0
 140.154296875 100 167.435546875 94 205.435546875 94 c 0
 240.76953125 94 268.756835938 99 289.3984375 109 c 0
 310.040039062 119 322.59375 133.666992188 327.056640625 153 c 0
 330.750976562 169 327.09765625 181.333007812 316.098632812 190 c 0
 305.099609375 198.666992188 285.318359375 204.666992188 256.754882812 208 c 2
 181.83203125 217 l 2
 124.858398438 224.333007812 85.26953125 239.833007812 63.06640625 263.5 c 0
 40.8642578125 287.166992188 34.841796875 321 45 365 c 0
 56.8515625 416.333007812 85.341796875 456 130.473632812 484 c 0
 175.604492188 512 231.836914062 526 299.169921875 526 c 0
 368.50390625 526 419.604492188 512 452.473632812 484 c 0
 485.341796875 456 496.08203125 417.333007812 484.692382812 368 c 2
 483.76953125 364 l 1
 368.76953125 364 l 1
 369.461914062 367 l 2
 374.079101562 387 368.619140625 402.333007812 353.08203125 413 c 0
 337.543945312 423.666992188 311.775390625 429 275.775390625 429 c 0
 241.775390625 429 215.493164062 424.166992188 196.927734375 414.5 c 0
 178.36328125 404.833007812 167.002929688 391 162.846679688 373 c 0
 159.4609375 358.333007812 162.434570312 346.666015625 171.766601562 338 c 0
 181.098632812 329.331054688 198.790039062 323.6640625 224.841796875 321 c 2
 305.533203125 311 l 2
 363.994140625 304.333007812 404.671875 288.5 427.56640625 263.5 c 0
 450.461914062 238.5 456.907226562 204.333007812 446.903320312 161 c 0
 434.435546875 107 404.060546875 65.6669921875 355.775390625 37 c 0
 307.490234375 8.3330078125 247.34765625 -6 175.34765625 -6 c 0
 104.680664062 -6 53.0283203125 8.5 20.390625 37.5 c 0
EndSplineSet
EndChar

StartChar: t
Encoding: 116 116 87
Width: 395
GlyphClass: 2
Flags: MW
HStem: 0 105<168.4 285.975 241.975 261.733> 433 87<60.7842 131.699 40.6992 151.784 274.784 372.699>
LayerCount: 2
Fore
SplineSet
254.69921875 433 m 1
 193.518554688 168.000976562 l 2
 188.28515625 145.333984375 189.385742188 129.166992188 196.821289062 119.5 c 0
 204.255859375 109.833007812 219.307617188 105 241.974609375 105 c 2
 285.974609375 105 l 1
 261.733398438 0 l 1
 194.733398438 0 l 2
 142.06640625 0 104.926757812 13.8330078125 83.314453125 41.5 c 0
 61.701171875 69.1669921875 56.8212890625 108.666992188 68.671875 160 c 2
 131.69921875 433 l 1
 40.69921875 433 l 1
 60.7841796875 520 l 1
 151.784179688 520 l 1
 175.333007812 622 l 1
 308.260742188 665 l 1
 274.784179688 520 l 1
 392.784179688 520 l 1
 372.69921875 433 l 1
 254.69921875 433 l 1
EndSplineSet
EndChar

StartChar: u
Encoding: 117 117 88
Width: 572
GlyphClass: 2
Flags: MW
HStem: -9 111<206.28 237.989> 500 20G<89.7832 213.783 213.783 213.783 429.784 553.784 553.784 553.784>
LayerCount: 2
Fore
SplineSet
39.4306640625 48.5 m 0
 9.2802734375 86.8330078125 2.8232421875 143.333007812 20.0615234375 218 c 2
 89.783203125 520 l 1
 213.783203125 520 l 1
 145.446289062 224 l 2
 136.211914062 184 137.708984375 153.666992188 149.9375 133 c 0
 162.166015625 112.333007812 187.280273438 102 225.280273438 102 c 0
 263.947265625 102 293.961914062 112.166992188 315.323242188 132.5 c 0
 336.684570312 152.833007812 352.05859375 183.333007812 361.447265625 224 c 2
 429.784179688 520 l 1
 553.784179688 520 l 1
 484.0625 218 l 2
 466.669921875 142.666992188 434.087890625 86 386.314453125 48 c 0
 338.541992188 10 276.322265625 -9 199.655273438 -9 c 0
 122.98828125 -9 69.580078125 10.1669921875 39.4306640625 48.5 c 0
EndSplineSet
EndChar

StartChar: v
Encoding: 118 118 89
Width: 539
GlyphClass: 2
Flags: MW
HStem: 0 21G<133.733 235.733 133.733 133.733> 500 20G<44.7842 178.784 178.784 178.784 431.784 565.784 565.784 565.784>
LayerCount: 2
Fore
SplineSet
44.7841796875 520 m 1
 178.784179688 520 l 1
 224.288085938 167 l 1
 431.784179688 520 l 1
 565.784179688 520 l 1
 235.733398438 0 l 1
 133.733398438 0 l 1
 44.7841796875 520 l 1
EndSplineSet
EndChar

StartChar: w
Encoding: 119 119 90
Width: 826
GlyphClass: 2
Flags: MW
HStem: 0 21G<102.733 207.733 102.733 102.733 448.733 553.733 448.733 448.733> 500 20G<44.7842 175.784 175.784 175.784 401.784 494.784 494.784 494.784 720.784 852.784 852.784 852.784>
VStem: 44.7842 131<520 520>
LayerCount: 2
Fore
SplineSet
44.7841796875 520 m 1
 175.784179688 520 l 1
 200.442382812 172 l 1
 401.784179688 520 l 1
 494.784179688 520 l 1
 537.442382812 172 l 1
 720.784179688 520 l 1
 852.784179688 520 l 1
 553.733398438 0 l 1
 448.733398438 0 l 1
 409.999023438 352 l 1
 207.733398438 0 l 1
 102.733398438 0 l 1
 44.7841796875 520 l 1
EndSplineSet
EndChar

StartChar: x
Encoding: 120 120 91
Width: 514
GlyphClass: 2
Flags: MW
HStem: 0 21G<-75.2666 60.7334 -75.2666 -75.2666 285.733 420.733 285.733 285.733> 500 20G<54.7842 190.784 190.784 190.784 395.784 530.784 530.784 530.784>
LayerCount: 2
Fore
SplineSet
285.733398438 0 m 1
 208.904296875 174 l 1
 60.7333984375 0 l 1
 -75.2666015625 0 l 1
 166.60546875 268 l 1
 54.7841796875 520 l 1
 190.784179688 520 l 1
 260.307617188 362 l 1
 395.784179688 520 l 1
 530.784179688 520 l 1
 300.298828125 271 l 1
 420.733398438 0 l 1
 285.733398438 0 l 1
EndSplineSet
EndChar

StartChar: y
Encoding: 121 121 92
Width: 540
GlyphClass: 2
Flags: MW
HStem: -153.999 111<-9.19434 13.1797 -34.8203 44.8057> 500 20G<44.7842 178.784 178.784 178.784 437.784 566.784 566.784 566.784>
LayerCount: 2
Fore
SplineSet
566.784179688 520 m 1
 215.344726562 -44.9990234375 l 2
 191.904296875 -82.9990234375 163.849609375 -110.666015625 131.182617188 -127.999023438 c 0
 98.513671875 -145.33203125 59.1796875 -153.999023438 13.1796875 -153.999023438 c 2
 -34.8203125 -153.999023438 l 1
 -9.1943359375 -42.9990234375 l 1
 44.8056640625 -42.9990234375 l 2
 68.8056640625 -42.9990234375 87.037109375 -39.83203125 99.4990234375 -33.4990234375 c 0
 111.9609375 -27.166015625 123.526367188 -15.3330078125 134.1953125 2 c 2
 139.272460938 11 l 1
 44.7841796875 520 l 1
 178.784179688 520 l 1
 233.442382812 172 l 1
 437.784179688 520 l 1
 566.784179688 520 l 1
EndSplineSet
EndChar

StartChar: z
Encoding: 122 122 93
Width: 501
GlyphClass: 2
Flags: MW
HStem: 0 104<-14.2568 -14.2568 127.743 371.733 -38.2666 -14.2568> 416 104<81.7842 324.774 57.7744 491.784 467.774 467.774>
LayerCount: 2
Fore
SplineSet
467.774414062 416 m 1
 127.743164062 104 l 1
 395.743164062 104 l 1
 371.733398438 0 l 1
 -38.2666015625 0 l 1
 -14.2568359375 104 l 1
 324.774414062 416 l 1
 57.7744140625 416 l 1
 81.7841796875 520 l 1
 491.784179688 520 l 1
 467.774414062 416 l 1
EndSplineSet
EndChar

StartChar: braceleft
Encoding: 123 123 94
Width: 400
GlyphClass: 2
Flags: MW
HStem: -84 100<125.673 274.427 234.427 251.34> 640 100<367.155 378.488 378.488 418.488>
LayerCount: 2
Fore
SplineSet
61.8916015625 44 m 2
 97.2138671875 197 l 2
 103.83203125 225.666992188 101.8984375 246.166992188 91.412109375 258.5 c 0
 80.9267578125 270.833007812 59.017578125 277 25.6845703125 277 c 1
 50.15625 383 l 1
 83.4892578125 383 108.24609375 389.166992188 124.426757812 401.5 c 0
 140.607421875 413.833007812 152.006835938 434.333007812 158.625 463 c 2
 193.254882812 613 l 2
 212.801757812 697.666992188 269.2421875 740 362.575195312 740 c 2
 441.575195312 740 l 1
 418.48828125 640 l 1
 378.48828125 640 l 2
 355.821289062 640 338.975585938 636.333007812 327.94921875 629 c 0
 316.922851562 621.666992188 309.33203125 609 305.17578125 591 c 2
 274.240234375 457 l 2
 265.62109375 419.666992188 253.78515625 391.5 238.731445312 372.5 c 0
 223.677734375 353.5 202.407226562 339.333007812 174.919921875 330 c 1
 198.09765625 320.666992188 212.827148438 306.5 219.107421875 287.5 c 0
 225.388671875 268.5 224.21875 240.333007812 215.599609375 203 c 2
 183.739257812 65 l 2
 179.584960938 47 181.327148438 34.3330078125 188.966796875 27 c 0
 196.606445312 19.6669921875 211.759765625 16 234.426757812 16 c 2
 274.426757812 16 l 1
 251.33984375 -84 l 1
 172.33984375 -84 l 2
 79.0068359375 -84 42.1904296875 -41.3330078125 61.8916015625 44 c 2
EndSplineSet
Substitution2: "'rtla' Right to Left Alternates lookup 0 subtable" braceright
EndChar

StartChar: bar
Encoding: 124 124 95
Width: 296
GlyphClass: 2
Flags: MW
VStem: -12.6602 305.235
LayerCount: 2
Fore
SplineSet
177.575195312 740 m 1
 292.575195312 740 l 1
 102.33984375 -84 l 1
 -12.66015625 -84 l 1
 177.575195312 740 l 1
EndSplineSet
EndChar

StartChar: braceright
Encoding: 125 125 96
Width: 400
GlyphClass: 2
Flags: MW
HStem: -84 100<-34.5732 4.4248 4.4248 15.7583 -34.5732 21.3398 -57.6602 4.4248> 277 106<317.684 359.155> 640 100<132.575 148.488 109.488 211.575>
LayerCount: 2
Fore
SplineSet
-34.5732421875 16 m 1
 4.4248046875 16 l 2
 27.091796875 16 44.1435546875 19.8330078125 55.5810546875 27.5 c 0
 67.017578125 35.1669921875 74.7373046875 47.6669921875 78.73828125 65 c 2
 110.598632812 203 l 2
 119.217773438 240.333007812 131.053710938 268.5 146.106445312 287.5 c 0
 161.16015625 306.5 182.430664062 320.666992188 209.918945312 330 c 1
 186.740234375 339.333007812 172.010742188 353.5 165.73046875 372.5 c 0
 159.450195312 391.5 160.620117188 419.666992188 169.239257812 457 c 2
 200.174804688 591 l 2
 204.331054688 609 202.587890625 621.666992188 194.948242188 629 c 0
 187.30859375 636.333007812 171.821289062 640 148.48828125 640 c 2
 109.48828125 640 l 1
 132.575195312 740 l 1
 211.575195312 740 l 2
 304.2421875 740 340.801757812 697.666992188 321.254882812 613 c 2
 286.625 463 l 2
 280.161132812 435 282.133789062 414.666992188 292.541992188 402 c 0
 302.951171875 389.333007812 325.155273438 383 359.155273438 383 c 1
 334.68359375 277 l 1
 300.68359375 277 275.5546875 270.666992188 259.296875 258 c 0
 243.040039062 245.333007812 231.678710938 225 225.213867188 197 c 2
 189.891601562 44 l 2
 170.190429688 -41.3330078125 114.006835938 -84 21.33984375 -84 c 2
 -57.66015625 -84 l 1
 -34.5732421875 16 l 1
EndSplineSet
Substitution2: "'rtla' Right to Left Alternates lookup 0 subtable" braceleft
EndChar

StartChar: asciitilde
Encoding: 126 126 97
Width: 529
GlyphClass: 2
Flags: MW
HStem: 194.999 103<322.53 323.084> 252 101.999<164.459 165.579>
LayerCount: 2
Fore
SplineSet
11.2958984375 245 m 1x40
 35.453125 280.333007812 62.0185546875 307.33203125 90.9951171875 325.999023438 c 0
 119.971679688 344.666015625 149.458984375 353.999023438 179.458984375 353.999023438 c 0x40
 196.791992188 353.999023438 211.84375 351.33203125 224.612304688 345.999023438 c 0
 237.380859375 340.666015625 251.8671875 332.666015625 268.071289062 321.999023438 c 0
 280.891601562 313.999023438 291.505859375 307.999023438 299.916015625 303.999023438 c 0
 308.325195312 299.999023438 317.530273438 297.999023438 327.530273438 297.999023438 c 0x80
 342.197265625 297.999023438 355.698242188 302.33203125 368.032226562 310.999023438 c 0
 380.366210938 319.666015625 393.841796875 333.999023438 408.458984375 353.999023438 c 1x40
 477.146484375 304.999023438 l 1
 453.65625 269.666015625 427.217773438 242.499023438 397.831054688 223.499023438 c 0
 368.444335938 204.499023438 338.41796875 194.999023438 307.750976562 194.999023438 c 0x80
 290.41796875 194.999023438 275.239257812 197.83203125 262.21484375 203.499023438 c 0
 249.189453125 209.166015625 234.908203125 217.333007812 219.37109375 227.999023438 c 0
 205.372070312 236.666015625 194.462890625 242.833007812 186.642578125 246.5 c 0
 178.821289062 250.166992188 170.245117188 252 160.912109375 252 c 0
 146.912109375 252 133.744140625 247.666992188 121.41015625 239 c 0
 109.077148438 230.333007812 95.267578125 216 79.9833984375 196 c 1
 11.2958984375 245 l 1x40
EndSplineSet
EndChar

StartChar: exclamdown
Encoding: 161 161 99
Width: 249
GlyphClass: 2
Flags: MW
HStem: -156 21G<-66.2822 74.7178 -66.2822 -66.2822> 389 131<93.7842 196.541 63.541 226.784>
VStem: -66.2822 293.066
LayerCount: 2
Fore
SplineSet
93.7841796875 520 m 1
 226.784179688 520 l 1
 196.541015625 389 l 1
 63.541015625 389 l 1
 93.7841796875 520 l 1
60.6845703125 290 m 1
 153.684570312 290 l 1
 74.7177734375 -156 l 1
 -66.2822265625 -156 l 1
 60.6845703125 290 l 1
EndSplineSet
EndChar

StartChar: cent
Encoding: 162 162 100
Width: 559
GlyphClass: 2
Flags: MW
HStem: 418.999 109.001<287.631 287.631 287.631 315.134>
LayerCount: 2
Fore
SplineSet
385.150390625 331 m 1
 386.07421875 334.999023438 l 2
 392.077148438 360.999023438 387.310546875 381.499023438 371.7734375 396.499023438 c 0
 356.236328125 411.499023438 331.80078125 418.999023438 298.467773438 418.999023438 c 0
 259.80078125 418.999023438 228.248046875 408.666015625 203.809570312 387.999023438 c 0
 179.37109375 367.33203125 161.997070312 334.665039062 151.684570312 289.999023438 c 2
 138.063476562 230.999023438 l 2
 127.59765625 185.666015625 130.017578125 152.833007812 145.323242188 132.5 c 0
 160.62890625 112.166992188 188.28125 102 228.28125 102 c 0
 260.28125 102 287.103515625 109.166992188 308.745117188 123.5 c 0
 330.387695312 137.833007812 344.056640625 157.333007812 349.750976562 182 c 2
 350.674804688 186 l 1
 471.674804688 186 l 1
 470.750976562 182 l 2
 458.284179688 128 431.408203125 84.5 390.123046875 51.5 c 0
 348.836914062 18.5 297.501953125 -1 236.1171875 -7 c 1
 214.646484375 -100 l 1
 142.646484375 -100 l 1
 163.885742188 -8 l 1
 100.604492188 -2 55.7861328125 21.1669921875 29.4306640625 61.5 c 0
 3.0751953125 101.833007812 -1.791015625 158 14.83203125 230 c 2
 29.1455078125 292 l 2
 45.6142578125 363.333007812 76.4658203125 419 121.700195312 459 c 0
 166.935546875 499 222.245117188 522 287.630859375 528 c 1
 308.408203125 618 l 1
 380.408203125 618 l 1
 359.399414062 527 l 1
 418.681640625 521 461.346679688 501.5 487.39453125 468.5 c 0
 513.443359375 435.5 520.15625 391.666992188 507.536132812 337 c 2
 506.150390625 331 l 1
 385.150390625 331 l 1
EndSplineSet
EndChar

StartChar: sterling
Encoding: 163 163 101
Width: 518
GlyphClass: 2
Flags: MW
HStem: 0.000976562 113<135.82 411.732> 276 114<234.771 370.453 208.453 396.771> 589 111.001<346.006 366.381>
LayerCount: 2
Fore
SplineSet
172.1328125 155.5 m 0
 162.6953125 139.166992188 150.590820312 125.000976562 135.8203125 113.000976562 c 1
 437.8203125 113.000976562 l 1
 411.732421875 0.0009765625 l 1
 -36.267578125 0.0009765625 l 1
 -11.333984375 108.000976562 l 1
 8.359375 115.333984375 23.654296875 126.000976562 34.5537109375 140.000976562 c 0
 45.453125 154.000976562 53.98046875 174.333984375 60.13671875 201.000976562 c 2
 77.4521484375 276.000976562 l 1
 7.4521484375 276.000976562 l 1
 33.7705078125 390.000976562 l 1
 103.770507812 390.000976562 l 1
 129.627929688 502.000976562 l 2
 144.096679688 564.668945312 172.999023438 613.3359375 216.334960938 648.000976562 c 0
 259.671875 682.66796875 313.672851562 700.000976562 378.33984375 700.000976562 c 0
 439.006835938 700.000976562 483.2109375 685.000976562 510.952148438 655.000976562 c 0
 538.693359375 625.000976562 546.329101562 583.000976562 533.862304688 529.000976562 c 1
 411.862304688 529.000976562 l 1
 416.326171875 548.333984375 413.75 563.166992188 404.135742188 573.5 c 0
 394.521484375 583.833007812 378.047851562 589 354.71484375 589 c 0
 330.71484375 589 310.958007812 582.833007812 295.443359375 570.5 c 0
 279.928710938 558.1640625 269.478515625 540.331054688 264.091796875 517 c 2
 234.771484375 390 l 1
 396.771484375 390 l 1
 370.453125 276 l 1
 208.453125 276 l 1
 194.138671875 214 l 2
 188.90625 191.333007812 181.571289062 171.833007812 172.1328125 155.5 c 0
EndSplineSet
EndChar

StartChar: currency
Encoding: 164 164 102
Width: 595
GlyphClass: 2
Flags: MW
HStem: 112 98<246.549 257.924> 421 98<313.887 324.929>
LayerCount: 2
Fore
SplineSet
350.0546875 140 m 1
 314.412109375 121.333007812 277.2578125 112 238.590820312 112 c 0
 199.923828125 112 167.078125 121.333007812 140.0546875 140 c 1
 60.0478515625 75 l 1
 3.9013671875 148 l 1
 85.138671875 214 l 1
 74.578125 243.333007812 73.7607421875 277.333007812 82.6875 316 c 0
 90.9990234375 352 107.848632812 386 133.236328125 418 c 1
 81.7041015625 485 l 1
 171.557617188 558 l 1
 222.3203125 492 l 1
 258.475585938 510 295.220703125 519 332.553710938 519 c 0
 369.88671875 519 402.475585938 510 430.3203125 492 c 1
 512.557617188 558 l 1
 567.704101562 485 l 1
 486.236328125 418 l 1
 496.848632812 386 497.999023438 352 489.6875 316 c 0
 480.9140625 278 464.321289062 243.666992188 439.908203125 213 c 1
 490.670898438 147 l 1
 400.817382812 74 l 1
 350.0546875 140 l 1
342.256835938 240.5 m 0
 366.284179688 260.833007812 381.76171875 286 388.6875 316 c 0
 395.61328125 346 391.717773438 371 377.002929688 391 c 0
 362.287109375 411 339.928710938 421 309.928710938 421 c 0
 280.595703125 421 253.954101562 411 230.00390625 391 c 0
 206.052734375 371 190.614257812 346 183.688476562 316 c 0
 176.762695312 286 180.619140625 260.833007812 195.2578125 240.5 c 0
 209.896484375 220.166992188 231.8828125 210 261.215820312 210 c 0
 291.215820312 210 318.229492188 220.166992188 342.256835938 240.5 c 0
EndSplineSet
EndChar

StartChar: yen
Encoding: 165 165 103
Width: 558
GlyphClass: 2
Flags: MW
HStem: 0 21G<129.733 259.733 129.733 129.733> 117 88<23.0615 156.745 2.74512 177.062 307.062 440.745> 260 88<56.0752 188.075 56.0752 189.759 35.7588 188.075 362.075 473.759> 670 20G<82.0322 224.032 224.032 224.032 484.032 626.032 626.032 626.032>
LayerCount: 2
Fore
SplineSet
156.745117188 117 m 1
 2.7451171875 117 l 1
 23.0615234375 205 l 1
 177.061523438 205 l 1
 189.758789062 260 l 1
 35.7587890625 260 l 1
 56.0751953125 348 l 1
 188.075195312 348 l 1
 82.0322265625 690 l 1
 224.032226562 690 l 1
 293.08203125 413 l 1
 484.032226562 690 l 1
 626.032226562 690 l 1
 362.075195312 348 l 1
 494.075195312 348 l 1
 473.758789062 260 l 1
 319.758789062 260 l 1
 307.061523438 205 l 1
 461.061523438 205 l 1
 440.745117188 117 l 1
 286.745117188 117 l 1
 259.733398438 0 l 1
 129.733398438 0 l 1
 156.745117188 117 l 1
EndSplineSet
EndChar

StartChar: brokenbar
Encoding: 166 166 104
Width: 296
GlyphClass: 2
Flags: MW
VStem: -12.6602 305.235
LayerCount: 2
Fore
SplineSet
177.575195312 740 m 1
 292.575195312 740 l 1
 211.309570312 388 l 1
 96.3095703125 388 l 1
 177.575195312 740 l 1
69.0673828125 270 m 1
 184.067382812 270 l 1
 102.33984375 -84 l 1
 -12.66015625 -84 l 1
 69.0673828125 270 l 1
EndSplineSet
EndChar

StartChar: section
Encoding: 167 167 105
Width: 560
GlyphClass: 2
Flags: MW
HStem: -168 102.001<162.83 183.614> 613.999 102.001<345.035 354.82>
VStem: -8.34277 113<4.00098 4.00098> 410.556 112<544.999 544.999>
LayerCount: 2
Fore
SplineSet
14.8359375 -123 m 0
 -13.2373046875 -93 -20.9638671875 -50.666015625 -8.3427734375 4.0009765625 c 1
 104.657226562 4.0009765625 l 1
 99.423828125 -18.666015625 102.921875 -35.9990234375 115.151367188 -47.9990234375 c 0
 127.380859375 -59.9990234375 148.163085938 -65.9990234375 177.49609375 -65.9990234375 c 0
 204.163085938 -65.9990234375 225.89453125 -60.666015625 242.689453125 -49.9990234375 c 0
 259.485351562 -39.33203125 270.115234375 -24.33203125 274.579101562 -4.9990234375 c 0
 280.120117188 19.0009765625 274.01953125 37.333984375 256.276367188 50.0009765625 c 0
 238.534179688 62.66796875 206.637695312 74.66796875 160.587890625 86.0009765625 c 0
 56.3857421875 114.000976562 15.443359375 176.333984375 37.7607421875 273.000976562 c 0
 46.2255859375 309.66796875 61.998046875 341.16796875 85.0771484375 367.500976562 c 0
 108.157226562 393.833984375 137.056640625 414.333984375 171.775390625 429.000976562 c 1
 129.111328125 455.000976562 114.474609375 497.000976562 127.865234375 555.000976562 c 0
 135.098632812 586.333984375 149.857421875 614.166992188 172.142578125 638.5 c 0
 194.426757812 662.833007812 222.146484375 681.833007812 255.301757812 695.5 c 0
 288.45703125 709.166992188 325.03515625 716 365.03515625 716 c 0
 428.368164062 716 473.495117188 700.666992188 500.415039062 670 c 0
 527.334960938 639.333007812 534.71484375 597.666015625 522.555664062 544.999023438 c 1
 410.555664062 544.999023438 l 1
 415.634765625 566.999023438 412.392578125 583.999023438 400.830078125 595.999023438 c 0
 389.267578125 607.999023438 369.153320312 613.999023438 340.486328125 613.999023438 c 0
 315.153320312 613.999023438 294.29296875 608.83203125 277.907226562 598.499023438 c 0
 261.521484375 588.163085938 251.096679688 573.330078125 246.633789062 553.999023438 c 0
 241.247070312 530.666015625 247.040039062 513.166015625 264.013671875 501.499023438 c 0
 280.986328125 489.83203125 312.754882812 477.999023438 359.317382812 465.999023438 c 0
 462.853515625 437.999023438 503.616210938 376.33203125 481.606445312 280.999023438 c 0
 472.833984375 242.999023438 456.369140625 210.666015625 432.212890625 183.999023438 c 0
 408.055664062 157.33203125 379.438476562 137.33203125 346.360351562 123.999023438 c 1
 371.127929688 109.999023438 386.8828125 92.33203125 393.625 70.9990234375 c 0
 400.366210938 49.666015625 400.2734375 23.9990234375 393.34765625 -6.0009765625 c 0
 381.958007812 -55.333984375 354.377929688 -94.6669921875 310.60546875 -124 c 0
 266.833007812 -153.333007812 214.280273438 -168 152.947265625 -168 c 0
 88.947265625 -168 42.91015625 -153 14.8359375 -123 c 0
319.946289062 211.000976562 m 0
 340.486328125 226.333984375 353.989257812 248.000976562 360.454101562 276.000976562 c 0
 367.072265625 304.66796875 363.612304688 326.500976562 350.076171875 341.500976562 c 0
 336.5390625 356.500976562 313.4375 364.000976562 280.770507812 364.000976562 c 0
 247.436523438 364.000976562 220.372070312 356.500976562 199.576171875 341.500976562 c 0
 178.779296875 326.500976562 165.072265625 304.66796875 158.454101562 276.000976562 c 0
 151.989257812 248.000976562 155.654296875 226.333984375 169.447265625 211.000976562 c 0
 183.240234375 195.66796875 206.803710938 188.000976562 240.13671875 188.000976562 c 0
 272.803710938 188.000976562 299.40625 195.66796875 319.946289062 211.000976562 c 0
EndSplineSet
EndChar

StartChar: dieresis
Encoding: 168 168 106
Width: 500
GlyphClass: 2
Flags: MW
HStem: 587 116<160.033 240.253 133.253 267.033 160.033 362.253 389.033 469.253>
LayerCount: 2
Fore
SplineSet
160.033203125 703 m 1
 267.033203125 703 l 1
 240.252929688 587 l 1
 133.252929688 587 l 1
 160.033203125 703 l 1
389.033203125 703 m 1
 496.033203125 703 l 1
 469.252929688 587 l 1
 362.252929688 587 l 1
 389.033203125 703 l 1
EndSplineSet
EndChar

StartChar: copyright
Encoding: 169 169 107
Width: 784
GlyphClass: 2
Flags: MW
HStem: -9 77<287.767 344.99> 148 79<356.807 371.901> 456 79.999<411.144 432.008> 617 76<438.392 495.846>
LayerCount: 2
Fore
SplineSet
140.313476562 35 m 0
 95.4189453125 64.3330078125 65.08984375 105.5 49.326171875 158.5 c 0
 33.5615234375 211.5 33.68359375 272.666992188 49.6904296875 342 c 0
 65.8505859375 412 94.048828125 473.5 134.28515625 526.5 c 0
 174.521484375 579.5 223.8203125 620.5 282.181640625 649.5 c 0
 340.543945312 678.5 404.05859375 693 472.725585938 693 c 0
 541.392578125 693 598.173828125 678.333007812 643.068359375 649 c 0
 687.963867188 619.666992188 718.291992188 578.5 734.056640625 525.5 c 0
 749.8203125 472.5 749.69921875 411.333007812 733.692382812 342 c 0
 717.685546875 272.666992188 689.563476562 211.5 649.328125 158.5 c 0
 609.091796875 105.5 559.754882812 64.3330078125 501.315429688 35 c 0
 442.875976562 5.6669921875 379.323242188 -9 310.65625 -9 c 0
 241.989257812 -9 185.208007812 5.6669921875 140.313476562 35 c 0
536.901367188 141.5 m 0
 594.546875 190.5 633.143554688 257.333007812 652.690429688 342 c 0
 672.237304688 426.666992188 664.538085938 493.666992188 629.594726562 543 c 0
 594.651367188 592.333007812 536.512695312 617 455.1796875 617 c 0
 373.846679688 617 304.319335938 592.333007812 246.596679688 543 c 0
 188.874023438 493.666992188 150.239257812 426.666992188 130.692382812 342 c 0
 111.145507812 257.333007812 118.8828125 190.5 153.903320312 141.5 c 0
 188.923828125 92.5 247.100585938 68 328.43359375 68 c 0
 409.766601562 68 479.255859375 92.5 536.901367188 141.5 c 0
236.559570312 192 m 0
 213.665039062 221.333007812 208.6796875 263.999023438 221.608398438 319.999023438 c 2
 231.766601562 363.999023438 l 2
 244.6953125 419.999023438 269.37890625 462.666015625 305.818359375 491.999023438 c 0
 342.256835938 521.33203125 385.810546875 535.999023438 436.477539062 535.999023438 c 0
 486.477539062 535.999023438 523.129882812 523.666015625 546.435546875 498.999023438 c 0
 569.740234375 474.33203125 576.467773438 440.665039062 566.6171875 397.999023438 c 2
 565.462890625 392.999023438 l 1
 478.462890625 392.999023438 l 1
 479.155273438 395.999023438 l 2
 483.46484375 414.666015625 480.3515625 429.333007812 469.814453125 440 c 0
 459.276367188 450.666992188 443.0078125 456 421.0078125 456 c 0
 395.0078125 456 373.6484375 448.666992188 356.928710938 434 c 0
 340.209960938 419.333007812 328.079101562 395.666015625 320.537109375 363 c 2
 310.610351562 320 l 2
 303.068359375 287.333007812 304.4375 263.666015625 314.71875 249 c 0
 324.999023438 234.333007812 343.473632812 227 370.140625 227 c 0
 391.473632812 227 409.666015625 232.166992188 424.71875 242.5 c 0
 439.771484375 252.833007812 449.375 267 453.530273438 285 c 2
 454.223632812 288 l 1
 541.223632812 288 l 1
 540.530273438 285 l 2
 530.6796875 242.333007812 508.446289062 208.833007812 473.828125 184.5 c 0
 439.2109375 160.166992188 396.901367188 148 346.901367188 148 c 0
 296.234375 148 259.454101562 162.666992188 236.559570312 192 c 0
EndSplineSet
EndChar

StartChar: ordfeminine
Encoding: 170 170 108
Width: 377
GlyphClass: 2
Flags: MW
HStem: 426 70<150.084 228.245> 561 58<201.917 302.642 221.642 289.251> 682 66<249.089 265.853>
LayerCount: 2
Fore
SplineSet
392.794921875 624 m 2
 348.0078125 430 l 1
 262.0078125 430 l 1
 268.93359375 460 l 1
 253.49609375 448 238.162109375 439.333007812 222.930664062 434 c 0
 207.69921875 428.666992188 189.750976562 426 169.083984375 426 c 0
 131.083984375 426 103.829101562 435 87.3173828125 453 c 0
 70.8056640625 471 66.16796875 495.666992188 73.4013671875 527 c 0
 80.328125 557 96.265625 579.833007812 121.215820312 595.5 c 0
 146.166015625 611.166992188 179.641601562 619 221.641601562 619 c 2
 302.641601562 619 l 1
 305.180664062 630 l 2
 309.336914062 648 307.376953125 661.166992188 299.30078125 669.5 c 0
 291.224609375 677.833007812 276.51953125 682 255.186523438 682 c 0
 236.51953125 682 222.12109375 678.833007812 211.9921875 672.5 c 0
 201.861328125 666.161132812 195.719726562 658.328125 193.56640625 649 c 2
 193.104492188 647 l 1
 111.104492188 647 l 1
 111.56640625 649 l 2
 118.4921875 679 135.700195312 703 163.189453125 721 c 0
 190.677734375 739 226.755859375 748 271.422851562 748 c 0
 371.422851562 748 411.879882812 706.666992188 392.794921875 624 c 2
287.172851562 552 m 2
 289.250976562 561 l 1
 219.250976562 561 l 2
 184.583984375 561 164.865234375 550.666992188 160.09375 530 c 0
 157.631835938 519.333007812 160.208007812 511 167.822265625 505 c 0
 175.4375 499 187.912109375 496 205.245117188 496 c 0
 251.245117188 496 278.5546875 514.666992188 287.172851562 552 c 2
EndSplineSet
EndChar

StartChar: guillemotleft
Encoding: 171 171 109
Width: 582
GlyphClass: 2
Flags: W
LayerCount: 2
Fore
SplineSet
-5.3173828125 264 m 1
 302.08984375 491 l 1
 273.23046875 366 l 1
 133.682617188 264 l 1
 226.133789062 162 l 1
 197.275390625 37 l 1
 -5.3173828125 264 l 1
249.682617188 264 m 1
 557.08984375 491 l 1
 528.23046875 366 l 1
 387.682617188 264 l 1
 481.133789062 162 l 1
 452.275390625 37 l 1
 249.682617188 264 l 1
EndSplineSet
EndChar

StartChar: logicalnot
Encoding: 172 172 110
Width: 529
GlyphClass: 2
Flags: MW
HStem: 254 111<50 329.374 24.374 478>
LayerCount: 2
Fore
SplineSet
329.374023438 254 m 1
 24.3740234375 254 l 1
 50 365 l 1
 478 365 l 1
 421.4375 120 l 1
 298.4375 120 l 1
 329.374023438 254 l 1
EndSplineSet
EndChar

StartChar: uni00AD
Encoding: 173 173 111
Width: 400
GlyphClass: 2
Flags: MW
HStem: 288 115<54.7734 337.224 28.2236 363.773>
LayerCount: 2
Fore
SplineSet
54.7734375 403 m 1
 363.7734375 403 l 1
 337.223632812 288 l 1
 28.2236328125 288 l 1
 54.7734375 403 l 1
EndSplineSet
EndChar

StartChar: registered
Encoding: 174 174 112
Width: 495
GlyphClass: 2
Flags: MW
HStem: 308 39.999<221.741 251.841> 472.999 44<257.091 271.933 246.933 290.091> 562.999 44<267.711 300.711 267.711 267.711> 650.999 40<304.596 334.361>
LayerCount: 2
Fore
SplineSet
143.112304688 333 m 0
 118.626953125 349.666992188 101.602539062 372.666015625 92.0419921875 401.999023438 c 0
 82.48046875 431.33203125 81.85546875 463.999023438 90.1669921875 499.999023438 c 0
 98.478515625 535.999023438 114.1484375 568.499023438 137.176757812 597.499023438 c 0
 160.205078125 626.499023438 187.9765625 649.33203125 220.491210938 665.999023438 c 0
 253.005859375 682.666015625 286.9296875 690.999023438 322.262695312 690.999023438 c 0
 358.262695312 690.999023438 388.671875 682.666015625 413.491210938 665.999023438 c 0
 438.310546875 649.33203125 455.5 626.33203125 465.061523438 596.999023438 c 0
 474.622070312 567.665039062 475.32421875 535.33203125 467.166992188 500 c 0
 458.85546875 464 443.147460938 431.333007812 420.041992188 402 c 0
 396.9375 372.666992188 369.126953125 349.666992188 336.612304688 333 c 0
 304.09765625 316.333007812 269.840820312 308 233.840820312 308 c 0
 197.840820312 308 167.59765625 316.333007812 143.112304688 333 c 0
358.385742188 390.499023438 m 0
 391.926757812 418.83203125 413.853515625 455.33203125 424.166015625 499.999023438 c 0
 434.478515625 544.666015625 429.19921875 580.999023438 408.331054688 608.999023438 c 0
 387.461914062 636.999023438 355.694335938 650.999023438 313.02734375 650.999023438 c 0
 270.360351562 650.999023438 232.127929688 636.999023438 198.331054688 608.999023438 c 0
 164.533203125 580.999023438 142.478515625 544.666015625 132.166015625 499.999023438 c 0
 121.853515625 455.33203125 127.09375 418.83203125 147.885742188 390.499023438 c 0
 168.677734375 362.166015625 200.407226562 347.999023438 243.07421875 347.999023438 c 0
 286.407226562 347.999023438 324.844726562 362.166015625 358.385742188 390.499023438 c 0
225.869140625 606.999023438 m 1
 313.869140625 606.999023438 l 2
 338.536132812 606.999023438 356.227539062 601.33203125 366.944335938 589.999023438 c 0
 377.66015625 578.663085938 380.556640625 562.330078125 375.631835938 540.999023438 c 0
 369.166992188 512.999023438 352.216796875 492.999023438 324.779296875 480.999023438 c 1
 346.924804688 394.999023438 l 1
 290.924804688 394.999023438 l 1
 271.932617188 472.999023438 l 1
 246.932617188 472.999023438 l 1
 228.924804688 394.999023438 l 1
 176.924804688 394.999023438 l 1
 225.869140625 606.999023438 l 1
290.090820312 516.999023438 m 2
 308.7578125 516.999023438 319.860351562 524.666015625 323.400390625 539.999023438 c 0
 326.940429688 555.33203125 319.377929688 562.999023438 300.7109375 562.999023438 c 2
 267.7109375 562.999023438 l 1
 257.090820312 516.999023438 l 1
 290.090820312 516.999023438 l 2
EndSplineSet
EndChar

StartChar: macron
Encoding: 175 175 113
Width: 500
GlyphClass: 2
Flags: MW
HStem: 590 110<168.341 460.945 142.945 486.341>
LayerCount: 2
Fore
SplineSet
168.340820312 700 m 1
 486.340820312 700 l 1
 460.9453125 590 l 1
 142.9453125 590 l 1
 168.340820312 700 l 1
EndSplineSet
EndChar

StartChar: degree
Encoding: 176 176 114
Width: 394
GlyphClass: 2
Flags: MW
HStem: 407 75.001<218.677 225.363> 626 75<265.905 272.256>
LayerCount: 2
Fore
SplineSet
116.392578125 449 m 0
 94.857421875 477 88.9365234375 512.000976562 98.6337890625 554.000976562 c 0
 104.943359375 581.333984375 117.009765625 606.166992188 134.833007812 628.5 c 0
 152.65625 650.833007812 174.401367188 668.5 200.069335938 681.5 c 0
 225.73828125 694.5 252.23828125 701 279.571289062 701 c 0
 306.904296875 701 330.237304688 694.5 349.568359375 681.5 c 0
 368.900390625 668.5 382.489257812 650.833007812 390.333007812 628.5 c 0
 398.176757812 606.166015625 398.943359375 581.333007812 392.633789062 554.000976562 c 0
 386.323242188 526.666992188 374.05078125 501.666992188 355.818359375 479.000976562 c 0
 337.584960938 456.333984375 315.83984375 438.666992188 290.58203125 426 c 0
 265.32421875 413.333007812 239.029296875 407 211.696289062 407 c 0
 169.696289062 407 137.928710938 421 116.392578125 449 c 0
283.243164062 502.500976562 m 0
 299.399414062 516.169921875 309.862304688 533.334960938 314.6328125 554 c 0
 319.405273438 574.668945312 316.868164062 591.8359375 307.022460938 605.5 c 0
 297.177734375 619.166992188 282.255859375 626 262.255859375 626 c 0
 241.588867188 626 223.3828125 619.333007812 207.637695312 606 c 0
 191.891601562 592.6640625 181.556640625 575.331054688 176.631835938 554 c 0
 171.70703125 532.665039062 174.038085938 515.33203125 183.626953125 502.000976562 c 0
 193.215820312 488.66796875 208.34375 482.000976562 229.010742188 482.000976562 c 0
 249.010742188 482.000976562 267.087890625 488.833984375 283.243164062 502.500976562 c 0
EndSplineSet
EndChar

StartChar: plusminus
Encoding: 177 177 115
Width: 529
GlyphClass: 2
Flags: MW
HStem: -36 114<-18.2588 388.422 -44.5781 414.741> 281 114<54.9258 188.607 28.6074 214.926 54.9258 302.607 328.926 461.607>
LayerCount: 2
Fore
SplineSet
188.607421875 281 m 1
 28.607421875 281 l 1
 54.92578125 395 l 1
 214.92578125 395 l 1
 251.865234375 555 l 1
 365.865234375 555 l 1
 328.92578125 395 l 1
 487.92578125 395 l 1
 461.607421875 281 l 1
 302.607421875 281 l 1
 265.66796875 121 l 1
 151.66796875 121 l 1
 188.607421875 281 l 1
-18.2587890625 78 m 1
 414.741210938 78 l 1
 388.421875 -36 l 1
 -44.578125 -36 l 1
 -18.2587890625 78 l 1
EndSplineSet
EndChar

StartChar: uni00B2
Encoding: 178 178 116
Width: 390
GlyphClass: 2
Flags: MW
HStem: 430 89<230.554 359.007> 770 86<284.689 301.167>
LayerCount: 2
Fore
SplineSet
83.4755859375 510 m 1
 273.259765625 665 l 2
 288.54296875 676.333007812 299.890625 686.5 307.30078125 695.5 c 0
 314.711914062 704.5 319.495117188 713.666992188 321.649414062 723 c 2
 323.03515625 729 l 2
 329.345703125 756.333007812 316.833984375 770 285.500976562 770 c 0
 270.16796875 770 257.692382812 766.5 248.076171875 759.5 c 0
 238.459960938 752.5 232.190429688 742.666992188 229.265625 730 c 2
 227.880859375 724 l 1
 128.880859375 724 l 1
 130.958984375 733 l 2
 139.731445312 771 159.657226562 801 190.736328125 823 c 0
 221.815429688 845 261.022460938 856 308.35546875 856 c 0
 354.35546875 856 388.072265625 844.666992188 409.505859375 822 c 0
 430.939453125 799.333007812 437.500976562 770 429.189453125 734 c 2
 427.342773438 726 l 2
 421.801757812 702 411.786132812 681 397.297851562 663 c 0
 382.809570312 645 360.282226562 624.666992188 329.715820312 602 c 2
 230.553710938 519 l 1
 379.553710938 519 l 1
 359.006835938 430 l 1
 65.0068359375 430 l 1
 83.4755859375 510 l 1
EndSplineSet
EndChar

StartChar: uni00B3
Encoding: 179 179 117
Width: 384
GlyphClass: 2
Flags: MW
HStem: 423 84.001<221.784 226.724> 602 85<230.341 234.717 210.717 253.341> 772 84<280.024 295.63>
LayerCount: 2
Fore
SplineSet
100.931640625 453.5 m 0
 80.6259765625 473.833984375 75.015625 503.668945312 84.095703125 543.000976562 c 2
 85.9423828125 551.000976562 l 1
 178.942382812 551.000976562 l 1
 177.557617188 545.000976562 l 2
 171.708007812 519.666015625 186.451171875 506.999023438 221.784179688 507.000976562 c 0
 238.451171875 507.000976562 251.96484375 510.66796875 262.32421875 518.000976562 c 0
 272.68359375 525.333984375 279.40234375 535.666992188 282.48046875 549 c 2
 284.096679688 556 l 2
 291.176757812 586.666992188 274.716796875 602 234.716796875 602 c 2
 210.716796875 602 l 1
 230.340820312 687 l 1
 253.340820312 687 l 2
 289.340820312 687 310.341796875 700 316.344726562 726 c 2
 317.9609375 733 l 2
 323.962890625 759 311.296875 772 279.963867188 772 c 0
 247.296875 772 228.1171875 759.666992188 222.421875 735 c 2
 220.805664062 728 l 1
 128.805664062 728 l 1
 130.19140625 734 l 2
 139.42578125 774 158.928710938 804.333007812 188.700195312 825 c 0
 218.471679688 845.666992188 256.690429688 856 303.357421875 856 c 0
 347.357421875 856 379.638671875 845.666992188 400.200195312 825 c 0
 420.76171875 804.333007812 426.96484375 776.333007812 418.807617188 741 c 2
 417.19140625 734 l 2
 413.189453125 716.6640625 404.700195312 700.831054688 391.725585938 686.5 c 0
 378.748046875 672.166992188 362.002929688 661 341.490234375 653 c 1
 360.92578125 647.666992188 374.34765625 636.5 381.755859375 619.5 c 0
 389.1640625 602.5 390.098632812 582 384.557617188 558 c 2
 382.7109375 550 l 2
 373.783203125 511.333007812 352.998046875 480.5 320.35546875 457.5 c 0
 287.711914062 434.5 249.057617188 423 204.390625 423 c 0
 155.723632812 423 121.237304688 433.166992188 100.931640625 453.5 c 0
EndSplineSet
EndChar

StartChar: acute
Encoding: 180 180 118
Width: 500
GlyphClass: 2
Flags: MW
HStem: 588 133<178.483 454.189>
VStem: 178.483 275.706<588 721>
LayerCount: 2
Fore
SplineSet
317.189453125 721 m 1
 454.189453125 721 l 1
 285.483398438 588 l 1
 178.483398438 588 l 1
 317.189453125 721 l 1
EndSplineSet
EndChar

StartChar: uni00B5
Encoding: 181 181 119
Width: 572
GlyphClass: 2
Flags: MW
HStem: -156 21G<-66.2822 57.7178 -66.2822 -66.2822> -6 110<162.681 238.077> 500 20G<89.7842 213.784 213.784 213.784 429.784 553.784 553.784 553.784>
LayerCount: 2
Fore
SplineSet
89.7841796875 520 m 1
 213.784179688 520 l 1
 144.754882812 221 l 2
 135.673828125 181.666015625 137.735351562 152.333007812 150.938476562 133 c 0
 164.142578125 113.666992188 187.41015625 104 220.743164062 104 c 0
 255.41015625 104 285.295898438 114.333007812 310.400390625 135 c 0
 335.504882812 155.666992188 352.674804688 186 361.909179688 226 c 2
 429.784179688 520 l 1
 553.784179688 520 l 1
 433.733398438 0 l 1
 312.733398438 0 l 1
 325.662109375 56 l 1
 308.53125 36.6669921875 286.862304688 21.5 260.657226562 10.5 c 0
 234.451171875 -0.5 207.34765625 -6 179.34765625 -6 c 0
 146.014648438 -6 118.553710938 0.6669921875 96.96484375 14 c 1
 57.7177734375 -156 l 1
 -66.2822265625 -156 l 1
 89.7841796875 520 l 1
EndSplineSet
EndChar

StartChar: paragraph
Encoding: 182 182 120
Width: 698
GlyphClass: 2
Flags: MW
HStem: -156 21G<183.718 293.718 183.718 183.718 379.718 488.718 379.718 379.718> 590 100<465.945 551.945 465.945 465.945>
LayerCount: 2
Fore
SplineSet
280.451171875 263 m 1
 278.451171875 263 l 2
 201.118164062 263 145.594726562 281.666992188 111.880859375 319 c 0
 78.1669921875 356.333007812 69.1591796875 409 84.8583984375 477 c 0
 100.557617188 545 133.844726562 597.5 184.719726562 634.5 c 0
 235.594726562 671.5 298.69921875 690 374.032226562 690 c 2
 684.032226562 690 l 1
 488.717773438 -156 l 1
 379.717773438 -156 l 1
 551.9453125 590 l 1
 465.9453125 590 l 1
 293.717773438 -156 l 1
 183.717773438 -156 l 1
 280.451171875 263 l 1
EndSplineSet
EndChar

StartChar: periodcentered
Encoding: 183 183 121
Width: 215
GlyphClass: 2
Flags: MW
HStem: 208 142<34.5371 140.754 1.75391 173.537>
VStem: 1.75391 171.783<208 350>
LayerCount: 2
Fore
SplineSet
34.537109375 350 m 1
 173.537109375 350 l 1
 140.75390625 208 l 1
 1.75390625 208 l 1
 34.537109375 350 l 1
EndSplineSet
EndChar

StartChar: cedilla
Encoding: 184 184 122
Width: 500
GlyphClass: 2
Flags: MW
HStem: -156 169<22.7178 249.734 22.7178 249.734>
VStem: 22.7178 227.017<-156 13>
LayerCount: 2
Fore
SplineSet
148.734375 13 m 1
 249.734375 13 l 1
 141.717773438 -156 l 1
 22.7177734375 -156 l 1
 148.734375 13 l 1
EndSplineSet
EndChar

StartChar: uni00B9
Encoding: 185 185 123
Width: 285
GlyphClass: 2
Flags: MW
HStem: 693 21G<106.725 106.725>
VStem: 106.725 228.016<693 849>
LayerCount: 2
Fore
SplineSet
207.037109375 742 m 1
 106.724609375 693 l 1
 131.197265625 799 l 1
 231.740234375 849 l 1
 334.740234375 849 l 1
 238.006835938 430 l 1
 135.006835938 430 l 1
 207.037109375 742 l 1
EndSplineSet
EndChar

StartChar: ordmasculine
Encoding: 186 186 124
Width: 378
GlyphClass: 2
Flags: MW
HStem: 426 79.999<211.885 226.417> 668 79.999<253.755 268.62>
LayerCount: 2
Fore
SplineSet
100.240234375 463.5 m 0
 79.6796875 488.5 74.9384765625 524.999023438 86.0205078125 572.999023438 c 2
 93.408203125 604.999023438 l 2
 104.028320312 650.999023438 125.518554688 686.33203125 157.879882812 710.999023438 c 0
 190.2421875 735.666015625 230.088867188 747.999023438 277.421875 747.999023438 c 0
 324.754882812 747.999023438 358.908203125 735.666015625 379.879882812 710.999023438 c 0
 400.852539062 686.33203125 406.028320312 650.999023438 395.408203125 604.999023438 c 2
 388.020507812 572.999023438 l 2
 377.092773438 525.666015625 355.204101562 489.333007812 322.35546875 464 c 0
 289.5078125 438.666992188 249.75 426 203.083007812 426 c 0
 155.083007812 426 120.801757812 438.5 100.240234375 463.5 c 0
271.092773438 523.499023438 m 0
 284.786132812 535.166015625 294.171875 552 299.250976562 574 c 2
 306.408203125 605 l 2
 311.1796875 625.668945312 309.296875 641.3359375 300.758789062 652 c 0
 292.221679688 662.666992188 278.286132812 668 258.953125 668 c 0
 239.620117188 668 223.221679688 662.666992188 209.758789062 652 c 0
 196.296875 641.333007812 187.1796875 625.666015625 182.408203125 604.999023438 c 2
 175.250976562 573.999023438 l 2
 170.171875 551.999023438 171.786132812 535.166015625 180.092773438 523.499023438 c 0
 188.3984375 511.83203125 202.21875 505.999023438 221.551757812 505.999023438 c 0
 240.884765625 505.999023438 257.3984375 511.83203125 271.092773438 523.499023438 c 0
EndSplineSet
EndChar

StartChar: guillemotright
Encoding: 187 187 125
Width: 582
GlyphClass: 2
Flags: W
LayerCount: 2
Fore
SplineSet
-21.724609375 37 m 1
 7.1337890625 162 l 1
 147.682617188 264 l 1
 54.23046875 366 l 1
 83.08984375 491 l 1
 285.682617188 264 l 1
 -21.724609375 37 l 1
262.133789062 162 m 1
 401.682617188 264 l 1
 309.23046875 366 l 1
 338.08984375 491 l 1
 540.682617188 264 l 1
 233.275390625 37 l 1
 262.133789062 162 l 1
EndSplineSet
EndChar

StartChar: onequarter
Encoding: 188 188 126
Width: 859
GlyphClass: 3
Flags: MW
HStem: 0 21G<38.7334 139.733 38.7334 38.7334 612.733 612.733 612.733 715.733> 57 89<451.439 451.439 556.439 625.893 430.893 451.439 749.439 758.893> 675 21G
LayerCount: 2
Fore
SplineSet
744.186523438 695 m 1
 139.733398438 0 l 1
 38.7333984375 0 l 1
 642.186523438 695 l 1
 744.186523438 695 l 1
98.298828125 271 m 1
 170.329101562 583 l 1
 70.0166015625 534 l 1
 94.48828125 640 l 1
 195.032226562 690 l 1
 298.032226562 690 l 1
 201.298828125 271 l 1
 98.298828125 271 l 1
758.892578125 57 m 1
 728.892578125 57 l 1
 715.733398438 0 l 1
 612.733398438 0 l 1
 625.892578125 57 l 1
 430.892578125 57 l 1
 451.439453125 146 l 1
 648.466796875 419 l 1
 753.466796875 419 l 1
 556.439453125 146 l 1
 646.439453125 146 l 1
 666.755859375 234 l 1
 769.755859375 234 l 1
 749.439453125 146 l 1
 779.439453125 146 l 1
 758.892578125 57 l 1
EndSplineSet
Ligature2: "'frac' Diagonal Fractions lookup 2 subtable" one slash four
EndChar

StartChar: onehalf
Encoding: 189 189 127
Width: 882
GlyphClass: 3
Flags: MW
HStem: 0 89<623.28 751.733> 340 86<677.417 693.895> 675 21G
LayerCount: 2
Fore
SplineSet
642.186523438 695 m 1
 744.186523438 695 l 1
 139.733398438 0 l 1
 38.7333984375 0 l 1
 642.186523438 695 l 1
170.329101562 583 m 1
 70.0166015625 534 l 1
 94.48828125 640 l 1
 195.032226562 690 l 1
 298.032226562 690 l 1
 201.298828125 271 l 1
 98.298828125 271 l 1
 170.329101562 583 l 1
476.202148438 80 m 1
 665.987304688 235 l 2
 681.270507812 246.333007812 692.618164062 256.5 700.028320312 265.5 c 0
 707.439453125 274.5 712.22265625 283.666992188 714.377929688 293 c 2
 715.762695312 299 l 2
 722.073242188 326.333007812 709.561523438 340 678.228515625 340 c 0
 662.895507812 340 650.419921875 336.5 640.803710938 329.5 c 0
 631.188476562 322.5 624.91796875 312.666992188 621.993164062 300 c 2
 620.608398438 294 l 1
 521.608398438 294 l 1
 523.686523438 303 l 2
 532.458984375 341 552.384765625 371 583.463867188 393 c 0
 614.54296875 415 653.75 426 701.083007812 426 c 0
 747.083007812 426 780.799804688 414.666992188 802.233398438 392 c 0
 823.666992188 369.333007812 830.228515625 340 821.916992188 304 c 2
 820.0703125 296 l 2
 814.529296875 272 804.513671875 251 790.025390625 233 c 0
 775.533203125 215 753.005859375 194.666992188 722.442382812 172 c 2
 623.280273438 89 l 1
 772.280273438 89 l 1
 751.733398438 0 l 1
 457.733398438 0 l 1
 476.202148438 80 l 1
EndSplineSet
Ligature2: "'frac' Diagonal Fractions lookup 2 subtable" one slash two
EndChar

StartChar: threequarters
Encoding: 190 190 128
Width: 952
GlyphClass: 3
Flags: MW
HStem: 0 21G<131.734 232.734 131.734 131.734 705.734 705.734 705.734 808.734> 57 89<544.44 544.44 649.44 718.894 523.894 544.44 842.44 851.894> 264 84<167.41 190.017> 443 85<193.633 198.009 174.009 216.633> 613 84<243.316 258.922>
LayerCount: 2
Fore
SplineSet
283.647460938 298.5 m 0
 251.00390625 275.5 212.350585938 264 167.68359375 264 c 0
 119.016601562 264 84.5302734375 274.166992188 64.224609375 294.5 c 0
 43.9189453125 314.833984375 38.306640625 344.666992188 47.3876953125 384 c 2
 49.234375 392 l 1
 142.234375 392 l 1
 140.849609375 386 l 2
 135.000976562 360.666992188 149.743164062 348 185.076171875 348 c 0
 201.743164062 348 215.256835938 351.666992188 225.616210938 359 c 0
 235.9765625 366.334960938 242.694335938 376.66796875 245.772460938 390 c 2
 247.388671875 397 l 2
 254.46875 427.666992188 238.008789062 443 198.008789062 443 c 2
 174.008789062 443 l 1
 193.6328125 528 l 1
 216.6328125 528 l 2
 252.6328125 528 273.633789062 541 279.63671875 567 c 2
 281.251953125 574 l 2
 287.254882812 600 274.588867188 613 243.255859375 613 c 0
 210.588867188 613 191.409179688 600.666992188 185.713867188 576 c 2
 184.09765625 569 l 1
 92.09765625 569 l 1
 93.4833984375 575 l 2
 102.717773438 615 122.220703125 645.333007812 151.9921875 666 c 0
 181.763671875 686.666992188 219.982421875 697 266.649414062 697 c 0
 310.649414062 697 342.930664062 686.666992188 363.4921875 666 c 0
 384.053710938 645.333007812 390.256835938 617.333007812 382.099609375 582 c 2
 380.483398438 575 l 2
 376.481445312 557.666992188 367.955078125 541.666992188 354.901367188 527 c 0
 341.84765625 512.333007812 325.140625 501.333007812 304.782226562 494 c 1
 324.217773438 488.666992188 337.639648438 477.5 345.047851562 460.5 c 0
 352.456054688 443.5 353.390625 423 347.849609375 399 c 2
 346.002929688 391 l 2
 337.075195312 352.333007812 316.290039062 321.5 283.647460938 298.5 c 0
837.1875 695 m 1
 232.734375 0 l 1
 131.734375 0 l 1
 735.1875 695 l 1
 837.1875 695 l 1
851.893554688 57 m 1
 821.893554688 57 l 1
 808.734375 0 l 1
 705.734375 0 l 1
 718.893554688 57 l 1
 523.893554688 57 l 1
 544.440429688 146 l 1
 741.467773438 419 l 1
 846.467773438 419 l 1
 649.440429688 146 l 1
 739.440429688 146 l 1
 759.756835938 234 l 1
 862.756835938 234 l 1
 842.440429688 146 l 1
 872.440429688 146 l 1
 851.893554688 57 l 1
EndSplineSet
Ligature2: "'frac' Diagonal Fractions lookup 2 subtable" three slash four
EndChar

StartChar: questiondown
Encoding: 191 191 129
Width: 500
GlyphClass: 2
Flags: MW
HStem: -166 112<145.599 177.266 145.599 204.408> 392 128<228.784 330.233 199.233 359.784>
LayerCount: 2
Fore
SplineSet
228.784179688 520 m 1
 359.784179688 520 l 1
 330.233398438 392 l 1
 199.233398438 392 l 1
 228.784179688 520 l 1
-18.625 -118.5 m 0
 -50.646484375 -86.8330078125 -60.2705078125 -43.33203125 -47.49609375 12.0009765625 c 0
 -41.185546875 39.333984375 -30.2216796875 65.1669921875 -14.6044921875 89.5 c 0
 1.013671875 113.833007812 24.1826171875 137.666015625 54.90234375 160.999023438 c 2
 115.75390625 207.999023438 l 2
 137.6015625 224.666015625 153.102539062 239.833007812 162.2578125 253.499023438 c 0
 171.413085938 267.166015625 178.607421875 285.333007812 183.840820312 308 c 2
 187.765625 325 l 1
 311.765625 325 l 1
 304.377929688 293 l 2
 296.681640625 259.666992188 286.640625 233.5 274.25390625 214.5 c 0
 261.868164062 195.5 240.725585938 174.666992188 210.825195312 152 c 2
 152.435546875 107 l 2
 129.920898438 90.3330078125 113.497070312 75.5 103.162109375 62.5 c 0
 92.828125 49.5 85.890625 35.3330078125 82.3505859375 20 c 0
 76.8095703125 -4 80.744140625 -22.3330078125 94.15234375 -35 c 0
 107.561523438 -47.6669921875 129.932617188 -54 161.265625 -54 c 0
 193.265625 -54 218.3046875 -47.3330078125 236.3828125 -34 c 0
 254.4609375 -20.6669921875 266.911132812 -0.6669921875 273.734375 26 c 1
 394.734375 26 l 1
 362.516601562 -102 275.408203125 -166 133.408203125 -166 c 0
 64.0751953125 -166 13.3974609375 -150.166992188 -18.625 -118.5 c 0
EndSplineSet
EndChar

StartChar: Agrave
Encoding: 192 192 130
Width: 681
GlyphClass: 2
Flags: MW
HStem: 0 21G<-80.2666 59.7334 -80.2666 -80.2666 452.733 452.733 452.733 592.733> 134 109<206.834 417.834 206.834 433.67 140.67 417.834> 670 20G<362.032 469.032 469.032 469.032>
LayerCount: 2
Fore
SplineSet
433.669921875 134 m 1
 140.669921875 134 l 1
 59.7333984375 0 l 1
 -80.2666015625 0 l 1
 362.032226562 690 l 1
 469.032226562 690 l 1
 592.733398438 0 l 1
 452.733398438 0 l 1
 433.669921875 134 l 1
417.833984375 243 m 1
 376.708007812 524 l 1
 206.833984375 243 l 1
 417.833984375 243 l 1
281.436523438 891 m 1
 430.436523438 891 l 1
 519.731445312 758 l 1
 407.731445312 758 l 1
 281.436523438 891 l 1
EndSplineSet
EndChar

StartChar: Aacute
Encoding: 193 193 131
Width: 681
GlyphClass: 2
Flags: MW
HStem: 0 21G<-80.2666 59.7334 -80.2666 -80.2666 452.733 452.733 452.733 592.733> 134 109<206.834 417.834 206.834 433.67 140.67 417.834> 670 20G<362.032 469.032 469.032 469.032>
LayerCount: 2
Fore
SplineSet
433.669921875 134 m 1
 140.669921875 134 l 1
 59.7333984375 0 l 1
 -80.2666015625 0 l 1
 362.032226562 690 l 1
 469.032226562 690 l 1
 592.733398438 0 l 1
 452.733398438 0 l 1
 433.669921875 134 l 1
417.833984375 243 m 1
 376.708007812 524 l 1
 206.833984375 243 l 1
 417.833984375 243 l 1
459.436523438 891 m 1
 608.436523438 891 l 1
 420.731445312 758 l 1
 308.731445312 758 l 1
 459.436523438 891 l 1
EndSplineSet
EndChar

StartChar: Acircumflex
Encoding: 194 194 132
Width: 681
GlyphClass: 2
Flags: MW
HStem: 0 21G<-80.2666 59.7334 -80.2666 -80.2666 452.733 452.733 452.733 592.733> 134 109<206.834 417.834 206.834 433.67 140.67 417.834> 670 20G<362.032 469.032 469.032 469.032>
LayerCount: 2
Fore
SplineSet
433.669921875 134 m 1
 140.669921875 134 l 1
 59.7333984375 0 l 1
 -80.2666015625 0 l 1
 362.032226562 690 l 1
 469.032226562 690 l 1
 592.733398438 0 l 1
 452.733398438 0 l 1
 433.669921875 134 l 1
417.833984375 243 m 1
 376.708007812 524 l 1
 206.833984375 243 l 1
 417.833984375 243 l 1
418.052734375 898 m 1
 509.052734375 898 l 1
 609.19140625 747 l 1
 505.19140625 747 l 1
 447.661132812 827 l 1
 352.19140625 747 l 1
 248.19140625 747 l 1
 418.052734375 898 l 1
EndSplineSet
EndChar

StartChar: Atilde
Encoding: 195 195 133
Width: 681
GlyphClass: 2
Flags: MW
HStem: 0 21G<-80.2666 59.7334 -80.2666 -80.2666 452.733 452.733 452.733 592.733> 134 109<206.834 417.834 206.834 433.67 140.67 417.834> 670 20G<362.032 469.032 469.032 469.032> 753 93.999<491.244 534.279> 791.001 93.998<358.35 400.385>
LayerCount: 2
Fore
SplineSet
433.669921875 134 m 1xe0
 140.669921875 134 l 1
 59.7333984375 0 l 1
 -80.2666015625 0 l 1
 362.032226562 690 l 1
 469.032226562 690 l 1
 592.733398438 0 l 1
 452.733398438 0 l 1
 433.669921875 134 l 1xe0
417.833984375 243 m 1
 376.708007812 524 l 1
 206.833984375 243 l 1
 417.833984375 243 l 1
291.35546875 843 m 1
 310.89453125 858.333007812 328.229492188 869.166015625 343.359375 875.499023438 c 0
 358.48828125 881.83203125 375.051757812 884.999023438 393.051757812 884.999023438 c 0xe8
 407.71875 884.999023438 420.333984375 883.33203125 430.897460938 879.999023438 c 0
 441.4609375 876.666015625 453.306640625 871.666015625 466.434570312 864.999023438 c 0
 478.384765625 858.999023438 488.678710938 854.499023438 497.318359375 851.499023438 c 0
 505.959960938 848.499023438 515.946289062 846.999023438 527.279296875 846.999023438 c 0
 541.279296875 846.999023438 554.600585938 849.83203125 567.241210938 855.499023438 c 0
 579.883789062 861.166015625 597.640625 871.666015625 620.512695312 886.999023438 c 1
 599.2734375 794.999023438 l 1
 579.731445312 779.66015625 562.397460938 768.827148438 547.270507812 762.5 c 0
 532.140625 756.166992188 515.91015625 753 498.577148438 753 c 0xf0
 483.91015625 753 471.333007812 754.833007812 460.846679688 758.5 c 0
 450.36328125 762.178710938 438.22265625 767.345703125 424.426757812 774.000976562 c 0
 422.5859375 774.69140625 417.752929688 776.858398438 409.926757812 780.500976562 c 0
 402.111328125 784.19140625 394.559570312 786.858398438 387.272460938 788.500976562 c 0
 379.991210938 790.16796875 372.682617188 791.000976562 365.349609375 791.000976562 c 0xe8
 351.349609375 791.000976562 337.696289062 788.16796875 324.387695312 782.500976562 c 0
 311.079101562 776.833984375 293.065429688 766.666992188 270.345703125 752 c 1
 291.35546875 843 l 1
EndSplineSet
EndChar

StartChar: Adieresis
Encoding: 196 196 134
Width: 681
GlyphClass: 2
Flags: MW
HStem: 0 21G<-80.2666 59.7334 -80.2666 -80.2666 452.733 452.733 452.733 592.733> 134 109<206.834 417.834 206.834 433.67 140.67 417.834> 670 20G<362.032 469.032 469.032 469.032> 757 116<289.281 369.5 262.5 396.281 289.281 492.5 519.281 599.5>
LayerCount: 2
Fore
SplineSet
433.669921875 134 m 1
 140.669921875 134 l 1
 59.7333984375 0 l 1
 -80.2666015625 0 l 1
 362.032226562 690 l 1
 469.032226562 690 l 1
 592.733398438 0 l 1
 452.733398438 0 l 1
 433.669921875 134 l 1
417.833984375 243 m 1
 376.708007812 524 l 1
 206.833984375 243 l 1
 417.833984375 243 l 1
289.28125 873 m 1
 396.28125 873 l 1
 369.5 757 l 1
 262.5 757 l 1
 289.28125 873 l 1
519.28125 873 m 1
 626.28125 873 l 1
 599.5 757 l 1
 492.5 757 l 1
 519.28125 873 l 1
EndSplineSet
EndChar

StartChar: Aring
Encoding: 197 197 135
Width: 681
GlyphClass: 2
Flags: MW
HStem: 0.00292969 21G<-80.2666 59.7334 -80.2666 -80.2666> 134.003 109<140.67 417.835> 827.003 54.998<445.693 454.329>
LayerCount: 2
Fore
SplineSet
433.669921875 134 m 1
 140.669921875 134.002929688 l 1
 59.7333984375 0.0029296875 l 1
 -80.2666015625 0.0029296875 l 1
 361.801757812 689.002929688 l 1
 348.624023438 698.3359375 339.470703125 710.668945312 334.34375 726.001953125 c 0
 329.216796875 741.334960938 328.885742188 758.66796875 333.348632812 778.000976562 c 0
 340.274414062 808.000976562 355.840820312 832.833984375 380.048828125 852.500976562 c 0
 404.255859375 872.16796875 431.026367188 882.000976562 460.359375 882.000976562 c 0
 489.692382812 882.000976562 511.921875 872.16796875 527.048828125 852.500976562 c 0
 542.174804688 832.833984375 546.274414062 808.000976562 539.348632812 778.000976562 c 0
 534.885742188 758.66796875 526.345703125 741.16796875 513.728515625 725.500976562 c 0
 501.111328125 709.833984375 486.134765625 697.666992188 468.801757812 689 c 1
 592.733398438 0 l 1
 452.733398438 0 l 1
 433.669921875 134 l 1
411.4296875 813.002929688 m 0
 400.608398438 803.669921875 393.581054688 792.002929688 390.349609375 778.002929688 c 0
 387.270507812 764.666992188 389.154296875 753.333984375 396 744.00390625 c 0
 402.845703125 734.670898438 412.600585938 730.00390625 425.267578125 730.00390625 c 0
 438.600585938 730.00390625 450.845703125 734.670898438 462 744.00390625 c 0
 473.154296875 753.336914062 480.271484375 764.669921875 483.349609375 778.002929688 c 0
 486.581054688 792.002929688 484.775390625 803.669921875 477.9296875 813.002929688 c 0
 471.083984375 822.3359375 460.995117188 827.002929688 447.662109375 827.002929688 c 0
 434.329101562 827.002929688 422.250976562 822.3359375 411.4296875 813.002929688 c 0
417.834960938 243.002929688 m 1
 376.708984375 524.002929688 l 1
 206.834960938 243.002929688 l 1
 417.834960938 243.002929688 l 1
EndSplineSet
EndChar

StartChar: AE
Encoding: 198 198 136
Width: 995
GlyphClass: 2
Flags: MW
HStem: 0 114<545.052 875.733> 141 109<261.45 419.285 176.285 444.45> 291 114<612.234 891.916 585.916 918.234> 576 114<651.713 651.713 651.713 1008.71>
LayerCount: 2
Fore
SplineSet
651.712890625 576 m 1
 612.234375 405 l 1
 918.234375 405 l 1
 891.916015625 291 l 1
 585.916015625 291 l 1
 545.051757812 114 l 1
 902.051757812 114 l 1
 875.733398438 0 l 1
 386.733398438 0 l 1
 419.28515625 141 l 1
 176.28515625 141 l 1
 65.7333984375 0 l 1
 -80.2666015625 0 l 1
 478.032226562 690 l 1
 1035.03222656 690 l 1
 1008.71289062 576 l 1
 651.712890625 576 l 1
444.450195312 250 m 1
 520.63671875 580 l 1
 261.450195312 250 l 1
 444.450195312 250 l 1
EndSplineSet
EndChar

StartChar: Ccedilla
Encoding: 199 199 137
Width: 673
GlyphClass: 2
Flags: MW
HStem: -156 21G<114.719 233.719 114.719 114.719> 588 115<381.7 424.484>
LayerCount: 2
Fore
SplineSet
518.701171875 459 m 1
 519.625976562 463 l 2
 528.552734375 501.666992188 522.594726562 532.166992188 501.750976562 554.5 c 0
 480.90625 576.833007812 447.484375 588 401.484375 588 c 0
 346.817382812 588 302.291015625 572 267.903320312 540 c 0
 233.514648438 508 208.702148438 459 193.46484375 393 c 2
 170.609375 294 l 2
 155.987304688 230.666992188 158.803710938 183.666992188 179.056640625 153 c 0
 199.309570312 122.333007812 236.76953125 107 291.436523438 107 c 0
 337.436523438 107 375.770507812 117.833007812 406.440429688 139.5 c 0
 437.109375 161.166992188 456.830078125 191 465.602539062 229 c 2
 466.756835938 234 l 1
 596.756835938 234 l 1
 595.602539062 229 l 2
 580.51953125 163.666992188 549.450195312 110.666992188 502.39453125 70 c 0
 455.338867188 29.3330078125 397.657226562 4 329.348632812 -6 c 1
 233.71875 -156 l 1
 114.71875 -156 l 1
 223.65625 -9 l 1
 144.528320312 -2.3330078125 88.44140625 26.1669921875 55.39453125 76.5 c 0
 22.34765625 126.833007812 16.5986328125 198.666015625 38.146484375 291.999023438 c 2
 63.080078125 399.999023438 l 2
 86.3212890625 500.666015625 129.790039062 576.333007812 193.487304688 627 c 0
 257.184570312 677.666992188 335.366210938 703 428.033203125 703 c 0
 512.700195312 703 575.390625 682.166992188 616.104492188 640.5 c 0
 656.817382812 598.833007812 668.6328125 541 651.548828125 467 c 2
 649.701171875 459 l 1
 518.701171875 459 l 1
EndSplineSet
EndChar

StartChar: Egrave
Encoding: 200 200 138
Width: 587
GlyphClass: 2
Flags: MW
HStem: 0 114<132.052 467.733> 291 114<199.234 483.916 172.916 510.234> 576 114<238.713 238.713 238.713 600.713>
LayerCount: 2
Fore
SplineSet
238.712890625 576 m 1
 199.234375 405 l 1
 510.234375 405 l 1
 483.916015625 291 l 1
 172.916015625 291 l 1
 132.051757812 114 l 1
 494.051757812 114 l 1
 467.733398438 0 l 1
 -25.2666015625 0 l 1
 134.032226562 690 l 1
 627.032226562 690 l 1
 600.712890625 576 l 1
 238.712890625 576 l 1
241.436523438 891 m 1
 390.436523438 891 l 1
 479.731445312 758 l 1
 367.731445312 758 l 1
 241.436523438 891 l 1
EndSplineSet
EndChar

StartChar: Eacute
Encoding: 201 201 139
Width: 587
GlyphClass: 2
Flags: MW
HStem: 0 114<132.052 467.733> 291 114<199.234 483.916 172.916 510.234> 576 114<238.713 238.713 238.713 600.713>
LayerCount: 2
Fore
SplineSet
238.712890625 576 m 1
 199.234375 405 l 1
 510.234375 405 l 1
 483.916015625 291 l 1
 172.916015625 291 l 1
 132.051757812 114 l 1
 494.051757812 114 l 1
 467.733398438 0 l 1
 -25.2666015625 0 l 1
 134.032226562 690 l 1
 627.032226562 690 l 1
 600.712890625 576 l 1
 238.712890625 576 l 1
457.436523438 891 m 1
 606.436523438 891 l 1
 418.731445312 758 l 1
 306.731445312 758 l 1
 457.436523438 891 l 1
EndSplineSet
EndChar

StartChar: Ecircumflex
Encoding: 202 202 140
Width: 587
GlyphClass: 2
Flags: MW
HStem: 0 114<132.052 467.733> 291 114<199.234 483.916 172.916 510.234> 576 114<238.713 238.713 238.713 600.713>
LayerCount: 2
Fore
SplineSet
238.712890625 576 m 1
 199.234375 405 l 1
 510.234375 405 l 1
 483.916015625 291 l 1
 172.916015625 291 l 1
 132.051757812 114 l 1
 494.051757812 114 l 1
 467.733398438 0 l 1
 -25.2666015625 0 l 1
 134.032226562 690 l 1
 627.032226562 690 l 1
 600.712890625 576 l 1
 238.712890625 576 l 1
378.052734375 898 m 1
 469.052734375 898 l 1
 569.19140625 747 l 1
 465.19140625 747 l 1
 407.661132812 827 l 1
 312.19140625 747 l 1
 208.19140625 747 l 1
 378.052734375 898 l 1
EndSplineSet
EndChar

StartChar: Edieresis
Encoding: 203 203 141
Width: 587
GlyphClass: 2
Flags: MW
HStem: 0 114<132.052 467.733> 291 114<199.234 483.916 172.916 510.234> 576 114<238.713 238.713 238.713 600.713> 757 116<249.281 329.5 222.5 356.281 249.281 452.5 479.281 559.5>
LayerCount: 2
Fore
SplineSet
238.712890625 576 m 1
 199.234375 405 l 1
 510.234375 405 l 1
 483.916015625 291 l 1
 172.916015625 291 l 1
 132.051757812 114 l 1
 494.051757812 114 l 1
 467.733398438 0 l 1
 -25.2666015625 0 l 1
 134.032226562 690 l 1
 627.032226562 690 l 1
 600.712890625 576 l 1
 238.712890625 576 l 1
249.28125 873 m 1
 356.28125 873 l 1
 329.5 757 l 1
 222.5 757 l 1
 249.28125 873 l 1
479.28125 873 m 1
 586.28125 873 l 1
 559.5 757 l 1
 452.5 757 l 1
 479.28125 873 l 1
EndSplineSet
EndChar

StartChar: Igrave
Encoding: 204 204 142
Width: 261
GlyphClass: 2
Flags: MW
HStem: 0 21G<-19.2666 111.733 -19.2666 -19.2666> 670 20G<140.032 271.032 271.032 271.032>
VStem: -19.2666 327.998
LayerCount: 2
Fore
SplineSet
140.032226562 690 m 1
 271.032226562 690 l 1
 111.733398438 0 l 1
 -19.2666015625 0 l 1
 140.032226562 690 l 1
70.4365234375 891 m 1
 219.436523438 891 l 1
 308.731445312 758 l 1
 196.731445312 758 l 1
 70.4365234375 891 l 1
EndSplineSet
EndChar

StartChar: Iacute
Encoding: 205 205 143
Width: 261
GlyphClass: 2
Flags: MW
HStem: 0 21G<-19.2666 111.733 -19.2666 -19.2666> 670 20G<140.032 271.032 271.032 271.032>
LayerCount: 2
Fore
SplineSet
140.032226562 690 m 1
 271.032226562 690 l 1
 111.733398438 0 l 1
 -19.2666015625 0 l 1
 140.032226562 690 l 1
286.436523438 891 m 1
 435.436523438 891 l 1
 247.731445312 758 l 1
 135.731445312 758 l 1
 286.436523438 891 l 1
EndSplineSet
EndChar

StartChar: Icircumflex
Encoding: 206 206 144
Width: 261
GlyphClass: 2
Flags: MW
HStem: 0 21G<-19.2666 111.733 -19.2666 -19.2666> 670 20G<140.032 271.032 271.032 271.032>
LayerCount: 2
Fore
SplineSet
140.032226562 690 m 1
 271.032226562 690 l 1
 111.733398438 0 l 1
 -19.2666015625 0 l 1
 140.032226562 690 l 1
207.052734375 898 m 1
 298.052734375 898 l 1
 398.19140625 747 l 1
 294.19140625 747 l 1
 236.661132812 827 l 1
 141.19140625 747 l 1
 37.19140625 747 l 1
 207.052734375 898 l 1
EndSplineSet
EndChar

StartChar: Idieresis
Encoding: 207 207 145
Width: 261
GlyphClass: 2
Flags: MW
HStem: 0 21G<-19.2666 111.733 -19.2666 -19.2666> 670 20G<140.032 271.032 271.032 271.032> 757 116<78.2812 158.5 51.5 185.281 78.2812 281.5 308.281 388.5>
LayerCount: 2
Fore
SplineSet
140.032226562 690 m 1
 271.032226562 690 l 1
 111.733398438 0 l 1
 -19.2666015625 0 l 1
 140.032226562 690 l 1
78.28125 873 m 1
 185.28125 873 l 1
 158.5 757 l 1
 51.5 757 l 1
 78.28125 873 l 1
308.28125 873 m 1
 415.28125 873 l 1
 388.5 757 l 1
 281.5 757 l 1
 308.28125 873 l 1
EndSplineSet
EndChar

StartChar: Eth
Encoding: 208 208 146
Width: 694
GlyphClass: 2
Flags: MW
HStem: 0 114.002<164.052 270.733> 294.002 115<232.157 362.607 205.607 389.157> 576.002 113.998<270.713 407.713 270.713 270.713>
LayerCount: 2
Fore
SplineSet
631.448242188 616 m 0
 670.391601562 566.666992188 678.01171875 490.66796875 654.309570312 388.000976562 c 2
 634.685546875 303.000976562 l 2
 610.982421875 200.333984375 567.731445312 124.166992188 504.931640625 74.5 c 0
 442.131835938 24.8330078125 364.06640625 0 270.733398438 0 c 2
 6.7333984375 0 l 1
 74.6083984375 294 l 1
 10.6083984375 294 l 1
 37.158203125 409 l 1
 101.158203125 409 l 1
 166.032226562 690 l 1
 435.032226562 690 l 2
 527.032226562 690 592.50390625 665.333007812 631.448242188 616 c 0
521.693359375 381.000976562 m 2
 537.392578125 449.000976562 535.8203125 498.501953125 516.977539062 529.501953125 c 0
 498.133789062 560.501953125 461.712890625 576.001953125 407.712890625 576.001953125 c 2
 270.712890625 576.001953125 l 1
 232.157226562 409.001953125 l 1
 389.157226562 409.001953125 l 1
 362.607421875 294.001953125 l 1
 205.607421875 294.001953125 l 1
 164.051757812 114.001953125 l 1
 301.051757812 114.001953125 l 2
 355.051757812 114.001953125 398.552734375 129.168945312 431.555664062 159.501953125 c 0
 464.55859375 189.834960938 488.602539062 237.66796875 503.685546875 303.000976562 c 2
 521.693359375 381.000976562 l 2
EndSplineSet
EndChar

StartChar: Ntilde
Encoding: 209 209 147
Width: 699
GlyphClass: 2
Flags: MW
HStem: 0 21G<-25.2666 105.733 -25.2666 -25.2666 424.733 555.733 424.733 424.733> 670 20G<134.032 265.032 265.032 265.032 584.032 715.032 715.032 715.032> 753 93.999<500.243 543.278> 791.001 93.998<367.35 409.384>
LayerCount: 2
Fore
SplineSet
715.032226562 690 m 1xc0
 555.733398438 0 l 1
 424.733398438 0 l 1
 211.240234375 457 l 1
 105.733398438 0 l 1
 -25.2666015625 0 l 1
 134.032226562 690 l 1
 265.032226562 690 l 1
 478.294921875 232 l 1
 584.032226562 690 l 1
 715.032226562 690 l 1xc0
300.35546875 843 m 1
 319.89453125 858.333007812 337.228515625 869.166015625 352.358398438 875.499023438 c 0
 367.487304688 881.83203125 384.05078125 884.999023438 402.05078125 884.999023438 c 0xd0
 416.717773438 884.999023438 429.333007812 883.33203125 439.896484375 879.999023438 c 0
 450.459960938 876.666015625 462.305664062 871.666015625 475.43359375 864.999023438 c 0
 487.383789062 858.999023438 497.677734375 854.499023438 506.317382812 851.499023438 c 0
 514.958984375 848.499023438 524.9453125 846.999023438 536.278320312 846.999023438 c 0
 550.278320312 846.999023438 563.599609375 849.83203125 576.240234375 855.499023438 c 0
 588.8828125 861.166015625 606.639648438 871.666015625 629.51171875 886.999023438 c 1
 608.272460938 794.999023438 l 1
 588.73046875 779.66015625 571.396484375 768.827148438 556.26953125 762.5 c 0
 541.139648438 756.166992188 524.909179688 753 507.576171875 753 c 0xe0
 492.909179688 753 480.33203125 754.833007812 469.845703125 758.5 c 0
 459.362304688 762.178710938 447.221679688 767.345703125 433.42578125 774.000976562 c 0
 431.584960938 774.69140625 426.751953125 776.858398438 418.92578125 780.500976562 c 0
 411.110351562 784.19140625 403.55859375 786.858398438 396.272460938 788.500976562 c 0
 388.991210938 790.16796875 381.682617188 791.000976562 374.349609375 791.000976562 c 0xd0
 360.349609375 791.000976562 346.696289062 788.16796875 333.387695312 782.500976562 c 0
 320.079101562 776.833984375 302.065429688 766.666992188 279.345703125 752 c 1
 300.35546875 843 l 1
EndSplineSet
EndChar

StartChar: Ograve
Encoding: 210 210 148
Width: 673
GlyphClass: 2
Flags: MW
HStem: -11 117.999<257.101 296.86> 587.999 115.002<376.032 445.816>
LayerCount: 2
Fore
SplineSet
60.7392578125 65 m 0
 22.4365234375 115.666992188 14.9052734375 191.333007812 38.1455078125 292 c 2
 63.0791015625 400 l 2
 86.3203125 500.666992188 129.2890625 576.333984375 191.986328125 627.000976562 c 0
 254.684570312 677.66796875 331.032226562 703.000976562 421.032226562 703.000976562 c 0
 509.69921875 703.000976562 573.518554688 677.66796875 612.487304688 627.000976562 c 0
 651.45703125 576.333984375 659.321289062 500.666992188 636.080078125 400 c 2
 611.146484375 292 l 2
 588.059570312 192 544.795898438 116.5 481.354492188 65.5 c 0
 417.9140625 14.5 341.526367188 -11 252.193359375 -11 c 0
 162.860351562 -11 99.0419921875 14.3330078125 60.7392578125 65 c 0
480.607421875 293.999023438 m 2
 503.462890625 392.999023438 l 2
 533.475585938 522.999023438 497.149414062 587.999023438 394.482421875 587.999023438 c 0
 341.815429688 587.999023438 298.954101562 571.999023438 265.899414062 539.999023438 c 0
 232.844726562 507.999023438 208.69921875 458.999023438 193.461914062 392.999023438 c 2
 170.606445312 293.999023438 l 2
 155.984375 230.666015625 157.966796875 183.666015625 176.553710938 152.999023438 c 0
 195.140625 122.33203125 230.767578125 106.999023438 283.434570312 106.999023438 c 0
 386.1015625 106.999023438 451.825195312 169.33203125 480.607421875 293.999023438 c 2
282.435546875 890.999023438 m 1
 431.435546875 890.999023438 l 1
 520.73046875 757.999023438 l 1
 408.73046875 757.999023438 l 1
 282.435546875 890.999023438 l 1
EndSplineSet
EndChar

StartChar: Oacute
Encoding: 211 211 149
Width: 673
GlyphClass: 2
Flags: MW
HStem: -11 117.999<257.101 296.86> 587.999 115.002<376.032 445.816>
LayerCount: 2
Fore
SplineSet
60.7392578125 65 m 0
 22.4365234375 115.666992188 14.9052734375 191.333007812 38.1455078125 292 c 2
 63.0791015625 400 l 2
 86.3203125 500.666992188 129.2890625 576.333984375 191.986328125 627.000976562 c 0
 254.684570312 677.66796875 331.032226562 703.000976562 421.032226562 703.000976562 c 0
 509.69921875 703.000976562 573.518554688 677.66796875 612.487304688 627.000976562 c 0
 651.45703125 576.333984375 659.321289062 500.666992188 636.080078125 400 c 2
 611.146484375 292 l 2
 588.059570312 192 544.795898438 116.5 481.354492188 65.5 c 0
 417.9140625 14.5 341.526367188 -11 252.193359375 -11 c 0
 162.860351562 -11 99.0419921875 14.3330078125 60.7392578125 65 c 0
480.607421875 293.999023438 m 2
 503.462890625 392.999023438 l 2
 533.475585938 522.999023438 497.149414062 587.999023438 394.482421875 587.999023438 c 0
 341.815429688 587.999023438 298.954101562 571.999023438 265.899414062 539.999023438 c 0
 232.844726562 507.999023438 208.69921875 458.999023438 193.461914062 392.999023438 c 2
 170.606445312 293.999023438 l 2
 155.984375 230.666015625 157.966796875 183.666015625 176.553710938 152.999023438 c 0
 195.140625 122.33203125 230.767578125 106.999023438 283.434570312 106.999023438 c 0
 386.1015625 106.999023438 451.825195312 169.33203125 480.607421875 293.999023438 c 2
456.435546875 890.999023438 m 1
 605.435546875 890.999023438 l 1
 417.73046875 757.999023438 l 1
 305.73046875 757.999023438 l 1
 456.435546875 890.999023438 l 1
EndSplineSet
EndChar

StartChar: Ocircumflex
Encoding: 212 212 150
Width: 673
GlyphClass: 2
Flags: MW
HStem: -11 117.999<257.101 296.86> 587.999 115.002<376.032 445.816>
LayerCount: 2
Fore
SplineSet
60.7392578125 65 m 0
 22.4365234375 115.666992188 14.9052734375 191.333007812 38.1455078125 292 c 2
 63.0791015625 400 l 2
 86.3203125 500.666992188 129.2890625 576.333984375 191.986328125 627.000976562 c 0
 254.684570312 677.66796875 331.032226562 703.000976562 421.032226562 703.000976562 c 0
 509.69921875 703.000976562 573.518554688 677.66796875 612.487304688 627.000976562 c 0
 651.45703125 576.333984375 659.321289062 500.666992188 636.080078125 400 c 2
 611.146484375 292 l 2
 588.059570312 192 544.795898438 116.5 481.354492188 65.5 c 0
 417.9140625 14.5 341.526367188 -11 252.193359375 -11 c 0
 162.860351562 -11 99.0419921875 14.3330078125 60.7392578125 65 c 0
480.607421875 293.999023438 m 2
 503.462890625 392.999023438 l 2
 533.475585938 522.999023438 497.149414062 587.999023438 394.482421875 587.999023438 c 0
 341.815429688 587.999023438 298.954101562 571.999023438 265.899414062 539.999023438 c 0
 232.844726562 507.999023438 208.69921875 458.999023438 193.461914062 392.999023438 c 2
 170.606445312 293.999023438 l 2
 155.984375 230.666015625 157.966796875 183.666015625 176.553710938 152.999023438 c 0
 195.140625 122.33203125 230.767578125 106.999023438 283.434570312 106.999023438 c 0
 386.1015625 106.999023438 451.825195312 169.33203125 480.607421875 293.999023438 c 2
419.051757812 897.999023438 m 1
 510.051757812 897.999023438 l 1
 610.190429688 746.999023438 l 1
 506.190429688 746.999023438 l 1
 448.66015625 826.999023438 l 1
 353.190429688 746.999023438 l 1
 249.190429688 746.999023438 l 1
 419.051757812 897.999023438 l 1
EndSplineSet
EndChar

StartChar: Otilde
Encoding: 213 213 151
Width: 673
GlyphClass: 2
Flags: MW
HStem: -11 117.999<257.101 296.86> 587.999 115.002<376.032 445.816> 752.999 93.999<492.241 535.277> 791 93.998<359.349 401.383>
LayerCount: 2
Fore
SplineSet
60.7392578125 65 m 0xc0
 22.4365234375 115.666992188 14.9052734375 191.333007812 38.1455078125 292 c 2
 63.0791015625 400 l 2
 86.3203125 500.666992188 129.2890625 576.333984375 191.986328125 627.000976562 c 0
 254.684570312 677.66796875 331.032226562 703.000976562 421.032226562 703.000976562 c 0
 509.69921875 703.000976562 573.518554688 677.66796875 612.487304688 627.000976562 c 0
 651.45703125 576.333984375 659.321289062 500.666992188 636.080078125 400 c 2
 611.146484375 292 l 2
 588.059570312 192 544.795898438 116.5 481.354492188 65.5 c 0
 417.9140625 14.5 341.526367188 -11 252.193359375 -11 c 0
 162.860351562 -11 99.0419921875 14.3330078125 60.7392578125 65 c 0xc0
480.607421875 293.999023438 m 2
 503.462890625 392.999023438 l 2
 533.475585938 522.999023438 497.149414062 587.999023438 394.482421875 587.999023438 c 0
 341.815429688 587.999023438 298.954101562 571.999023438 265.899414062 539.999023438 c 0
 232.844726562 507.999023438 208.69921875 458.999023438 193.461914062 392.999023438 c 2
 170.606445312 293.999023438 l 2
 155.984375 230.666015625 157.966796875 183.666015625 176.553710938 152.999023438 c 0
 195.140625 122.33203125 230.767578125 106.999023438 283.434570312 106.999023438 c 0
 386.1015625 106.999023438 451.825195312 169.33203125 480.607421875 293.999023438 c 2
292.353515625 842.999023438 m 1
 311.893554688 858.33203125 329.227539062 869.165039062 344.356445312 875.498046875 c 0
 359.486328125 881.831054688 376.049804688 884.998046875 394.049804688 884.998046875 c 0xd0
 408.716796875 884.998046875 421.33203125 883.331054688 431.895507812 879.998046875 c 0
 442.458984375 876.665039062 454.3046875 871.665039062 467.432617188 864.998046875 c 0
 479.3828125 858.998046875 489.676757812 854.498046875 498.31640625 851.498046875 c 0
 506.95703125 848.498046875 516.944335938 846.998046875 528.27734375 846.998046875 c 0
 542.27734375 846.998046875 555.59765625 849.831054688 568.239257812 855.498046875 c 0
 580.881835938 861.165039062 598.638671875 871.665039062 621.510742188 886.998046875 c 1
 600.270507812 794.998046875 l 1
 580.729492188 779.659179688 563.395507812 768.826171875 548.267578125 762.499023438 c 0
 533.138671875 756.166015625 516.907226562 752.999023438 499.57421875 752.999023438 c 0xe0
 484.907226562 752.999023438 472.331054688 754.83203125 461.844726562 758.499023438 c 0
 451.360351562 762.177734375 439.220703125 767.344726562 425.423828125 774 c 0
 423.583984375 774.690429688 418.750976562 776.857421875 410.924804688 780.5 c 0
 403.108398438 784.190429688 395.557617188 786.857421875 388.271484375 788.5 c 0
 380.989257812 790.166992188 373.681640625 791 366.348632812 791 c 0xd0
 352.348632812 791 338.694335938 788.166992188 325.38671875 782.5 c 0
 312.078125 776.833007812 294.063476562 766.666015625 271.344726562 751.999023438 c 1
 292.353515625 842.999023438 l 1
EndSplineSet
EndChar

StartChar: Odieresis
Encoding: 214 214 152
Width: 673
GlyphClass: 2
Flags: MW
HStem: -11 117.999<257.101 296.86> 587.999 115.002<376.032 445.816> 756.999 116<290.28 370.499 263.499 397.28 290.28 493.499 520.28 600.499>
LayerCount: 2
Fore
SplineSet
60.7392578125 65 m 0
 22.4365234375 115.666992188 14.9052734375 191.333007812 38.1455078125 292 c 2
 63.0791015625 400 l 2
 86.3203125 500.666992188 129.2890625 576.333984375 191.986328125 627.000976562 c 0
 254.684570312 677.66796875 331.032226562 703.000976562 421.032226562 703.000976562 c 0
 509.69921875 703.000976562 573.518554688 677.66796875 612.487304688 627.000976562 c 0
 651.45703125 576.333984375 659.321289062 500.666992188 636.080078125 400 c 2
 611.146484375 292 l 2
 588.059570312 192 544.795898438 116.5 481.354492188 65.5 c 0
 417.9140625 14.5 341.526367188 -11 252.193359375 -11 c 0
 162.860351562 -11 99.0419921875 14.3330078125 60.7392578125 65 c 0
480.607421875 293.999023438 m 2
 503.462890625 392.999023438 l 2
 533.475585938 522.999023438 497.149414062 587.999023438 394.482421875 587.999023438 c 0
 341.815429688 587.999023438 298.954101562 571.999023438 265.899414062 539.999023438 c 0
 232.844726562 507.999023438 208.69921875 458.999023438 193.461914062 392.999023438 c 2
 170.606445312 293.999023438 l 2
 155.984375 230.666015625 157.966796875 183.666015625 176.553710938 152.999023438 c 0
 195.140625 122.33203125 230.767578125 106.999023438 283.434570312 106.999023438 c 0
 386.1015625 106.999023438 451.825195312 169.33203125 480.607421875 293.999023438 c 2
290.280273438 872.999023438 m 1
 397.280273438 872.999023438 l 1
 370.499023438 756.999023438 l 1
 263.499023438 756.999023438 l 1
 290.280273438 872.999023438 l 1
520.280273438 872.999023438 m 1
 627.280273438 872.999023438 l 1
 600.499023438 756.999023438 l 1
 493.499023438 756.999023438 l 1
 520.280273438 872.999023438 l 1
EndSplineSet
EndChar

StartChar: multiply
Encoding: 215 215 153
Width: 529
GlyphClass: 2
Flags: W
LayerCount: 2
Fore
SplineSet
20.9794921875 157 m 1
 167.453125 276 l 1
 76.1572265625 396 l 1
 169.703125 472 l 1
 262.229492188 353 l 1
 408.703125 472 l 1
 466.92578125 395 l 1
 320.453125 276 l 1
 411.979492188 157 l 1
 318.202148438 80 l 1
 226.907226562 200 l 1
 79.2021484375 80 l 1
 20.9794921875 157 l 1
EndSplineSet
EndChar

StartChar: Oslash
Encoding: 216 216 154
Width: 673
GlyphClass: 2
Flags: MW
HStem: -11.001 117.999<262.769 297.859> 587.998 115.002<377.032 415.483>
LayerCount: 2
Fore
SplineSet
637.080078125 400 m 2
 612.145507812 291.999023438 l 2
 589.05859375 191.999023438 545.794921875 116.499023438 482.353515625 65.4990234375 c 0
 418.912109375 14.4990234375 342.525390625 -11.0009765625 253.192382812 -11.0009765625 c 0
 185.859375 -11.0009765625 133.16796875 3.33203125 95.1201171875 31.9990234375 c 1
 48.1142578125 -20.0009765625 l 1
 -33.8857421875 -20.0009765625 l 1
 53.7392578125 77.9990234375 l 1
 23.078125 129.999023438 18.212890625 201.33203125 39.1455078125 291.999023438 c 2
 64.0791015625 399.999023438 l 2
 87.3203125 500.666015625 130.2890625 576.333007812 192.986328125 627 c 0
 255.68359375 677.666992188 332.032226562 703 422.032226562 703 c 0
 486.69921875 703 538.288085938 689.666992188 576.798828125 663 c 1
 623.803710938 715 l 1
 703.803710938 715 l 1
 618.87109375 620 l 1
 652.866210938 568 658.935546875 494.666992188 637.080078125 400 c 2
162.905273438 199.999023438 m 1
 484.788085938 558.998046875 l 1
 465.250976562 578.331054688 435.483398438 587.998046875 395.483398438 587.998046875 c 0
 342.81640625 587.998046875 299.955078125 571.998046875 266.900390625 539.998046875 c 0
 233.845703125 507.998046875 209.700195312 458.998046875 194.462890625 392.998046875 c 2
 171.606445312 293.998046875 l 2
 162.98828125 256.665039062 160.086914062 225.33203125 162.905273438 199.999023438 c 1
504.463867188 392.998046875 m 2
 514.16015625 434.998046875 516.8046875 470.998046875 512.397460938 500.998046875 c 1
 189.592773438 137.998046875 l 1
 209.48828125 117.331054688 241.102539062 106.998046875 284.435546875 106.998046875 c 0
 387.102539062 106.998046875 452.826171875 169.331054688 481.607421875 293.998046875 c 2
 504.463867188 392.998046875 l 2
EndSplineSet
EndChar

StartChar: Ugrave
Encoding: 217 217 155
Width: 676
GlyphClass: 2
Flags: MW
HStem: -6 113.998<254 279.348> 669.999 20G<134.033 265.033 265.033 265.033 561.032 692.032 692.032 692.032>
LayerCount: 2
Fore
SplineSet
112.504882812 25 m 0
 75.2763671875 45.6669921875 49.587890625 75.1669921875 35.4375 113.5 c 0
 21.287109375 151.833007812 20.1376953125 196.666015625 31.9892578125 247.999023438 c 2
 134.033203125 689.999023438 l 1
 265.033203125 689.999023438 l 1
 163.913085938 251.999023438 l 2
 153.138671875 205.33203125 157.571289062 169.665039062 177.209960938 144.998046875 c 0
 196.84765625 120.331054688 230.333007812 107.998046875 277.666015625 107.998046875 c 0
 324.999023438 107.998046875 364.513671875 120.331054688 396.208984375 144.998046875 c 0
 427.903320312 169.665039062 449.137695312 205.33203125 459.912109375 251.999023438 c 2
 561.032226562 689.999023438 l 1
 692.032226562 689.999023438 l 1
 589.98828125 247.999023438 l 2
 578.13671875 196.666015625 556.286132812 151.833007812 524.436523438 113.5 c 0
 492.586914062 75.1669921875 453.109375 45.6669921875 406.004882812 25 c 0
 358.900390625 4.3330078125 307.34765625 -6 251.34765625 -6 c 0
 196.014648438 -6 149.733398438 4.3330078125 112.504882812 25 c 0
278.4375 891 m 1
 427.4375 891 l 1
 516.732421875 758 l 1
 404.732421875 758 l 1
 278.4375 891 l 1
EndSplineSet
EndChar

StartChar: Uacute
Encoding: 218 218 156
Width: 676
GlyphClass: 2
Flags: MW
HStem: -6 113.998<254 279.348> 669.999 20G<134.033 265.033 265.033 265.033 561.032 692.032 692.032 692.032>
LayerCount: 2
Fore
SplineSet
112.504882812 25 m 0
 75.2763671875 45.6669921875 49.587890625 75.1669921875 35.4375 113.5 c 0
 21.287109375 151.833007812 20.1376953125 196.666015625 31.9892578125 247.999023438 c 2
 134.033203125 689.999023438 l 1
 265.033203125 689.999023438 l 1
 163.913085938 251.999023438 l 2
 153.138671875 205.33203125 157.571289062 169.665039062 177.209960938 144.998046875 c 0
 196.84765625 120.331054688 230.333007812 107.998046875 277.666015625 107.998046875 c 0
 324.999023438 107.998046875 364.513671875 120.331054688 396.208984375 144.998046875 c 0
 427.903320312 169.665039062 449.137695312 205.33203125 459.912109375 251.999023438 c 2
 561.032226562 689.999023438 l 1
 692.032226562 689.999023438 l 1
 589.98828125 247.999023438 l 2
 578.13671875 196.666015625 556.286132812 151.833007812 524.436523438 113.5 c 0
 492.586914062 75.1669921875 453.109375 45.6669921875 406.004882812 25 c 0
 358.900390625 4.3330078125 307.34765625 -6 251.34765625 -6 c 0
 196.014648438 -6 149.733398438 4.3330078125 112.504882812 25 c 0
494.4375 891 m 1
 643.4375 891 l 1
 455.732421875 758 l 1
 343.732421875 758 l 1
 494.4375 891 l 1
EndSplineSet
EndChar

StartChar: Ucircumflex
Encoding: 219 219 157
Width: 676
GlyphClass: 2
Flags: MW
HStem: -6 113.998<254 279.348> 669.999 20G<134.033 265.033 265.033 265.033 561.032 692.032 692.032 692.032>
LayerCount: 2
Fore
SplineSet
112.504882812 25 m 0
 75.2763671875 45.6669921875 49.587890625 75.1669921875 35.4375 113.5 c 0
 21.287109375 151.833007812 20.1376953125 196.666015625 31.9892578125 247.999023438 c 2
 134.033203125 689.999023438 l 1
 265.033203125 689.999023438 l 1
 163.913085938 251.999023438 l 2
 153.138671875 205.33203125 157.571289062 169.665039062 177.209960938 144.998046875 c 0
 196.84765625 120.331054688 230.333007812 107.998046875 277.666015625 107.998046875 c 0
 324.999023438 107.998046875 364.513671875 120.331054688 396.208984375 144.998046875 c 0
 427.903320312 169.665039062 449.137695312 205.33203125 459.912109375 251.999023438 c 2
 561.032226562 689.999023438 l 1
 692.032226562 689.999023438 l 1
 589.98828125 247.999023438 l 2
 578.13671875 196.666015625 556.286132812 151.833007812 524.436523438 113.5 c 0
 492.586914062 75.1669921875 453.109375 45.6669921875 406.004882812 25 c 0
 358.900390625 4.3330078125 307.34765625 -6 251.34765625 -6 c 0
 196.014648438 -6 149.733398438 4.3330078125 112.504882812 25 c 0
415.053710938 898 m 1
 506.053710938 898 l 1
 606.192382812 747 l 1
 502.192382812 747 l 1
 444.662109375 827 l 1
 349.192382812 747 l 1
 245.192382812 747 l 1
 415.053710938 898 l 1
EndSplineSet
EndChar

StartChar: Udieresis
Encoding: 220 220 158
Width: 676
GlyphClass: 2
Flags: MW
HStem: -6 113.998<254 279.348> 669.999 20G<134.033 265.033 265.033 265.033 561.032 692.032 692.032 692.032> 757 116<286.282 366.501 259.501 393.282 286.282 489.501 516.282 596.501>
LayerCount: 2
Fore
SplineSet
112.504882812 25 m 0
 75.2763671875 45.6669921875 49.587890625 75.1669921875 35.4375 113.5 c 0
 21.287109375 151.833007812 20.1376953125 196.666015625 31.9892578125 247.999023438 c 2
 134.033203125 689.999023438 l 1
 265.033203125 689.999023438 l 1
 163.913085938 251.999023438 l 2
 153.138671875 205.33203125 157.571289062 169.665039062 177.209960938 144.998046875 c 0
 196.84765625 120.331054688 230.333007812 107.998046875 277.666015625 107.998046875 c 0
 324.999023438 107.998046875 364.513671875 120.331054688 396.208984375 144.998046875 c 0
 427.903320312 169.665039062 449.137695312 205.33203125 459.912109375 251.999023438 c 2
 561.032226562 689.999023438 l 1
 692.032226562 689.999023438 l 1
 589.98828125 247.999023438 l 2
 578.13671875 196.666015625 556.286132812 151.833007812 524.436523438 113.5 c 0
 492.586914062 75.1669921875 453.109375 45.6669921875 406.004882812 25 c 0
 358.900390625 4.3330078125 307.34765625 -6 251.34765625 -6 c 0
 196.014648438 -6 149.733398438 4.3330078125 112.504882812 25 c 0
286.282226562 873 m 1
 393.282226562 873 l 1
 366.500976562 757 l 1
 259.500976562 757 l 1
 286.282226562 873 l 1
516.282226562 873 m 1
 623.282226562 873 l 1
 596.500976562 757 l 1
 489.500976562 757 l 1
 516.282226562 873 l 1
EndSplineSet
EndChar

StartChar: Yacute
Encoding: 221 221 159
Width: 608
GlyphClass: 2
Flags: MW
HStem: 0 21G<154.733 285.733 154.733 154.733> 670 20G<79.0322 227.032 227.032 227.032 531.032 679.032 679.032 679.032>
LayerCount: 2
Fore
SplineSet
351.530273438 285 m 1
 285.733398438 0 l 1
 154.733398438 0 l 1
 220.299804688 284 l 1
 79.0322265625 690 l 1
 227.032226562 690 l 1
 312.311523438 401 l 1
 531.032226562 690 l 1
 679.032226562 690 l 1
 351.530273438 285 l 1
460.436523438 891 m 1
 609.436523438 891 l 1
 421.731445312 758 l 1
 309.731445312 758 l 1
 460.436523438 891 l 1
EndSplineSet
EndChar

StartChar: Thorn
Encoding: 222 222 160
Width: 628
GlyphClass: 2
Flags: MW
HStem: 0 21G<-25.2666 105.733 -25.2666 -25.2666> 149 114<166.451 302.133 140.133 338.451> 462 114<238.713 384.395 212.395 405.713> 670 20G<134.032 265.032 265.032 265.032>
LayerCount: 2
Fore
SplineSet
574.400390625 520.5 m 0
 609.524414062 483.5 619.006835938 430 602.845703125 360 c 0
 587.454101562 293.333007812 553.654296875 241.5 501.4453125 204.5 c 0
 449.236328125 167.5 382.798828125 149 302.1328125 149 c 2
 140.1328125 149 l 1
 105.733398438 0 l 1
 -25.2666015625 0 l 1
 134.032226562 690 l 1
 265.032226562 690 l 1
 238.712890625 576 l 1
 405.712890625 576 l 2
 483.045898438 576 539.275390625 557.5 574.400390625 520.5 c 0
472.076171875 361 m 0
 479.92578125 395 476.106445312 420.333007812 460.62109375 437 c 0
 445.13671875 453.666992188 419.727539062 462 384.39453125 462 c 2
 212.39453125 462 l 1
 166.451171875 263 l 1
 338.451171875 263 l 2
 412.451171875 263 456.993164062 295.666992188 472.076171875 361 c 0
EndSplineSet
EndChar

StartChar: germandbls
Encoding: 223 223 161
Width: 577
GlyphClass: 2
Flags: MW
HStem: -4 104<217.82 217.82 217.82 239.81 193.81 217.82> 362 103<302.087 304.308 278.308 337.087> 594.001 106<328.341 363.869>
VStem: 387.34 125.121
LayerCount: 2
Fore
SplineSet
217.8203125 100 m 1
 253.8203125 100.000976562 l 2
 279.8203125 100.000976562 300.44921875 104.16796875 315.706054688 112.500976562 c 0
 330.962890625 120.833984375 343.208007812 134.166992188 352.440429688 152.5 c 0
 361.672851562 170.833007812 370.13671875 196.666015625 377.833007812 229.999023438 c 0
 385.528320312 263.33203125 388.697265625 289.33203125 387.33984375 307.999023438 c 0
 385.983398438 326.666015625 378.805664062 340.333007812 365.805664062 349 c 0
 352.806640625 357.666992188 332.307617188 362 304.307617188 362 c 2
 278.307617188 362 l 1
 302.086914062 465 l 1
 337.086914062 465 l 2
 393.75390625 465 426.934570312 486 436.631835938 528 c 0
 441.865234375 550.668945312 437.045898438 567.3359375 422.174804688 578.000976562 c 0
 407.3046875 588.66796875 381.869140625 594.000976562 345.869140625 594.000976562 c 0
 305.202148438 594.000976562 274.17578125 586.66796875 252.790039062 572.000976562 c 0
 231.403320312 557.333984375 216.786132812 533.000976562 208.936523438 499.000976562 c 2
 93.7333984375 0.0009765625 l 1
 -30.2666015625 0.0009765625 l 1
 82.3974609375 488.000976562 l 2
 98.865234375 559.333984375 130.306640625 612.500976562 176.720703125 647.500976562 c 0
 223.133789062 682.500976562 287.340820312 700.000976562 369.340820312 700.000976562 c 0
 443.340820312 700.000976562 496.903320312 685.833984375 530.029296875 657.500976562 c 0
 563.154296875 629.166992188 573.560546875 588.333984375 561.248046875 535.000976562 c 0
 554.783203125 507.000976562 543.858398438 483.500976562 528.471679688 464.500976562 c 0
 513.084960938 445.500976562 492.006835938 430.000976562 465.236328125 418.000976562 c 1
 491.849609375 403.333984375 507.591796875 382.000976562 512.4609375 354.000976562 c 0
 517.329101562 326.000976562 513.454101562 284.66796875 500.833007812 230.000976562 c 0
 487.596679688 172.66796875 470.591796875 127.16796875 449.819335938 93.5009765625 c 0
 429.046875 59.833984375 402.018554688 35.1669921875 368.735351562 19.5 c 0
 335.451171875 3.8330078125 292.475585938 -4 239.809570312 -4 c 2
 193.809570312 -4 l 1
 217.8203125 100 l 1
EndSplineSet
EndChar

StartChar: agrave
Encoding: 224 224 162
Width: 553
GlyphClass: 2
Flags: MW
HStem: -6 98.999<111.014 232.537> 221.999 85.001<223.609 226.984 226.984 342.984> 431 95<273.17 317.904>
LayerCount: 2
Fore
SplineSet
465.125976562 476 m 0
 497.09765625 442.666992188 505.84765625 394.666015625 491.379882812 331.999023438 c 2
 414.731445312 -0.0009765625 l 1
 294.731445312 -0.0009765625 l 1
 305.813476562 47.9990234375 l 1
 280.68359375 28.666015625 255.489257812 14.8330078125 230.232421875 6.5 c 0
 204.975585938 -1.8330078125 175.680664062 -6 142.34765625 -6 c 0
 79.6806640625 -6 35.4130859375 8 9.5439453125 36 c 0
 -16.32421875 64 -23.3330078125 103.666992188 -11.482421875 155 c 0
 -0.0927734375 204.333007812 25.7705078125 242 66.10546875 268 c 0
 106.44140625 294 158.942382812 307 223.609375 307 c 2
 362.609375 307 l 1
 369.766601562 338 l 2
 384.080078125 400 354.5703125 431 281.237304688 431 c 0
 247.904296875 431 222.352539062 425 204.58203125 413 c 0
 186.811523438 401 175.771484375 385.666992188 171.461914062 367 c 2
 170.76953125 364 l 1
 52.76953125 364 l 1
 53.4619140625 367 l 2
 64.8515625 416.333984375 93.31640625 455.166992188 138.857421875 483.5 c 0
 184.399414062 511.833007812 240.169921875 526 306.169921875 526 c 0
 380.169921875 526 433.155273438 509.333007812 465.125976562 476 c 0
335.596679688 189.999023438 m 2
 342.984375 221.999023438 l 1
 226.984375 221.999023438 l 2
 191.651367188 221.999023438 164.458984375 216.83203125 145.40625 206.499023438 c 0
 126.353515625 196.166015625 114.288085938 179.999023438 109.208984375 157.999023438 c 0
 104.4375 137.33203125 108.911132812 121.33203125 122.626953125 109.999023438 c 0
 136.34375 98.666015625 159.536132812 92.9990234375 192.203125 92.9990234375 c 0
 272.870117188 92.9990234375 320.666992188 125.33203125 335.596679688 189.999023438 c 2
169.1875 720.999023438 m 1
 318.1875 720.999023438 l 1
 407.482421875 587.999023438 l 1
 295.482421875 587.999023438 l 1
 169.1875 720.999023438 l 1
EndSplineSet
EndChar

StartChar: aacute
Encoding: 225 225 163
Width: 553
GlyphClass: 2
Flags: MW
HStem: -6 98.999<111.014 232.537> 221.999 85.001<223.609 226.984 226.984 342.984> 431 95<273.17 317.904>
LayerCount: 2
Fore
SplineSet
465.125976562 476 m 0
 497.09765625 442.666992188 505.84765625 394.666015625 491.379882812 331.999023438 c 2
 414.731445312 -0.0009765625 l 1
 294.731445312 -0.0009765625 l 1
 305.813476562 47.9990234375 l 1
 280.68359375 28.666015625 255.489257812 14.8330078125 230.232421875 6.5 c 0
 204.975585938 -1.8330078125 175.680664062 -6 142.34765625 -6 c 0
 79.6806640625 -6 35.4130859375 8 9.5439453125 36 c 0
 -16.32421875 64 -23.3330078125 103.666992188 -11.482421875 155 c 0
 -0.0927734375 204.333007812 25.7705078125 242 66.10546875 268 c 0
 106.44140625 294 158.942382812 307 223.609375 307 c 2
 362.609375 307 l 1
 369.766601562 338 l 2
 384.080078125 400 354.5703125 431 281.237304688 431 c 0
 247.904296875 431 222.352539062 425 204.58203125 413 c 0
 186.811523438 401 175.771484375 385.666992188 171.461914062 367 c 2
 170.76953125 364 l 1
 52.76953125 364 l 1
 53.4619140625 367 l 2
 64.8515625 416.333984375 93.31640625 455.166992188 138.857421875 483.5 c 0
 184.399414062 511.833007812 240.169921875 526 306.169921875 526 c 0
 380.169921875 526 433.155273438 509.333007812 465.125976562 476 c 0
335.596679688 189.999023438 m 2
 342.984375 221.999023438 l 1
 226.984375 221.999023438 l 2
 191.651367188 221.999023438 164.458984375 216.83203125 145.40625 206.499023438 c 0
 126.353515625 196.166015625 114.288085938 179.999023438 109.208984375 157.999023438 c 0
 104.4375 137.33203125 108.911132812 121.33203125 122.626953125 109.999023438 c 0
 136.34375 98.666015625 159.536132812 92.9990234375 192.203125 92.9990234375 c 0
 272.870117188 92.9990234375 320.666992188 125.33203125 335.596679688 189.999023438 c 2
359.1875 720.999023438 m 1
 508.1875 720.999023438 l 1
 320.482421875 587.999023438 l 1
 208.482421875 587.999023438 l 1
 359.1875 720.999023438 l 1
EndSplineSet
EndChar

StartChar: acircumflex
Encoding: 226 226 164
Width: 553
GlyphClass: 2
Flags: MW
HStem: -6 98.999<111.014 232.537> 221.999 85.001<223.609 226.984 226.984 342.984> 431 95<273.17 317.904>
LayerCount: 2
Fore
SplineSet
465.125976562 476 m 0
 497.09765625 442.666992188 505.84765625 394.666015625 491.379882812 331.999023438 c 2
 414.731445312 -0.0009765625 l 1
 294.731445312 -0.0009765625 l 1
 305.813476562 47.9990234375 l 1
 280.68359375 28.666015625 255.489257812 14.8330078125 230.232421875 6.5 c 0
 204.975585938 -1.8330078125 175.680664062 -6 142.34765625 -6 c 0
 79.6806640625 -6 35.4130859375 8 9.5439453125 36 c 0
 -16.32421875 64 -23.3330078125 103.666992188 -11.482421875 155 c 0
 -0.0927734375 204.333007812 25.7705078125 242 66.10546875 268 c 0
 106.44140625 294 158.942382812 307 223.609375 307 c 2
 362.609375 307 l 1
 369.766601562 338 l 2
 384.080078125 400 354.5703125 431 281.237304688 431 c 0
 247.904296875 431 222.352539062 425 204.58203125 413 c 0
 186.811523438 401 175.771484375 385.666992188 171.461914062 367 c 2
 170.76953125 364 l 1
 52.76953125 364 l 1
 53.4619140625 367 l 2
 64.8515625 416.333984375 93.31640625 455.166992188 138.857421875 483.5 c 0
 184.399414062 511.833007812 240.169921875 526 306.169921875 526 c 0
 380.169921875 526 433.155273438 509.333007812 465.125976562 476 c 0
335.596679688 189.999023438 m 2
 342.984375 221.999023438 l 1
 226.984375 221.999023438 l 2
 191.651367188 221.999023438 164.458984375 216.83203125 145.40625 206.499023438 c 0
 126.353515625 196.166015625 114.288085938 179.999023438 109.208984375 157.999023438 c 0
 104.4375 137.33203125 108.911132812 121.33203125 122.626953125 109.999023438 c 0
 136.34375 98.666015625 159.536132812 92.9990234375 192.203125 92.9990234375 c 0
 272.870117188 92.9990234375 320.666992188 125.33203125 335.596679688 189.999023438 c 2
305.803710938 727.999023438 m 1
 396.803710938 727.999023438 l 1
 496.942382812 576.999023438 l 1
 392.942382812 576.999023438 l 1
 335.412109375 656.999023438 l 1
 239.942382812 576.999023438 l 1
 135.942382812 576.999023438 l 1
 305.803710938 727.999023438 l 1
EndSplineSet
EndChar

StartChar: atilde
Encoding: 227 227 165
Width: 553
GlyphClass: 2
Flags: MW
HStem: -6 98.999<111.014 232.537> 221.999 85.001<223.609 226.984 226.984 342.984> 431 95<273.17 317.904> 582.999 94<378.995 422.029> 621 93.999<246.102 288.136>
LayerCount: 2
Fore
SplineSet
465.125976562 476 m 0xe0
 497.09765625 442.666992188 505.84765625 394.666015625 491.379882812 331.999023438 c 2
 414.731445312 -0.0009765625 l 1
 294.731445312 -0.0009765625 l 1
 305.813476562 47.9990234375 l 1
 280.68359375 28.666015625 255.489257812 14.8330078125 230.232421875 6.5 c 0
 204.975585938 -1.8330078125 175.680664062 -6 142.34765625 -6 c 0
 79.6806640625 -6 35.4130859375 8 9.5439453125 36 c 0
 -16.32421875 64 -23.3330078125 103.666992188 -11.482421875 155 c 0
 -0.0927734375 204.333007812 25.7705078125 242 66.10546875 268 c 0
 106.44140625 294 158.942382812 307 223.609375 307 c 2
 362.609375 307 l 1
 369.766601562 338 l 2
 384.080078125 400 354.5703125 431 281.237304688 431 c 0
 247.904296875 431 222.352539062 425 204.58203125 413 c 0
 186.811523438 401 175.771484375 385.666992188 171.461914062 367 c 2
 170.76953125 364 l 1
 52.76953125 364 l 1
 53.4619140625 367 l 2
 64.8515625 416.333984375 93.31640625 455.166992188 138.857421875 483.5 c 0
 184.399414062 511.833007812 240.169921875 526 306.169921875 526 c 0
 380.169921875 526 433.155273438 509.333007812 465.125976562 476 c 0xe0
335.596679688 189.999023438 m 2
 342.984375 221.999023438 l 1
 226.984375 221.999023438 l 2
 191.651367188 221.999023438 164.458984375 216.83203125 145.40625 206.499023438 c 0
 126.353515625 196.166015625 114.288085938 179.999023438 109.208984375 157.999023438 c 0
 104.4375 137.33203125 108.911132812 121.33203125 122.626953125 109.999023438 c 0
 136.34375 98.666015625 159.536132812 92.9990234375 192.203125 92.9990234375 c 0
 272.870117188 92.9990234375 320.666992188 125.33203125 335.596679688 189.999023438 c 2
179.106445312 672.999023438 m 1
 198.646484375 688.33203125 215.98046875 699.166015625 231.109375 705.499023438 c 0
 246.23828125 711.83203125 262.802734375 714.999023438 280.802734375 714.999023438 c 0xe8
 295.469726562 714.999023438 308.084960938 713.33203125 318.6484375 709.999023438 c 0
 329.211914062 706.666015625 341.057617188 701.666015625 354.185546875 694.999023438 c 0
 366.133789062 688.999023438 376.427734375 684.499023438 385.068359375 681.499023438 c 0
 393.7109375 678.499023438 403.697265625 676.999023438 415.029296875 676.999023438 c 0
 429.029296875 676.999023438 442.350585938 679.83203125 454.9921875 685.499023438 c 0
 467.634765625 691.166015625 485.391601562 701.666015625 508.264648438 716.999023438 c 1
 487.024414062 624.999023438 l 1
 467.483398438 609.661132812 450.149414062 598.828125 435.021484375 592.499023438 c 0
 419.892578125 586.166015625 403.661132812 582.999023438 386.328125 582.999023438 c 0xf0
 371.661132812 582.999023438 359.083984375 584.83203125 348.59765625 588.499023438 c 0
 338.11328125 592.174804688 325.973632812 597.341796875 312.177734375 603.999023438 c 0
 310.3359375 604.684570312 305.502929688 606.8515625 297.677734375 610.5 c 0
 289.862304688 614.185546875 282.310546875 616.852539062 275.024414062 618.5 c 0
 267.7421875 620.166992188 260.434570312 621 253.1015625 621 c 0xe8
 239.1015625 621 225.447265625 618.166992188 212.138671875 612.5 c 0
 198.831054688 606.833007812 180.81640625 596.666015625 158.09765625 581.999023438 c 1
 179.106445312 672.999023438 l 1
EndSplineSet
EndChar

StartChar: adieresis
Encoding: 228 228 166
Width: 553
GlyphClass: 2
Flags: MW
HStem: -6 98.999<111.014 232.537> 221.999 85.001<223.609 226.984 226.984 342.984> 431 95<273.17 317.904> 586.999 116<177.032 257.252 150.252 284.032 177.032 380.252 407.032 487.252>
LayerCount: 2
Fore
SplineSet
465.125976562 476 m 0
 497.09765625 442.666992188 505.84765625 394.666015625 491.379882812 331.999023438 c 2
 414.731445312 -0.0009765625 l 1
 294.731445312 -0.0009765625 l 1
 305.813476562 47.9990234375 l 1
 280.68359375 28.666015625 255.489257812 14.8330078125 230.232421875 6.5 c 0
 204.975585938 -1.8330078125 175.680664062 -6 142.34765625 -6 c 0
 79.6806640625 -6 35.4130859375 8 9.5439453125 36 c 0
 -16.32421875 64 -23.3330078125 103.666992188 -11.482421875 155 c 0
 -0.0927734375 204.333007812 25.7705078125 242 66.10546875 268 c 0
 106.44140625 294 158.942382812 307 223.609375 307 c 2
 362.609375 307 l 1
 369.766601562 338 l 2
 384.080078125 400 354.5703125 431 281.237304688 431 c 0
 247.904296875 431 222.352539062 425 204.58203125 413 c 0
 186.811523438 401 175.771484375 385.666992188 171.461914062 367 c 2
 170.76953125 364 l 1
 52.76953125 364 l 1
 53.4619140625 367 l 2
 64.8515625 416.333984375 93.31640625 455.166992188 138.857421875 483.5 c 0
 184.399414062 511.833007812 240.169921875 526 306.169921875 526 c 0
 380.169921875 526 433.155273438 509.333007812 465.125976562 476 c 0
335.596679688 189.999023438 m 2
 342.984375 221.999023438 l 1
 226.984375 221.999023438 l 2
 191.651367188 221.999023438 164.458984375 216.83203125 145.40625 206.499023438 c 0
 126.353515625 196.166015625 114.288085938 179.999023438 109.208984375 157.999023438 c 0
 104.4375 137.33203125 108.911132812 121.33203125 122.626953125 109.999023438 c 0
 136.34375 98.666015625 159.536132812 92.9990234375 192.203125 92.9990234375 c 0
 272.870117188 92.9990234375 320.666992188 125.33203125 335.596679688 189.999023438 c 2
177.032226562 702.999023438 m 1
 284.032226562 702.999023438 l 1
 257.251953125 586.999023438 l 1
 150.251953125 586.999023438 l 1
 177.032226562 702.999023438 l 1
407.032226562 702.999023438 m 1
 514.032226562 702.999023438 l 1
 487.251953125 586.999023438 l 1
 380.251953125 586.999023438 l 1
 407.032226562 702.999023438 l 1
EndSplineSet
EndChar

StartChar: aring
Encoding: 229 229 167
Width: 553
GlyphClass: 2
Flags: MW
HStem: -6 98.999<111.014 232.537> 221.999 85.001<223.609 226.984 226.984 342.984> 431 95<273.17 317.904> 565.999 55<320.767 329.07> 717.998 55.001<347.527 356.162>
LayerCount: 2
Fore
SplineSet
465.125976562 476 m 0
 497.09765625 442.666992188 505.84765625 394.666015625 491.379882812 331.999023438 c 2
 414.731445312 -0.0009765625 l 1
 294.731445312 -0.0009765625 l 1
 305.813476562 47.9990234375 l 1
 280.68359375 28.666015625 255.489257812 14.8330078125 230.232421875 6.5 c 0
 204.975585938 -1.8330078125 175.680664062 -6 142.34765625 -6 c 0
 79.6806640625 -6 35.4130859375 8 9.5439453125 36 c 0
 -16.32421875 64 -23.3330078125 103.666992188 -11.482421875 155 c 0
 -0.0927734375 204.333007812 25.7705078125 242 66.10546875 268 c 0
 106.44140625 294 158.942382812 307 223.609375 307 c 2
 362.609375 307 l 1
 369.766601562 338 l 2
 384.080078125 400 354.5703125 431 281.237304688 431 c 0
 247.904296875 431 222.352539062 425 204.58203125 413 c 0
 186.811523438 401 175.771484375 385.666992188 171.461914062 367 c 2
 170.76953125 364 l 1
 52.76953125 364 l 1
 53.4619140625 367 l 2
 64.8515625 416.333984375 93.31640625 455.166992188 138.857421875 483.5 c 0
 184.399414062 511.833007812 240.169921875 526 306.169921875 526 c 0
 380.169921875 526 433.155273438 509.333007812 465.125976562 476 c 0
335.596679688 189.999023438 m 2
 342.984375 221.999023438 l 1
 226.984375 221.999023438 l 2
 191.651367188 221.999023438 164.458984375 216.83203125 145.40625 206.499023438 c 0
 126.353515625 196.166015625 114.288085938 179.999023438 109.208984375 157.999023438 c 0
 104.4375 137.33203125 108.911132812 121.33203125 122.626953125 109.999023438 c 0
 136.34375 98.666015625 159.536132812 92.9990234375 192.203125 92.9990234375 c 0
 272.870117188 92.9990234375 320.666992188 125.33203125 335.596679688 189.999023438 c 2
247.713867188 595.499023438 m 0
 232.587890625 615.166015625 228.411132812 639.666015625 235.182617188 668.999023438 c 0
 242.108398438 698.999023438 257.674804688 723.83203125 281.8828125 743.499023438 c 0
 306.08984375 763.166015625 332.860351562 772.999023438 362.193359375 772.999023438 c 0
 391.526367188 772.999023438 413.755859375 763.166015625 428.8828125 743.499023438 c 0
 444.008789062 723.83203125 448.108398438 698.999023438 441.182617188 668.999023438 c 0
 434.411132812 639.666015625 418.921875 615.166015625 394.713867188 595.499023438 c 0
 370.506835938 575.83203125 343.736328125 565.999023438 314.403320312 565.999023438 c 0
 285.0703125 565.999023438 262.840820312 575.83203125 247.713867188 595.499023438 c 0
363.833007812 634.999023438 m 0
 374.98828125 644.33203125 382.104492188 655.665039062 385.182617188 668.998046875 c 0
 388.415039062 682.998046875 386.608398438 694.665039062 379.762695312 703.998046875 c 0
 372.91796875 713.331054688 362.828125 717.998046875 349.495117188 717.998046875 c 0
 336.162109375 717.998046875 324.084960938 713.331054688 313.262695312 703.998046875 c 0
 302.44140625 694.665039062 295.415039062 682.998046875 292.182617188 668.998046875 c 0
 289.103515625 655.66015625 290.986328125 644.327148438 297.833007812 634.999023438 c 0
 304.678710938 625.666015625 314.43359375 620.999023438 327.100585938 620.999023438 c 0
 340.43359375 620.999023438 352.678710938 625.666015625 363.833007812 634.999023438 c 0
EndSplineSet
EndChar

StartChar: ae
Encoding: 230 230 168
Width: 900
GlyphClass: 2
Flags: MW
HStem: -9 101.998<159.537 201.655> 223.998 85.002<224.071 227.447 227.447 343.447> 422.998 106.002<618.529 647.056> 431 95<273.17 317.904>
LayerCount: 2
Fore
SplineSet
822.447265625 224 m 1xe0
 466.447265625 223.998046875 l 1
 447.208007812 140.665039062 479.921875 98.998046875 564.588867188 98.998046875 c 0
 593.921875 98.998046875 618.8203125 104.331054688 639.282226562 114.998046875 c 0
 659.745117188 125.665039062 673.875 140.665039062 681.671875 159.998046875 c 2
 683.364257812 162.998046875 l 1
 804.364257812 162.998046875 l 1
 801.978515625 156.998046875 l 2
 792.745117188 125.665039062 776.037109375 97.33203125 751.85546875 71.9990234375 c 0
 727.673828125 46.666015625 697.427734375 26.8330078125 661.119140625 12.5 c 0
 624.809570312 -1.8330078125 584.322265625 -9 539.655273438 -9 c 0
 459.655273438 -9 402.452148438 14.6669921875 368.046875 62 c 1
 313.119140625 14.6669921875 243.655273438 -9 159.655273438 -9 c 0
 92.98828125 -9 44.9130859375 5.8330078125 15.4287109375 35.5 c 0
 -14.0546875 65.1669921875 -22.8720703125 105.666992188 -11.0205078125 157 c 0
 0.5224609375 207 26.423828125 244.833007812 66.6826171875 270.5 c 0
 106.94140625 296.166992188 159.404296875 309 224.071289062 309 c 2
 363.071289062 309 l 1
 369.766601562 338 l 2
 384.080078125 400 354.5703125 431 281.237304688 431 c 0
 247.904296875 431 222.352539062 425 204.58203125 413 c 0
 186.811523438 401 175.771484375 385.666992188 171.461914062 367 c 2
 170.76953125 364 l 1
 52.76953125 364 l 1
 53.4619140625 367 l 2
 64.8515625 416.333984375 93.31640625 455.166992188 138.857421875 483.5 c 0
 184.399414062 511.833007812 240.169921875 526 306.169921875 526 c 0xd0
 383.502929688 526 437.783203125 507 469.010742188 469 c 1
 521.578125 509 583.1953125 529 653.862304688 529 c 0
 727.862304688 529 781.30859375 507.833007812 814.202148438 465.5 c 0
 847.095703125 423.166992188 854.4609375 362.666992188 836.299804688 284 c 2
 822.447265625 224 l 1xe0
720.91796875 316.998046875 m 2
 728.920898438 351.665039062 724.500976562 377.998046875 707.65625 395.998046875 c 0
 690.8125 413.998046875 664.72265625 422.998046875 629.389648438 422.998046875 c 0xe0
 555.389648438 422.998046875 507.6171875 384.998046875 486.071289062 308.998046875 c 1
 719.071289062 308.998046875 l 1
 720.91796875 316.998046875 l 2
289.090820312 118.498046875 m 0
 313.015625 135.498046875 328.748046875 160.331054688 336.290039062 192.998046875 c 2
 343.447265625 223.998046875 l 1
 227.447265625 223.998046875 l 2
 192.114257812 223.998046875 164.959960938 218.998046875 145.984375 208.998046875 c 0
 127.008789062 198.998046875 114.981445312 182.998046875 109.90234375 160.998046875 c 0
 99.4365234375 115.665039062 126.870117188 92.998046875 192.203125 92.998046875 c 0
 232.870117188 92.998046875 265.166015625 101.498046875 289.090820312 118.498046875 c 0
EndSplineSet
EndChar

StartChar: ccedilla
Encoding: 231 231 169
Width: 559
GlyphClass: 2
Flags: MW
HStem: -155.999 21G<52.7168 171.717 52.7168 52.7168> 419 110<283.861 315.133>
LayerCount: 2
Fore
SplineSet
385.150390625 331 m 1
 386.07421875 335 l 2
 392.076171875 361 387.309570312 381.5 371.772460938 396.5 c 0
 356.235351562 411.5 331.799804688 419 298.466796875 419 c 0
 259.799804688 419 228.247070312 408.666992188 203.80859375 388 c 0
 179.37109375 367.333007812 161.99609375 334.666015625 151.68359375 290 c 2
 138.0625 231 l 2
 127.596679688 185.666992188 130.016601562 152.833984375 145.322265625 132.500976562 c 0
 160.627929688 112.16796875 188.28125 102.000976562 228.28125 102.000976562 c 0
 260.28125 102.000976562 287.102539062 109.16796875 308.744140625 123.500976562 c 0
 330.38671875 137.833984375 344.055664062 157.333984375 349.75 182.000976562 c 2
 350.673828125 186.000976562 l 1
 471.673828125 186.000976562 l 1
 470.75 182.000976562 l 2
 459.514648438 133.333984375 436.370117188 93.0009765625 401.315429688 61.0009765625 c 0
 366.260742188 29.0009765625 322.579101562 8.0009765625 270.270507812 -1.9990234375 c 1
 171.716796875 -155.999023438 l 1
 52.716796875 -155.999023438 l 1
 163.116210938 -6.9990234375 l 1
 100.34765625 -1.666015625 55.7861328125 21.1669921875 29.4306640625 61.5 c 0
 3.0751953125 101.833007812 -1.791015625 158 14.83203125 230 c 2
 29.1455078125 292 l 2
 47 369.333984375 81.58203125 428.166992188 132.893554688 468.5 c 0
 184.205078125 508.833007812 246.861328125 529 320.861328125 529 c 0
 393.528320312 529 446.270507812 512 479.087890625 478 c 0
 511.905273438 444 521.387695312 397 507.536132812 337 c 2
 506.150390625 331 l 1
 385.150390625 331 l 1
EndSplineSet
EndChar

StartChar: egrave
Encoding: 232 232 170
Width: 571
GlyphClass: 2
Flags: MW
HStem: -9 108<192.921 239.321> 226 85<136.909 156.532 156.532 156.532 156.532 493.909> 423 106<286.528 317.056>
LayerCount: 2
Fore
SplineSet
136.909179688 226 m 1
 136.446289062 224 l 2
 117.208007812 140.666992188 150.254882812 99 235.587890625 99 c 0
 264.254882812 99 288.986328125 104.333007812 309.782226562 115 c 0
 330.578125 125.666992188 344.541015625 140.666992188 351.670898438 160 c 2
 353.36328125 163 l 1
 474.36328125 163 l 1
 472.978515625 157 l 2
 458.100585938 107 426.661132812 66.8330078125 378.659179688 36.5 c 0
 330.65625 6.1669921875 272.987304688 -9 205.654296875 -9 c 0
 128.987304688 -9 73.6689453125 12 39.6982421875 54 c 0
 5.7275390625 96 -1.9453125 157.333007812 16.677734375 238 c 2
 27.06640625 283 l 2
 45.3828125 362.333984375 80.759765625 423.166992188 133.200195312 465.5 c 0
 185.640625 507.833007812 249.194335938 529 323.861328125 529 c 0
 398.528320312 529 452.346679688 508 485.317382812 466 c 0
 518.288085938 424 525.76953125 364 507.76171875 286 c 2
 493.909179688 226 l 1
 136.909179688 226 l 1
156.532226562 311 m 1
 389.532226562 310.999023438 l 1
 391.1484375 317.999023438 l 2
 399.151367188 352.666015625 394.692382812 378.833007812 377.771484375 396.5 c 0
 360.850585938 414.166992188 334.72265625 423 299.389648438 423 c 0
 226.056640625 423 178.4375 385.666992188 156.532226562 311 c 1
186.1875 720.999023438 m 1
 335.1875 720.999023438 l 1
 424.482421875 587.999023438 l 1
 312.482421875 587.999023438 l 1
 186.1875 720.999023438 l 1
EndSplineSet
EndChar

StartChar: eacute
Encoding: 233 233 171
Width: 571
GlyphClass: 2
Flags: MW
HStem: -9 108<192.921 239.321> 226 85<136.909 156.532 156.532 156.532 156.532 493.909> 423 106<286.528 317.056>
LayerCount: 2
Fore
SplineSet
136.909179688 226 m 1
 136.446289062 224 l 2
 117.208007812 140.666992188 150.254882812 99 235.587890625 99 c 0
 264.254882812 99 288.986328125 104.333007812 309.782226562 115 c 0
 330.578125 125.666992188 344.541015625 140.666992188 351.670898438 160 c 2
 353.36328125 163 l 1
 474.36328125 163 l 1
 472.978515625 157 l 2
 458.100585938 107 426.661132812 66.8330078125 378.659179688 36.5 c 0
 330.65625 6.1669921875 272.987304688 -9 205.654296875 -9 c 0
 128.987304688 -9 73.6689453125 12 39.6982421875 54 c 0
 5.7275390625 96 -1.9453125 157.333007812 16.677734375 238 c 2
 27.06640625 283 l 2
 45.3828125 362.333984375 80.759765625 423.166992188 133.200195312 465.5 c 0
 185.640625 507.833007812 249.194335938 529 323.861328125 529 c 0
 398.528320312 529 452.346679688 508 485.317382812 466 c 0
 518.288085938 424 525.76953125 364 507.76171875 286 c 2
 493.909179688 226 l 1
 136.909179688 226 l 1
156.532226562 311 m 1
 389.532226562 310.999023438 l 1
 391.1484375 317.999023438 l 2
 399.151367188 352.666015625 394.692382812 378.833007812 377.771484375 396.5 c 0
 360.850585938 414.166992188 334.72265625 423 299.389648438 423 c 0
 226.056640625 423 178.4375 385.666992188 156.532226562 311 c 1
375.1875 720.999023438 m 1
 524.1875 720.999023438 l 1
 336.482421875 587.999023438 l 1
 224.482421875 587.999023438 l 1
 375.1875 720.999023438 l 1
EndSplineSet
EndChar

StartChar: ecircumflex
Encoding: 234 234 172
Width: 571
GlyphClass: 2
Flags: MW
HStem: -9 108<192.921 239.321> 226 85<136.909 156.532 156.532 156.532 156.532 493.909> 423 106<286.528 317.056>
LayerCount: 2
Fore
SplineSet
136.909179688 226 m 1
 136.446289062 224 l 2
 117.208007812 140.666992188 150.254882812 99 235.587890625 99 c 0
 264.254882812 99 288.986328125 104.333007812 309.782226562 115 c 0
 330.578125 125.666992188 344.541015625 140.666992188 351.670898438 160 c 2
 353.36328125 163 l 1
 474.36328125 163 l 1
 472.978515625 157 l 2
 458.100585938 107 426.661132812 66.8330078125 378.659179688 36.5 c 0
 330.65625 6.1669921875 272.987304688 -9 205.654296875 -9 c 0
 128.987304688 -9 73.6689453125 12 39.6982421875 54 c 0
 5.7275390625 96 -1.9453125 157.333007812 16.677734375 238 c 2
 27.06640625 283 l 2
 45.3828125 362.333984375 80.759765625 423.166992188 133.200195312 465.5 c 0
 185.640625 507.833007812 249.194335938 529 323.861328125 529 c 0
 398.528320312 529 452.346679688 508 485.317382812 466 c 0
 518.288085938 424 525.76953125 364 507.76171875 286 c 2
 493.909179688 226 l 1
 136.909179688 226 l 1
156.532226562 311 m 1
 389.532226562 310.999023438 l 1
 391.1484375 317.999023438 l 2
 399.151367188 352.666015625 394.692382812 378.833007812 377.771484375 396.5 c 0
 360.850585938 414.166992188 334.72265625 423 299.389648438 423 c 0
 226.056640625 423 178.4375 385.666992188 156.532226562 311 c 1
322.803710938 727.999023438 m 1
 413.803710938 727.999023438 l 1
 513.942382812 576.999023438 l 1
 409.942382812 576.999023438 l 1
 352.412109375 656.999023438 l 1
 256.942382812 576.999023438 l 1
 152.942382812 576.999023438 l 1
 322.803710938 727.999023438 l 1
EndSplineSet
EndChar

